<svg xmlns="http://www.w3.org/2000/svg" xmlns:xlink="http://www.w3.org/1999/xlink" width="275" zoomAndPan="magnify" viewBox="0 0 206.25 231" height="308" preserveAspectRatio="xMidYMid meet" version="1.0"><defs><g/><clipPath id="97f9a77494"><path d="M 0 0.417969 L 205.503906 0.417969 L 205.503906 229.835938 L 0 229.835938 Z M 0 0.417969 " clip-rule="nonzero"/></clipPath></defs><g clip-path="url(#97f9a77494)"><path fill="#0277bd" d="M 205.472656 0.417969 L 0.03125 0.417969 L 18.160156 205.683594 L 102.75 229.835938 L 187.34375 205.683594 Z M 205.472656 0.417969 " fill-opacity="1" fill-rule="nonzero"/></g><path fill="#039be5" d="M 102.75 18.53125 L 102.75 211.117188 L 170.425781 191.800781 L 185.53125 18.53125 Z M 102.75 18.53125 " fill-opacity="1" fill-rule="nonzero"/><path fill="#ffffff" d="M 157.738281 48.714844 L 102.75 48.714844 L 102.75 72.867188 L 132.359375 72.867188 L 130.546875 97.015625 L 102.75 97.015625 L 102.75 121.164062 L 129.335938 121.164062 L 127.523438 148.332031 L 102.75 156.785156 L 102.75 182.140625 L 150.484375 166.441406 L 154.714844 97.015625 Z M 157.738281 48.714844 " fill-opacity="1" fill-rule="nonzero"/><path fill="#eeeeee" d="M 102.75 48.714844 L 102.75 72.867188 L 48.976562 72.867188 L 47.160156 48.714844 Z M 74.957031 97.015625 L 76.164062 121.164062 L 102.75 121.164062 L 102.75 97.015625 Z M 77.375 133.238281 L 53.203125 133.238281 L 55.015625 166.441406 L 102.75 182.140625 L 102.75 156.785156 L 77.976562 148.332031 Z M 77.375 133.238281 " fill-opacity="1" fill-rule="nonzero"/><g fill="#ffffff" fill-opacity="1"><g transform="translate(119.565212, 119.68478)"><g><path d="M 0.890625 -0.625 C 0.890625 -0.882812 0.945312 -1.078125 1.0625 -1.203125 C 1.1875 -1.335938 1.359375 -1.40625 1.578125 -1.40625 C 1.804688 -1.40625 1.984375 -1.335938 2.109375 -1.203125 C 2.234375 -1.078125 2.296875 -0.882812 2.296875 -0.625 C 2.296875 -0.363281 2.226562 -0.164062 2.09375 -0.03125 C 1.96875 0.101562 1.796875 0.171875 1.578125 0.171875 C 1.378906 0.171875 1.210938 0.109375 1.078125 -0.015625 C 0.953125 -0.140625 0.890625 -0.34375 0.890625 -0.625 Z M 0.890625 -0.625 "/></g></g></g></svg>