<svg xmlns="http://www.w3.org/2000/svg" xmlns:xlink="http://www.w3.org/1999/xlink" width="40" zoomAndPan="magnify" viewBox="0 0 30 35.25" height="47" preserveAspectRatio="xMidYMid meet" version="1.0"><defs><g/><clipPath id="71eeb5918e"><path d="M 0.3125 0 L 28.953125 0 L 28.953125 29 L 0.3125 29 Z M 0.3125 0 " clip-rule="nonzero"/></clipPath></defs><g clip-path="url(#71eeb5918e)"><path fill="#02b194" d="M 14.792969 0.0117188 C 13.84375 0.0117188 12.898438 0.105469 11.96875 0.292969 C 11.035156 0.480469 10.128906 0.753906 9.25 1.121094 C 8.371094 1.484375 7.535156 1.929688 6.746094 2.460938 C 5.957031 2.988281 5.222656 3.589844 4.550781 4.261719 C 3.878906 4.933594 3.277344 5.667969 2.75 6.457031 C 2.21875 7.246094 1.773438 8.082031 1.410156 8.960938 C 1.042969 9.839844 0.769531 10.746094 0.582031 11.679688 C 0.398438 12.609375 0.304688 13.554688 0.300781 14.503906 C 1.097656 33.730469 28.492188 33.722656 29.285156 14.503906 C 29.285156 13.554688 29.191406 12.609375 29.003906 11.679688 C 28.816406 10.746094 28.542969 9.839844 28.175781 8.960938 C 27.8125 8.082031 27.367188 7.246094 26.835938 6.457031 C 26.308594 5.664062 25.707031 4.933594 25.035156 4.261719 C 24.363281 3.589844 23.632812 2.988281 22.839844 2.460938 C 22.050781 1.929688 21.214844 1.484375 20.335938 1.121094 C 19.457031 0.753906 18.550781 0.480469 17.621094 0.292969 C 16.6875 0.105469 15.746094 0.0117188 14.792969 0.0117188 Z M 6.578125 8.109375 L 23.007812 8.109375 C 23.167969 8.109375 23.277344 8.1875 23.328125 8.335938 C 23.378906 8.488281 23.34375 8.613281 23.21875 8.710938 L 15.078125 15.125 C 14.886719 15.269531 14.699219 15.269531 14.511719 15.125 L 6.367188 8.710938 C 6.242188 8.613281 6.207031 8.488281 6.257812 8.335938 C 6.3125 8.1875 6.417969 8.109375 6.578125 8.109375 Z M 24.839844 20.089844 C 24.839844 20.3125 24.761719 20.503906 24.605469 20.660156 C 24.445312 20.820312 24.253906 20.898438 24.03125 20.898438 L 5.554688 20.898438 C 5.332031 20.898438 5.140625 20.820312 4.984375 20.660156 C 4.824219 20.503906 4.746094 20.3125 4.746094 20.089844 L 4.746094 9.289062 C 4.746094 9.148438 4.808594 9.046875 4.9375 8.984375 C 5.0625 8.925781 5.179688 8.9375 5.292969 9.023438 L 13.945312 15.835938 C 14.191406 16.039062 14.476562 16.140625 14.792969 16.140625 C 15.113281 16.140625 15.394531 16.039062 15.644531 15.835938 L 24.296875 9.023438 C 24.40625 8.9375 24.523438 8.925781 24.652344 8.984375 C 24.777344 9.046875 24.839844 9.148438 24.839844 9.289062 Z M 24.839844 20.089844 " fill-opacity="1" fill-rule="nonzero"/></g><g fill="#f6f5f1" fill-opacity="1"><g transform="translate(7.057098, 20.416918)"><g><path d="M 0.21875 -0.28125 C 0.21875 -0.382812 0.242188 -0.460938 0.296875 -0.515625 C 0.359375 -0.566406 0.445312 -0.59375 0.5625 -0.59375 C 0.664062 -0.59375 0.742188 -0.566406 0.796875 -0.515625 C 0.859375 -0.460938 0.890625 -0.382812 0.890625 -0.28125 C 0.890625 -0.175781 0.859375 -0.09375 0.796875 -0.03125 C 0.742188 0.0195312 0.664062 0.046875 0.5625 0.046875 C 0.457031 0.046875 0.375 0.0195312 0.3125 -0.03125 C 0.25 -0.09375 0.21875 -0.175781 0.21875 -0.28125 Z M 0.21875 -0.28125 "/></g></g></g></svg>