<svg xmlns="http://www.w3.org/2000/svg" xmlns:xlink="http://www.w3.org/1999/xlink" width="308" zoomAndPan="magnify" viewBox="0 0 230.87999 231" height="308" preserveAspectRatio="xMidYMid meet" version="1.0"><defs><g/><clipPath id="d0806c6e28"><path d="M 0.300781 0.0585938 L 230.429688 0.0585938 L 230.429688 230.191406 L 0.300781 230.191406 Z M 0.300781 0.0585938 " clip-rule="nonzero"/></clipPath></defs><g clip-path="url(#d0806c6e28)"><path fill="#f03c2e" d="M 226.085938 104.878906 L 125.613281 4.402344 C 124.925781 3.714844 124.175781 3.101562 123.367188 2.558594 C 122.558594 2.019531 121.703125 1.5625 120.804688 1.191406 C 119.90625 0.816406 118.980469 0.535156 118.027344 0.347656 C 117.070312 0.15625 116.109375 0.0625 115.136719 0.0625 C 114.160156 0.0625 113.199219 0.15625 112.242188 0.347656 C 111.289062 0.535156 110.363281 0.816406 109.464844 1.191406 C 108.566406 1.5625 107.710938 2.019531 106.902344 2.558594 C 106.09375 3.101562 105.34375 3.714844 104.65625 4.402344 L 83.800781 25.257812 L 110.265625 51.722656 C 116.421875 49.566406 123.46875 51.042969 128.375 55.945312 C 128.957031 56.527344 129.492188 57.148438 129.988281 57.804688 C 130.480469 58.460938 130.925781 59.148438 131.324219 59.871094 C 131.722656 60.589844 132.066406 61.332031 132.363281 62.101562 C 132.65625 62.867188 132.894531 63.652344 133.078125 64.453125 C 133.261719 65.253906 133.390625 66.066406 133.460938 66.886719 C 133.53125 67.703125 133.542969 68.523438 133.5 69.34375 C 133.453125 70.164062 133.351562 70.980469 133.195312 71.785156 C 133.035156 72.59375 132.820312 73.386719 132.554688 74.160156 L 158.0625 99.671875 C 164.230469 97.542969 171.351562 98.914062 176.277344 103.855469 C 176.6875 104.265625 177.074219 104.691406 177.441406 105.136719 C 177.808594 105.585938 178.152344 106.046875 178.472656 106.527344 C 178.792969 107.007812 179.089844 107.503906 179.363281 108.015625 C 179.636719 108.523438 179.882812 109.046875 180.105469 109.578125 C 180.324219 110.113281 180.519531 110.65625 180.6875 111.210938 C 180.855469 111.761719 180.996094 112.320312 181.109375 112.886719 C 181.222656 113.457031 181.304688 114.027344 181.363281 114.601562 C 181.417969 115.175781 181.449219 115.753906 181.449219 116.332031 C 181.449219 116.910156 181.417969 117.484375 181.363281 118.058594 C 181.304688 118.636719 181.222656 119.207031 181.109375 119.773438 C 180.996094 120.339844 180.855469 120.898438 180.6875 121.453125 C 180.519531 122.003906 180.328125 122.546875 180.105469 123.082031 C 179.882812 123.617188 179.636719 124.136719 179.363281 124.648438 C 179.09375 125.15625 178.796875 125.652344 178.476562 126.132812 C 178.152344 126.613281 177.808594 127.078125 177.441406 127.523438 C 177.078125 127.96875 176.6875 128.398438 176.28125 128.804688 C 175.871094 129.214844 175.445312 129.601562 174.996094 129.96875 C 174.550781 130.335938 174.085938 130.679688 173.605469 131 C 173.125 131.320312 172.628906 131.617188 172.121094 131.890625 C 171.609375 132.160156 171.089844 132.410156 170.554688 132.628906 C 170.023438 132.851562 169.476562 133.042969 168.925781 133.210938 C 168.371094 133.378906 167.8125 133.519531 167.246094 133.632812 C 166.679688 133.746094 166.109375 133.828125 165.53125 133.886719 C 164.957031 133.941406 164.382812 133.96875 163.804688 133.96875 C 163.226562 133.96875 162.648438 133.941406 162.074219 133.882812 C 161.5 133.828125 160.929688 133.742188 160.359375 133.628906 C 159.792969 133.515625 159.234375 133.375 158.683594 133.207031 C 158.128906 133.039062 157.585938 132.84375 157.050781 132.625 C 156.519531 132.402344 155.996094 132.15625 155.488281 131.882812 C 154.976562 131.609375 154.484375 131.3125 154.003906 130.992188 C 153.523438 130.671875 153.058594 130.328125 152.613281 129.960938 C 152.164062 129.59375 151.738281 129.207031 151.332031 128.796875 C 146.152344 123.617188 144.871094 115.996094 147.488281 109.617188 L 123.699219 85.828125 L 123.699219 148.429688 C 125.4375 149.289062 126.996094 150.402344 128.375 151.765625 C 128.78125 152.175781 129.171875 152.601562 129.535156 153.046875 C 129.902344 153.496094 130.246094 153.957031 130.566406 154.4375 C 130.886719 154.917969 131.183594 155.414062 131.457031 155.921875 C 131.730469 156.433594 131.976562 156.953125 132.199219 157.488281 C 132.417969 158.019531 132.613281 158.5625 132.78125 159.117188 C 132.949219 159.667969 133.089844 160.230469 133.199219 160.796875 C 133.3125 161.363281 133.398438 161.933594 133.453125 162.507812 C 133.511719 163.082031 133.539062 163.660156 133.539062 164.238281 C 133.539062 164.8125 133.511719 165.390625 133.453125 165.964844 C 133.398438 166.539062 133.3125 167.109375 133.199219 167.675781 C 133.089844 168.242188 132.949219 168.804688 132.78125 169.355469 C 132.613281 169.910156 132.417969 170.453125 132.199219 170.984375 C 131.976562 171.519531 131.730469 172.039062 131.457031 172.550781 C 131.183594 173.058594 130.886719 173.554688 130.566406 174.035156 C 130.246094 174.515625 129.902344 174.976562 129.535156 175.425781 C 129.171875 175.871094 128.78125 176.296875 128.375 176.707031 C 127.964844 177.113281 127.539062 177.503906 127.09375 177.867188 C 126.644531 178.234375 126.183594 178.578125 125.703125 178.898438 C 125.222656 179.222656 124.726562 179.515625 124.21875 179.789062 C 123.707031 180.0625 123.1875 180.308594 122.652344 180.53125 C 122.121094 180.75 121.578125 180.945312 121.023438 181.113281 C 120.472656 181.28125 119.910156 181.421875 119.34375 181.53125 C 118.777344 181.644531 118.207031 181.730469 117.632812 181.785156 C 117.058594 181.84375 116.480469 181.871094 115.90625 181.871094 C 115.328125 181.871094 114.75 181.84375 114.175781 181.785156 C 113.601562 181.730469 113.03125 181.644531 112.464844 181.53125 C 111.898438 181.421875 111.335938 181.28125 110.785156 181.113281 C 110.230469 180.945312 109.6875 180.75 109.15625 180.53125 C 108.621094 180.308594 108.101562 180.0625 107.589844 179.789062 C 107.082031 179.515625 106.585938 179.222656 106.105469 178.898438 C 105.625 178.578125 105.164062 178.234375 104.714844 177.867188 C 104.269531 177.503906 103.84375 177.113281 103.433594 176.707031 C 103.023438 176.296875 102.636719 175.871094 102.269531 175.425781 C 101.902344 174.980469 101.558594 174.515625 101.238281 174.035156 C 100.917969 173.554688 100.621094 173.058594 100.347656 172.550781 C 100.074219 172.042969 99.828125 171.519531 99.605469 170.988281 C 99.386719 170.453125 99.191406 169.910156 99.023438 169.355469 C 98.855469 168.804688 98.714844 168.246094 98.601562 167.679688 C 98.488281 167.109375 98.402344 166.539062 98.347656 165.964844 C 98.289062 165.390625 98.261719 164.8125 98.261719 164.238281 C 98.261719 163.660156 98.289062 163.082031 98.347656 162.507812 C 98.402344 161.933594 98.488281 161.363281 98.601562 160.796875 C 98.714844 160.226562 98.855469 159.667969 99.023438 159.117188 C 99.191406 158.5625 99.386719 158.019531 99.605469 157.488281 C 99.828125 156.953125 100.074219 156.429688 100.347656 155.921875 C 100.621094 155.414062 100.917969 154.917969 101.238281 154.4375 C 101.558594 153.957031 101.902344 153.496094 102.269531 153.046875 C 102.636719 152.601562 103.023438 152.175781 103.433594 151.765625 C 105.136719 150.070312 107.03125 148.78125 109.210938 147.917969 L 109.210938 84.734375 C 107.109375 83.871094 105.136719 82.597656 103.433594 80.886719 C 102.820312 80.269531 102.25 79.613281 101.734375 78.914062 C 101.214844 78.214844 100.75 77.484375 100.339844 76.714844 C 99.929688 75.949219 99.582031 75.152344 99.289062 74.335938 C 98.996094 73.515625 98.765625 72.679688 98.597656 71.824219 C 98.429688 70.96875 98.324219 70.109375 98.285156 69.238281 C 98.246094 68.371094 98.269531 67.503906 98.355469 66.636719 C 98.445312 65.773438 98.597656 64.917969 98.808594 64.074219 C 99.023438 63.230469 99.300781 62.40625 99.636719 61.605469 L 73.53125 35.515625 L 4.636719 104.335938 C 3.949219 105.027344 3.332031 105.773438 2.792969 106.582031 C 2.25 107.394531 1.792969 108.246094 1.421875 109.144531 C 1.046875 110.046875 0.765625 110.972656 0.574219 111.925781 C 0.386719 112.882812 0.292969 113.847656 0.292969 114.820312 C 0.292969 115.792969 0.386719 116.757812 0.574219 117.710938 C 0.765625 118.667969 1.046875 119.59375 1.421875 120.492188 C 1.792969 121.390625 2.25 122.246094 2.792969 123.054688 C 3.332031 123.863281 3.949219 124.613281 4.636719 125.300781 L 105.117188 225.765625 C 105.804688 226.457031 106.554688 227.070312 107.363281 227.609375 C 108.171875 228.152344 109.023438 228.609375 109.925781 228.980469 C 110.824219 229.351562 111.75 229.632812 112.703125 229.824219 C 113.660156 230.015625 114.621094 230.109375 115.59375 230.109375 C 116.566406 230.109375 117.53125 230.015625 118.484375 229.824219 C 119.441406 229.632812 120.367188 229.351562 121.265625 228.980469 C 122.164062 228.609375 123.019531 228.152344 123.828125 227.609375 C 124.636719 227.070312 125.386719 226.457031 126.074219 225.765625 L 226.085938 125.914062 C 226.773438 125.222656 227.390625 124.476562 227.929688 123.667969 C 228.472656 122.859375 228.929688 122.003906 229.300781 121.105469 C 229.675781 120.203125 229.957031 119.277344 230.148438 118.324219 C 230.335938 117.367188 230.433594 116.40625 230.433594 115.429688 C 230.433594 114.457031 230.335938 113.492188 230.148438 112.539062 C 229.957031 111.582031 229.675781 110.65625 229.300781 109.757812 C 228.929688 108.859375 228.472656 108.003906 227.929688 107.195312 C 227.390625 106.386719 226.773438 105.636719 226.085938 104.949219 " fill-opacity="1" fill-rule="nonzero"/></g><g fill="#e44d26" fill-opacity="1"><g transform="translate(55.471164, 155.529197)"><g><path d="M 0.890625 -0.625 C 0.890625 -0.882812 0.945312 -1.082031 1.0625 -1.21875 C 1.1875 -1.351562 1.359375 -1.421875 1.578125 -1.421875 C 1.804688 -1.421875 1.984375 -1.351562 2.109375 -1.21875 C 2.234375 -1.082031 2.296875 -0.882812 2.296875 -0.625 C 2.296875 -0.363281 2.234375 -0.164062 2.109375 -0.03125 C 1.984375 0.101562 1.804688 0.171875 1.578125 0.171875 C 1.378906 0.171875 1.210938 0.109375 1.078125 -0.015625 C 0.953125 -0.140625 0.890625 -0.34375 0.890625 -0.625 Z M 0.890625 -0.625 "/></g></g></g></svg>