<svg xmlns="http://www.w3.org/2000/svg" xmlns:xlink="http://www.w3.org/1999/xlink" width="269" zoomAndPan="magnify" viewBox="0 0 201.75 231" height="308" preserveAspectRatio="xMidYMid meet" version="1.0"><defs><g/><clipPath id="3ea061712f"><path d="M 0 1 L 201.5 1 L 201.5 230 L 0 230 Z M 0 1 " clip-rule="nonzero"/></clipPath></defs><g clip-path="url(#3ea061712f)"><path fill="#e44d26" d="M 18.488281 206.253906 L 0.179688 1.222656 L 201.320312 1.222656 L 182.996094 206.21875 L 100.625 229.027344 Z M 18.488281 206.253906 " fill-opacity="1" fill-rule="nonzero"/></g><path fill="#f16529" d="M 100.75 211.601562 L 167.3125 193.175781 L 182.964844 17.988281 L 100.75 17.988281 Z M 100.75 211.601562 " fill-opacity="1" fill-rule="nonzero"/><path fill="#ebebeb" d="M 100.75 94.035156 L 67.425781 94.035156 L 65.125 68.285156 L 100.75 68.285156 L 100.75 43.140625 L 37.609375 43.140625 L 38.210938 49.878906 L 44.398438 119.179688 L 100.75 119.179688 Z M 100.75 159.339844 L 100.636719 159.367188 L 72.597656 151.800781 L 70.800781 131.746094 L 45.527344 131.746094 L 49.054688 171.230469 L 100.636719 185.527344 L 100.75 185.496094 Z M 100.75 159.339844 " fill-opacity="1" fill-rule="nonzero"/><path fill="#ffffff" d="M 100.664062 94.035156 L 100.664062 119.179688 L 131.667969 119.179688 L 128.742188 151.792969 L 100.65625 159.355469 L 100.65625 185.515625 L 152.273438 171.230469 L 152.65625 166.980469 L 158.578125 100.773438 L 159.195312 94.023438 L 152.410156 94.023438 Z M 100.664062 43.140625 L 100.664062 68.285156 L 161.484375 68.285156 L 161.988281 62.625 L 163.140625 49.878906 L 163.738281 43.128906 Z M 100.664062 43.140625 " fill-opacity="1" fill-rule="nonzero"/><g fill="#ffffff" fill-opacity="1"><g transform="translate(113.465652, 112.653533)"><g><path d="M 0.890625 -0.625 C 0.890625 -0.882812 0.945312 -1.082031 1.0625 -1.21875 C 1.1875 -1.351562 1.359375 -1.421875 1.578125 -1.421875 C 1.804688 -1.421875 1.984375 -1.351562 2.109375 -1.21875 C 2.234375 -1.082031 2.296875 -0.882812 2.296875 -0.625 C 2.296875 -0.363281 2.226562 -0.164062 2.09375 -0.03125 C 1.96875 0.101562 1.796875 0.171875 1.578125 0.171875 C 1.378906 0.171875 1.210938 0.109375 1.078125 -0.015625 C 0.953125 -0.140625 0.890625 -0.34375 0.890625 -0.625 Z M 0.890625 -0.625 "/></g></g></g></svg>