<svg xmlns="http://www.w3.org/2000/svg" xmlns:xlink="http://www.w3.org/1999/xlink" width="273" zoomAndPan="magnify" viewBox="0 0 204.75 267.749992" height="357" preserveAspectRatio="xMidYMid meet" version="1.0"><defs><g/><clipPath id="46d56f53eb"><path d="M 8 0.0390625 L 203.96875 0.0390625 L 203.96875 266 L 8 266 Z M 8 0.0390625 " clip-rule="nonzero"/></clipPath></defs><g clip-path="url(#46d56f53eb)"><path fill="#4b2699" d="M 31.363281 136.191406 L 30.132812 131.957031 L 40.5 121.609375 L 43.363281 121.609375 C 43.628906 120.863281 43.890625 120.074219 44.089844 119.46875 C 50.527344 116.242188 56.699219 112.714844 64.058594 111.261719 L 64.808594 111.925781 C 66.824219 111.503906 68.839844 111.160156 70.617188 110.738281 C 72.390625 110.3125 74.285156 109.667969 76.144531 109.445312 C 78.160156 109.277344 80.175781 109.277344 82.195312 109.445312 C 84.351562 109.585938 86.492188 110.050781 88.648438 110.152344 C 90.34375 110.152344 92.078125 109.75 93.730469 109.929688 C 95.617188 110.203125 97.449219 110.667969 99.238281 111.320312 C 100.75 111.824219 102.585938 110.777344 103.859375 112.148438 C 105.453125 113.863281 107.46875 113.417969 109.425781 113.480469 C 111.019531 111.785156 113.15625 110.675781 113.097656 107.570312 C 113.191406 106.515625 113.464844 105.511719 113.917969 104.558594 C 114.371094 103.605469 114.980469 102.757812 115.738281 102.023438 C 120.863281 96.917969 122.636719 89.921875 126.386719 84.03125 C 131.066406 76.726562 134.960938 68.921875 140.507812 62.125 C 142.195312 59.949219 143.640625 57.621094 144.84375 55.144531 C 147.386719 50.242188 152.53125 46.976562 153.578125 41.167969 C 156.402344 40.523438 156.707031 37.457031 158.621094 35.882812 C 160.414062 34.449219 161.917969 32.761719 163.140625 30.820312 C 166.066406 25.957031 171.710938 23.4375 173.890625 18.011719 C 180.730469 13.167969 185.53125 5.746094 193.757812 2.640625 L 194.929688 3.832031 L 195.9375 1.449219 L 200.476562 0.0585938 L 204.007812 2.074219 C 203.019531 3.789062 201.988281 5.425781 201.101562 7.039062 C 200.214844 8.652344 199.246094 9.863281 198.316406 11.273438 L 199.285156 12.363281 C 195.535156 15.851562 191.640625 19.140625 188.152344 22.792969 C 184.664062 26.441406 180.347656 29.386719 177.824219 34.046875 C 177.140625 35.316406 175.183594 35.902344 173.789062 36.832031 L 174.941406 37.980469 C 171.492188 42.296875 167.152344 45.847656 164.390625 50.789062 C 162.742188 53.285156 160.941406 55.664062 158.984375 57.929688 C 155.796875 62.226562 154.125 67.652344 149.203125 70.898438 C 149.605469 71.785156 149.96875 72.53125 150.472656 73.601562 L 146.742188 76.082031 L 148.011719 77.597656 C 142.808594 80.015625 144.160156 87.480469 138.371094 89.4375 L 140.144531 91.453125 L 136.109375 94.074219 L 136.109375 97.664062 L 131.734375 101.195312 L 131.734375 106.339844 L 129.089844 107.226562 L 130.625 108.921875 L 128.488281 109.566406 C 127.71875 111.582031 126.871094 113.964844 126.125 115.960938 L 123.847656 116.527344 L 123.847656 119.894531 L 137.019531 130.664062 C 137.703125 131.753906 138.449219 134.355469 139.945312 134.921875 C 142.707031 135.96875 142.605469 138.734375 144.339844 140.285156 C 145.742188 141.890625 146.929688 143.640625 147.910156 145.53125 L 147.164062 146.277344 C 148.859375 149.605469 151.339844 152.734375 151.964844 156.222656 C 152.46875 159.105469 154.144531 162.273438 152.511719 165.582031 C 152.347656 165.882812 153.398438 167.296875 152.347656 168.445312 C 152.085938 168.769531 153.417969 170.222656 153.519531 171.210938 C 154.203125 178.230469 152.226562 184.90625 150.554688 191.601562 C 149.6875 195.089844 148.535156 198.519531 147.425781 202.554688 L 145.753906 203.140625 C 145.167969 205.519531 145.328125 208.707031 143.734375 210.28125 C 139.703125 214.476562 138.792969 220.546875 134.597656 224.398438 C 134.335938 224.660156 133.832031 224.683594 133.347656 224.84375 C 133.347656 225.890625 133.125 226.859375 133.003906 227.992188 L 130.542969 229 L 130.542969 231.539062 C 128.625 232.566406 126.902344 233.855469 125.382812 235.410156 C 123.859375 236.964844 122.609375 238.714844 121.628906 240.65625 C 121.324219 240.335938 121.003906 240.011719 120.335938 239.367188 C 118.097656 244.550781 113.277344 246.949219 109.164062 250.117188 C 107.449219 251.691406 105.515625 252.90625 103.351562 253.769531 C 101.054688 254.515625 99.199219 256.632812 97.179688 258.125 L 95.769531 256.976562 C 95.40625 257.882812 95.082031 258.648438 94.699219 259.578125 L 93.226562 258.367188 L 90.484375 260.929688 L 89.433594 260 C 87.214844 260.847656 85.261719 261.554688 83.382812 262.363281 C 81.460938 263.492188 79.390625 263.9375 77.171875 263.691406 C 75.277344 263.269531 73.441406 267 71.542969 263.691406 C 70.132812 265.304688 67.972656 263.691406 66.398438 264.964844 C 64.828125 266.234375 62.667969 262.605469 60.773438 264.964844 L 55.347656 262.484375 L 52.785156 264.117188 L 50.40625 260.605469 L 48.550781 262.242188 C 44.675781 259.71875 40.925781 256.894531 36.828125 254.71875 C 31.804688 251.691406 27.589844 247.792969 24.183594 243.019531 C 21.347656 239.488281 18.929688 235.691406 16.921875 231.632812 C 14.914062 227.574219 13.367188 223.347656 12.28125 218.953125 C 11.191406 214.617188 8.8125 210.199219 10.003906 205.4375 C 10.605469 202.957031 6.390625 200.839844 9.617188 198.296875 C 7.601562 196.683594 9.882812 194.585938 8.933594 192.53125 C 8.207031 190.996094 9.578125 188.496094 9.941406 186.476562 C 10.304688 184.460938 9.035156 181.941406 11.3125 180.285156 C 10.304688 178.390625 13.332031 176.65625 11.535156 174.71875 C 13.128906 171.089844 13.753906 167.113281 15.792969 163.625 C 16.964844 161.847656 17.777344 159.917969 18.230469 157.835938 C 18.878906 154.488281 28.800781 139.054688 31.363281 136.191406 Z M 36.707031 141.515625 C 35.640625 144.078125 35.234375 145.289062 34.691406 146.378906 C 32.535156 150.414062 28.984375 153.660156 27.613281 158.339844 C 25.171875 166.628906 20.671875 174.316406 20.835938 183.292969 C 17.746094 186.175781 20.1875 190.027344 19.160156 193.378906 C 18.332031 196.101562 20.328125 199.429688 18.617188 202.535156 C 20.4375 209.863281 22.671875 217.0625 25.3125 224.136719 C 26.859375 227.617188 28.769531 230.886719 31.039062 233.941406 C 33.023438 236.914062 35.480469 239.429688 38.402344 241.484375 C 41.671875 243.621094 44.453125 246.589844 47.519531 249.007812 C 48.449219 249.714844 50 249.59375 51.050781 250.21875 C 52.253906 251.0625 53.386719 251.996094 54.4375 253.023438 L 58.050781 251.308594 C 58.613281 252.457031 59.019531 253.324219 59.441406 254.132812 L 60.894531 252.941406 C 62.570312 253.464844 64.269531 253.890625 65.996094 254.210938 C 70.394531 254.796875 74.488281 252.859375 78.785156 252.378906 C 81.492188 251.941406 84.09375 251.160156 86.589844 250.039062 C 88.671875 249.046875 90.6875 247.945312 92.644531 246.730469 C 94.660156 245.621094 96.675781 244.550781 98.695312 243.359375 C 101.015625 242.34375 103.125 241 105.027344 239.328125 C 106.539062 237.632812 109.242188 236.804688 109.769531 234.910156 C 110.554688 232.042969 113.21875 231.984375 114.75 230.332031 C 122.425781 222.148438 128.5625 212.945312 133.167969 202.714844 C 135.015625 198.941406 136.597656 195.054688 137.90625 191.058594 C 139.273438 187.1875 139.984375 183.199219 140.042969 179.097656 C 142.605469 176.957031 140.730469 174.011719 141.394531 171.53125 C 142.0625 169.050781 139.863281 166.53125 141.113281 163.96875 C 138.859375 157.246094 135.96875 150.8125 132.441406 144.664062 C 130.839844 142.339844 129.105469 140.121094 127.234375 138.007812 C 124.492188 139.097656 125.964844 134.519531 123.039062 134.980469 C 121.929688 135.144531 120.359375 132.519531 119.46875 131.613281 L 114.0625 136.597656 L 114.0625 139.945312 C 113.15625 140.496094 112.308594 141.128906 111.523438 141.839844 C 109.828125 143.734375 110.976562 146.761719 109.503906 148.4375 C 105.1875 153.578125 104.804688 160.539062 100.628906 165.804688 C 100.207031 166.347656 100.628906 167.558594 100.628906 169.636719 C 99.863281 170.421875 98.613281 171.753906 97.203125 173.066406 L 98.109375 173.972656 C 96.253906 177.765625 94.316406 181.679688 92.441406 185.53125 L 93.589844 187.324219 L 89.433594 190.027344 C 89.878906 193.296875 90.324219 196.484375 90.785156 199.851562 L 88.609375 200.617188 L 88.246094 204.996094 L 85.199219 206.691406 L 79.691406 204.671875 L 77.375 205.558594 C 67.96875 192.054688 59.429688 178.023438 51.757812 163.464844 L 54.820312 158.523438 L 60.328125 160.214844 C 61.476562 161.789062 62.707031 165.339844 64.886719 166.046875 C 68.257812 167.15625 66.519531 172.097656 70.355469 171.933594 C 71.421875 174.253906 71.925781 176.976562 74.832031 177.988281 L 73.804688 179.015625 L 77.3125 182.625 C 85.046875 162.8125 94.164062 143.65625 104.664062 125.160156 L 101.476562 121.570312 L 99.902344 122.960938 L 86.550781 118.925781 C 86.308594 119.148438 85.984375 119.671875 85.644531 119.691406 C 79.59375 119.976562 73.539062 120.195312 66.925781 120.460938 L 64.746094 123.242188 L 62.386719 122.050781 C 58.199219 123.164062 54.273438 124.871094 50.605469 127.175781 C 46.792969 129.355469 42.699219 132.15625 42.253906 136.738281 Z M 36.707031 141.515625 " fill-opacity="1" fill-rule="nonzero"/></g><g fill="#4b2699" fill-opacity="1"><g transform="translate(91.629358, 160.792123)"><g><path d="M 1.03125 -1.25 C 1.03125 -1.75 1.160156 -2.125 1.421875 -2.375 C 1.679688 -2.625 2.066406 -2.75 2.578125 -2.75 C 3.054688 -2.75 3.425781 -2.617188 3.6875 -2.359375 C 3.957031 -2.097656 4.09375 -1.726562 4.09375 -1.25 C 4.09375 -0.789062 3.957031 -0.425781 3.6875 -0.15625 C 3.425781 0.101562 3.054688 0.234375 2.578125 0.234375 C 2.078125 0.234375 1.691406 0.101562 1.421875 -0.15625 C 1.160156 -0.414062 1.03125 -0.78125 1.03125 -1.25 Z M 1.03125 -1.25 "/></g></g></g></svg>