<svg xmlns="http://www.w3.org/2000/svg" xmlns:xlink="http://www.w3.org/1999/xlink" width="292" zoomAndPan="magnify" viewBox="0 0 218.87999 264.749989" height="353" preserveAspectRatio="xMidYMid meet" version="1.0"><defs><g/><clipPath id="34eb5d6c95"><path d="M 42.609375 36 L 206 36 L 206 263.855469 L 42.609375 263.855469 Z M 42.609375 36 " clip-rule="nonzero"/></clipPath><clipPath id="aeef3fb850"><path d="M 195.601562 53 L 218.011719 53 L 218.011719 67 L 195.601562 67 Z M 195.601562 53 " clip-rule="nonzero"/></clipPath></defs><path fill="#a390cc" d="M 92.878906 207.792969 C 92.878906 207.792969 89.5 189.609375 85.339844 183.449219 C 69.960938 160.671875 43.550781 128.351562 73.617188 86.816406 C 96.808594 54.773438 158.960938 65.347656 180.363281 99.78125 C 194.222656 122.101562 192.015625 149.753906 172.820312 169.265625 C 163.054688 179.242188 139.835938 197.058594 138.089844 213.214844 L 92.878906 207.792969 " fill-opacity="1" fill-rule="evenodd"/><g clip-path="url(#34eb5d6c95)"><path fill="#4b2699" d="M 77.800781 204.964844 C 77.203125 205.054688 76.648438 205.332031 76.191406 205.746094 C 75.546875 206.34375 75.179688 207.195312 75.179688 208.066406 C 75.222656 211.859375 74.167969 213.675781 73.824219 216.800781 C 73.15625 222.9375 75.59375 228.777344 79.960938 232.824219 C 79.753906 233.648438 79.476562 234.410156 79.386719 235.351562 C 79.0625 238.246094 80.074219 241.097656 82.167969 243.535156 C 82.671875 244.085938 83.222656 244.636719 83.867188 245.167969 C 83.730469 245.808594 83.636719 246.476562 83.546875 247.1875 C 82.832031 253.878906 88.441406 260.269531 96.417969 261.140625 C 103.679688 261.921875 113.082031 262.957031 120.34375 263.761719 C 128.230469 264.613281 134.4375 259.738281 135.859375 253.257812 C 136.042969 252.40625 136.113281 251.554688 136.113281 250.660156 C 139.421875 248.773438 141.675781 245.902344 142.480469 242.683594 C 142.6875 241.808594 142.710938 240.984375 142.640625 240.109375 C 142.617188 239.902344 142.597656 239.671875 142.574219 239.441406 C 147.308594 236.429688 150.710938 231.488281 151.929688 225.652344 C 152.203125 224.273438 152.226562 223.007812 152.15625 221.652344 C 152.089844 220.179688 151.949219 218.570312 152.339844 216.34375 C 152.480469 215.492188 152.296875 214.640625 151.765625 213.953125 C 151.398438 213.445312 150.871094 213.078125 150.273438 212.871094 C 150.917969 210.894531 151.929688 208.527344 153.445312 205.609375 C 157.054688 198.664062 164.386719 194 172.269531 187.585938 C 185.074219 177.152344 199.417969 162.671875 204.289062 130.144531 C 210.933594 85.738281 177.417969 42.269531 133.011719 37.421875 C 88.648438 32.570312 49.019531 67.855469 43.367188 112.355469 C 39.597656 141.9375 50.539062 159.867188 61.109375 173.910156 C 67.617188 182.554688 74.097656 189.539062 76.121094 197.148438 C 76.996094 200.367188 77.523438 202.917969 77.800781 204.964844 Z M 94.464844 249.554688 C 92.785156 249.328125 91.175781 248.957031 89.683594 248.429688 C 89.683594 251.785156 93.015625 254.519531 97.105469 254.980469 L 121.011719 257.601562 C 125.058594 258.039062 128.414062 255.945312 129.5625 252.796875 C 128.6875 252.914062 127.769531 252.957031 126.851562 252.957031 L 126.34375 252.957031 C 126.253906 252.957031 126.160156 252.957031 126.046875 252.957031 L 125.886719 252.933594 L 125.609375 252.933594 L 125.332031 252.914062 L 125.011719 252.890625 L 124.78125 252.867188 L 124.527344 252.84375 L 124.34375 252.820312 L 94.855469 249.601562 L 94.714844 249.578125 Z M 85.523438 236.523438 C 85.566406 237.949219 86.488281 239.257812 87.773438 240.363281 C 88.121094 240.660156 88.511719 240.9375 88.902344 241.210938 C 88.945312 241.210938 88.96875 241.234375 88.992188 241.257812 C 90.71875 242.339844 92.878906 243.121094 95.292969 243.394531 L 95.429688 243.417969 L 95.519531 243.441406 C 104.460938 244.40625 116.09375 245.695312 125.035156 246.660156 L 125.148438 246.683594 L 125.265625 246.683594 C 127.699219 246.9375 129.90625 246.613281 131.746094 245.902344 C 131.882812 245.832031 132.046875 245.785156 132.207031 245.765625 C 134.066406 244.960938 135.46875 243.695312 136.160156 242.085938 C 134.183594 242.523438 132.066406 242.660156 129.882812 242.476562 L 129.632812 242.453125 L 129.402344 242.429688 C 118.117188 241.191406 103.449219 239.582031 92.164062 238.363281 L 91.890625 238.316406 L 91.613281 238.292969 L 91.5 238.269531 L 91.246094 238.222656 L 91.152344 238.222656 C 89.175781 237.902344 87.269531 237.328125 85.523438 236.523438 Z M 145.90625 218.546875 L 81.132812 211.46875 C 80.808594 213.539062 80.234375 215.191406 79.984375 217.492188 C 79.476562 222.066406 81.570312 226.339844 85.132812 229.097656 C 85.15625 229.121094 85.175781 229.144531 85.199219 229.167969 C 85.707031 229.535156 86.234375 229.878906 86.761719 230.203125 L 86.878906 230.269531 L 86.96875 230.316406 C 88.441406 231.144531 90.074219 231.742188 91.84375 232.042969 L 92.117188 232.109375 C 92.234375 232.109375 92.347656 232.132812 92.464844 232.15625 L 92.671875 232.179688 L 92.832031 232.203125 L 130.089844 236.269531 L 130.277344 236.292969 C 138.113281 237.050781 144.34375 231.628906 145.859375 224.386719 C 146.089844 223.261719 145.976562 222.25 145.929688 221.078125 C 145.90625 220.296875 145.859375 219.46875 145.90625 218.546875 Z M 83.773438 202.988281 L 144.824219 209.675781 C 145.539062 207.699219 146.550781 205.421875 147.953125 202.734375 C 151.90625 195.125 159.71875 189.816406 168.339844 182.78125 C 180.292969 173.058594 193.625 159.542969 198.152344 129.25 C 204.3125 88.195312 173.351562 48.0625 132.320312 43.582031 C 91.269531 39.074219 54.746094 71.945312 49.503906 113.136719 C 46.03125 140.558594 56.261719 157.175781 66.054688 170.1875 C 73.132812 179.566406 79.890625 187.289062 82.121094 195.539062 C 82.902344 198.503906 83.429688 200.941406 83.773438 202.988281 " fill-opacity="1" fill-rule="evenodd"/></g><path fill="#4b2699" d="M 124.851562 157.796875 C 122.183594 158.761719 119.171875 158.921875 116.367188 157.335938 C 117.609375 155.820312 118.644531 154.027344 119.378906 151.890625 C 120.230469 149.453125 120.207031 146.074219 119.105469 143.429688 C 117.769531 140.191406 115.058594 137.9375 110.738281 138.558594 C 108.554688 138.878906 106.578125 140.511719 105.542969 143.246094 C 104.234375 146.671875 104.4375 152.121094 107.289062 156.832031 C 106.921875 157.039062 106.53125 157.222656 106.140625 157.40625 C 105.886719 157.519531 105.65625 157.613281 105.40625 157.707031 C 104.945312 156.441406 104.460938 155.292969 103.980469 154.304688 C 102.53125 151.339844 100.832031 147.980469 98.671875 145.820312 C 96.714844 143.867188 94.417969 142.765625 91.707031 142.878906 C 89.316406 142.996094 87.269531 144.417969 85.980469 146.695312 C 84.441406 149.40625 84.121094 153.382812 85.546875 156.441406 C 86.832031 159.175781 89.730469 162.441406 92.902344 164.257812 C 95.476562 165.726562 98.234375 166.210938 100.625 165.429688 C 100.785156 165.382812 101.015625 165.3125 101.3125 165.269531 C 105.773438 181.566406 108.621094 208.734375 108.621094 208.734375 C 108.808594 210.433594 110.347656 211.675781 112.023438 211.492188 C 113.75 211.308594 114.96875 209.769531 114.78125 208.066406 C 114.78125 208.066406 111.792969 180.667969 107.222656 163.660156 C 107.679688 163.476562 108.164062 163.269531 108.644531 163.0625 C 109.609375 162.648438 110.578125 162.140625 111.542969 161.542969 C 116.964844 165.726562 123.242188 165.335938 128.34375 163.0625 C 128.941406 163.636719 129.585938 164.164062 130.277344 164.648438 C 131.035156 165.222656 131.863281 165.703125 132.710938 166.164062 C 124.550781 183.128906 117.472656 208.894531 117.472656 208.894531 C 117.035156 210.550781 118 212.25 119.65625 212.6875 C 121.3125 213.148438 123.011719 212.160156 123.449219 210.503906 C 123.449219 210.503906 130.367188 184.597656 138.320312 168.484375 C 140.941406 169.289062 143.007812 169.636719 143.5625 169.726562 C 149.46875 170.667969 156.339844 168.277344 158.179688 162.738281 C 160.316406 156.417969 158.617188 150.808594 153.835938 149.039062 C 147.722656 146.808594 142.800781 151.15625 139.5625 154.855469 C 138.25 156.371094 136.894531 158.371094 135.5625 160.695312 C 134.988281 160.371094 134.4375 160.003906 133.882812 159.636719 L 133.816406 159.566406 C 136.664062 157.109375 138.804688 154.050781 139.835938 151.316406 C 140.894531 148.535156 140.824219 145.960938 139.859375 144.097656 C 139.078125 142.582031 137.746094 141.363281 135.632812 140.8125 C 131.746094 139.753906 128.941406 141.410156 127.011719 144.234375 C 125.585938 146.328125 124.757812 149.222656 124.390625 151.613281 C 124.046875 153.9375 124.230469 155.980469 124.851562 157.796875 Z M 99.429688 159.359375 C 99.105469 158.511719 98.761719 157.726562 98.417969 157.039062 C 97.429688 154.992188 96.347656 152.71875 94.96875 150.992188 C 94.140625 149.9375 93.246094 149.015625 91.980469 149.0625 C 91.84375 149.085938 91.75 149.222656 91.636719 149.339844 C 91.40625 149.613281 91.246094 149.9375 91.109375 150.328125 C 90.71875 151.382812 90.648438 152.71875 91.152344 153.796875 C 92.003906 155.589844 93.890625 157.683594 95.957031 158.878906 C 96.878906 159.40625 97.820312 159.820312 98.671875 159.542969 C 98.832031 159.5 99.082031 159.429688 99.429688 159.359375 Z M 141.355469 162.921875 C 142.964844 163.359375 144.183594 163.542969 144.527344 163.613281 C 146.226562 163.867188 148.113281 163.75 149.699219 163.152344 C 150.871094 162.691406 151.929688 161.980469 152.320312 160.785156 C 152.847656 159.152344 153.078125 157.589844 152.800781 156.324219 C 152.664062 155.660156 152.339844 155.109375 151.699219 154.878906 C 150.34375 154.371094 149.148438 154.738281 148.113281 155.359375 C 146.574219 156.28125 145.308594 157.726562 144.226562 158.945312 C 143.285156 160.027344 142.320312 161.382812 141.355469 162.921875 Z M 112.09375 152.71875 C 112.667969 151.890625 113.152344 150.949219 113.542969 149.890625 C 113.933594 148.71875 113.933594 147.085938 113.402344 145.820312 C 113.128906 145.15625 112.621094 144.601562 111.792969 144.671875 C 111.679688 144.832031 111.289062 145.453125 111.175781 145.9375 C 110.785156 147.40625 110.851562 149.316406 111.472656 151.222656 C 111.632812 151.730469 111.839844 152.234375 112.09375 152.71875 Z M 130.460938 154.257812 C 132.136719 152.671875 133.402344 150.832031 134.046875 149.132812 C 134.273438 148.558594 134.414062 148.003906 134.414062 147.5 C 134.4375 147.179688 134.367188 146.878906 134.023438 146.785156 C 133.148438 146.558594 132.574219 147.0625 132.136719 147.707031 C 131.21875 149.085938 130.734375 150.992188 130.503906 152.554688 C 130.414062 153.152344 130.390625 153.730469 130.460938 154.257812 " fill-opacity="1" fill-rule="evenodd"/><path fill="#4b2699" d="M 134.253906 21.308594 L 136.207031 3.402344 C 136.390625 1.722656 135.171875 0.183594 133.46875 0 C 131.769531 -0.183594 130.230469 1.035156 130.046875 2.734375 L 128.089844 20.640625 C 127.90625 22.34375 129.148438 23.859375 130.828125 24.042969 C 132.527344 24.226562 134.066406 23.007812 134.253906 21.308594 " fill-opacity="1" fill-rule="evenodd"/><path fill="#4b2699" d="M 177.625 38.109375 L 189.417969 24.777344 C 190.542969 23.492188 190.429688 21.539062 189.140625 20.410156 C 187.878906 19.261719 185.902344 19.398438 184.773438 20.664062 L 172.984375 33.996094 C 171.855469 35.28125 171.972656 37.238281 173.257812 38.386719 C 174.523438 39.511719 176.5 39.398438 177.625 38.109375 " fill-opacity="1" fill-rule="evenodd"/><g clip-path="url(#aeef3fb850)"><path fill="#4b2699" d="M 200.222656 66.636719 L 216.265625 58.957031 C 217.804688 58.199219 218.472656 56.359375 217.734375 54.820312 C 217 53.28125 215.140625 52.613281 213.597656 53.351562 L 197.554688 61.050781 C 195.992188 61.785156 195.347656 63.625 196.082031 65.164062 C 196.820312 66.726562 198.679688 67.371094 200.222656 66.636719 " fill-opacity="1" fill-rule="evenodd"/></g><path fill="#4b2699" d="M 94.785156 25.8125 L 87.84375 9.425781 C 87.175781 7.839844 85.359375 7.101562 83.773438 7.769531 C 82.210938 8.4375 81.476562 10.25 82.144531 11.835938 L 89.0625 28.226562 C 89.730469 29.789062 91.566406 30.523438 93.128906 29.859375 C 94.714844 29.191406 95.453125 27.375 94.785156 25.8125 " fill-opacity="1" fill-rule="evenodd"/><path fill="#4b2699" d="M 63.292969 44.683594 L 49.296875 33.675781 C 47.941406 32.617188 46.007812 32.871094 44.953125 34.203125 C 43.894531 35.558594 44.125 37.488281 45.457031 38.546875 L 59.457031 49.558594 C 60.8125 50.613281 62.765625 50.363281 63.824219 49.027344 C 64.882812 47.671875 64.628906 45.742188 63.292969 44.683594 " fill-opacity="1" fill-rule="evenodd"/><g fill="#4b2699" fill-opacity="1"><g transform="translate(91.133251, 208.75286)"><g><path d="M 1.03125 -1.25 C 1.03125 -1.75 1.160156 -2.125 1.421875 -2.375 C 1.679688 -2.625 2.066406 -2.75 2.578125 -2.75 C 3.054688 -2.75 3.425781 -2.617188 3.6875 -2.359375 C 3.957031 -2.097656 4.09375 -1.726562 4.09375 -1.25 C 4.09375 -0.789062 3.957031 -0.425781 3.6875 -0.15625 C 3.425781 0.101562 3.054688 0.234375 2.578125 0.234375 C 2.078125 0.234375 1.691406 0.101562 1.421875 -0.15625 C 1.160156 -0.414062 1.03125 -0.78125 1.03125 -1.25 Z M 1.03125 -1.25 "/></g></g></g></svg>