<svg xmlns="http://www.w3.org/2000/svg" xmlns:xlink="http://www.w3.org/1999/xlink" width="304" zoomAndPan="magnify" viewBox="0 0 228 267.749983" height="357" preserveAspectRatio="xMidYMid meet" version="1.0"><defs><g/><clipPath id="d300bed311"><path d="M 1 5 L 227 5 L 227 266.75 L 1 266.75 Z M 1 5 " clip-rule="nonzero"/></clipPath></defs><g clip-path="url(#d300bed311)"><path fill="#4b2699" d="M 226.519531 93.519531 C 225.773438 77.953125 222.367188 62.148438 214.5 48.566406 C 207.25 37.914062 199.78125 27.140625 189.382812 19.269531 C 165.234375 0.078125 129.71875 1.582031 104.121094 17.195312 C 89.699219 26.039062 76.546875 38.113281 68.597656 53.210938 C 55.335938 82.335938 58.949219 119.261719 81.164062 142.222656 C 80.910156 143.183594 80.875 144.261719 80.800781 145.300781 C 79.789062 150.871094 77.011719 155.792969 73.871094 160.648438 C 73.183594 160.339844 72.523438 160.050781 71.921875 159.8125 C 68.792969 158.59375 66.414062 160.929688 66.191406 163.417969 C 65.796875 163.738281 65.433594 164.113281 65.113281 164.550781 C 47.367188 182.6875 32.816406 203.585938 16.683594 223.113281 C 12.929688 227.710938 9.160156 232.292969 5.488281 236.964844 C 4.164062 238.792969 2.429688 240.542969 1.800781 242.75 C 0.363281 252.28125 9.246094 260.542969 17.363281 263.910156 C 22.6875 266.054688 28.421875 266.949219 34.148438 266.949219 C 34.433594 266.980469 34.726562 266.996094 35.015625 266.996094 C 37.308594 266.996094 39.636719 265.988281 40.109375 263.65625 C 40.25 263.496094 40.402344 263.347656 40.523438 263.164062 C 43.601562 258.496094 46.699219 253.828125 49.730469 249.132812 C 53.28125 243.625 56.734375 238.09375 60.421875 232.6875 C 69.808594 219.453125 80.660156 207.101562 90.542969 194.203125 C 92.945312 191.277344 95.355469 188.367188 97.757812 185.445312 C 99.035156 184.265625 99.363281 182.25 98.609375 180.71875 C 98.605469 180.683594 98.613281 180.652344 98.609375 180.621094 C 98.269531 179.667969 97.734375 178.695312 97.074219 177.71875 C 97.316406 177.417969 97.566406 177.136719 97.820312 176.894531 C 101.3125 172.832031 105.488281 167.765625 110.550781 165.148438 C 111.488281 164.550781 112.800781 164.300781 113.714844 163.519531 C 119.882812 166.046875 126.339844 167.804688 133.105469 168.382812 C 136.082031 168.910156 139.066406 169.144531 142.042969 169.144531 C 152.242188 169.144531 162.371094 166.386719 172.015625 163.164062 C 188.414062 158.382812 202.40625 147.964844 212.792969 134.523438 C 223.378906 122.464844 227.539062 109.617188 226.523438 93.523438 Z M 67.917969 209.335938 C 58.351562 220.617188 50.523438 232.175781 42.589844 244.902344 C 39.617188 249.511719 36.585938 254.085938 33.570312 258.664062 C 23.949219 258.523438 12.5625 255.125 9.8125 245.046875 C 22.355469 228.894531 35.535156 213.222656 47.933594 196.960938 C 54.511719 188.960938 61.007812 180.875 68.136719 173.351562 C 69.238281 171.738281 71.175781 170.589844 72.429688 169.074219 C 72.476562 169.097656 72.527344 169.117188 72.574219 169.140625 C 78.894531 172.476562 85.011719 176.539062 89.894531 181.917969 C 89.222656 182.789062 88.554688 183.671875 87.816406 184.46875 C 80.957031 192.574219 74.710938 201.179688 67.914062 209.335938 Z M 92.988281 169.765625 C 92.609375 170.335938 92.054688 171.007812 91.449219 171.714844 C 88.363281 169.070312 84.714844 166.574219 81.191406 164.488281 C 81.214844 164.453125 81.234375 164.417969 81.257812 164.386719 C 84.269531 159.726562 87.058594 154.683594 88.445312 149.285156 C 88.746094 149.472656 89.050781 149.652344 89.347656 149.839844 C 89.398438 149.726562 89.433594 149.609375 89.480469 149.492188 C 90.375 150.152344 91.285156 150.792969 92.226562 151.414062 C 93.074219 152.011719 93.921875 152.59375 94.785156 153.171875 C 97.472656 154.976562 100.226562 156.695312 103.046875 158.292969 C 102.765625 158.640625 102.476562 158.984375 102.203125 159.332031 C 102.449219 159.566406 102.699219 159.800781 102.949219 160.035156 C 99.089844 162.9375 95.578125 166.925781 92.988281 169.765625 Z M 212.609375 120.71875 C 203.453125 134.480469 191.449219 147.1875 175.660156 153.042969 C 164.808594 157.125 153.476562 160.714844 141.789062 160.867188 C 130.203125 160.324219 118.523438 157.863281 108.5 151.816406 C 93.585938 143.640625 79.574219 132.140625 73.929688 115.570312 C 65.667969 94.230469 67.953125 65.832031 82.074219 47.417969 C 98.292969 26.484375 122.984375 13.417969 147.078125 13.417969 C 159.046875 13.417969 170.871094 16.644531 181.425781 23.734375 C 187.007812 27.484375 192.238281 32.3125 196.953125 38.316406 C 197.0625 39.03125 197.375 39.714844 197.886719 40.28125 C 201.722656 44.710938 204.863281 48.710938 208.023438 53.925781 C 211.148438 59.582031 213.316406 65.699219 215.023438 71.917969 C 218.515625 87.652344 221.390625 106.144531 212.605469 120.722656 Z M 194.847656 53.359375 C 187.574219 43.796875 177.902344 34.921875 166.195312 31.203125 C 147.367188 24.625 131.183594 23.785156 113.175781 33.496094 C 76.675781 51.417969 70.164062 90.640625 93.125 122.703125 C 97.679688 129.066406 101.996094 135.914062 108.488281 140.519531 C 109.03125 140.902344 109.589844 141.285156 110.144531 141.660156 C 113.027344 143.597656 116.046875 145.359375 119.171875 146.863281 C 120.226562 147.316406 127.160156 149.464844 139.675781 149.855469 C 157.753906 149.855469 175.535156 141.113281 188.152344 128.011719 C 200.816406 116.492188 207.042969 99.09375 205.132812 82.132812 C 203.789062 72.007812 200.957031 61.695312 194.847656 53.363281 Z M 192.070312 109.886719 C 182.890625 124.570312 168.195312 135.839844 151.429688 140.355469 C 143.21875 142.300781 134.519531 141.769531 126.425781 139.546875 C 124.8125 139.371094 118.847656 137.320312 118.386719 137.054688 C 107.714844 131.410156 101.628906 120.578125 95.367188 110.660156 C 79.019531 80.527344 90.597656 51.695312 121.710938 38.5625 C 136.914062 31.726562 151.503906 34.480469 166.535156 40.148438 C 168.960938 41.179688 171.253906 42.449219 173.429688 43.90625 C 179.242188 47.808594 184.183594 53.054688 188.40625 58.570312 C 194.160156 66.976562 196.777344 77.414062 197.152344 87.515625 C 197.132812 95.179688 195.386719 102.980469 192.066406 109.886719 Z M 118.445312 137.078125 C 118.421875 137.074219 118.40625 137.058594 118.386719 137.054688 C 118.242188 136.96875 118.09375 136.882812 117.949219 136.800781 Z M 186.832031 74.804688 C 188.03125 76.667969 186.886719 79.097656 184.902344 79.097656 C 184.566406 79.097656 184.203125 79.027344 183.828125 78.875 C 182.132812 78.007812 182.046875 75.65625 180.828125 74.269531 C 174.484375 64.074219 165.980469 54.910156 154.707031 50.347656 C 153.460938 49.816406 152.917969 48.269531 153.46875 47.058594 C 154.039062 45.800781 155.515625 45.28125 156.757812 45.8125 C 161.539062 48.066406 166.332031 50.59375 170.410156 53.988281 C 176.828125 60.101562 182.710938 66.921875 186.832031 74.808594 Z M 143.332031 46.863281 C 143.28125 48.253906 142.109375 49.257812 140.753906 49.257812 C 139.398438 49.257812 138.3125 47.996094 138.359375 46.679688 C 138.410156 45.285156 139.582031 44.28125 140.9375 44.28125 C 142.292969 44.28125 143.378906 45.546875 143.332031 46.863281 Z M 143.332031 46.863281 " fill-opacity="1" fill-rule="nonzero"/></g><g fill="#4b2699" fill-opacity="1"><g transform="translate(111.269189, 160.799833)"><g><path d="M 1.03125 -1.25 C 1.03125 -1.75 1.160156 -2.125 1.421875 -2.375 C 1.679688 -2.625 2.066406 -2.75 2.578125 -2.75 C 3.054688 -2.75 3.425781 -2.617188 3.6875 -2.359375 C 3.957031 -2.097656 4.09375 -1.726562 4.09375 -1.25 C 4.09375 -0.789062 3.957031 -0.425781 3.6875 -0.15625 C 3.425781 0.101562 3.054688 0.234375 2.578125 0.234375 C 2.078125 0.234375 1.691406 0.101562 1.421875 -0.15625 C 1.160156 -0.414062 1.03125 -0.78125 1.03125 -1.25 Z M 1.03125 -1.25 "/></g></g></g></svg>