<svg xmlns="http://www.w3.org/2000/svg" xmlns:xlink="http://www.w3.org/1999/xlink" width="1474" zoomAndPan="magnify" viewBox="0 0 355.5 174.749997" height="433" preserveAspectRatio="xMidYMid meet" version="1.0"><defs><filter x="0%" y="0%" width="100%" height="100%" id="ba7f9023ec"><feColorMatrix values="0 0 0 0 1 0 0 0 0 1 0 0 0 0 1 0 0 0 1 0" color-interpolation-filters="sRGB"/></filter><clipPath id="31bef0eb26"><path d="M 209 2 L 343 2 L 343 174.5 L 209 174.5 Z M 209 2 " clip-rule="nonzero"/></clipPath><mask id="e0ca6ab8c9"><g filter="url(#ba7f9023ec)"><rect x="-35.55" width="426.6" fill="#000000" y="-17.475" height="209.699996" fill-opacity="0.5"/></g></mask><clipPath id="1488761928"><path d="M 2.078125 0.15625 L 133.714844 0.15625 L 133.714844 172.5 L 2.078125 172.5 Z M 2.078125 0.15625 " clip-rule="nonzero"/></clipPath><clipPath id="3d7aec06a3"><rect x="0" width="134" y="0" height="173"/></clipPath><clipPath id="cd4ba2463c"><path d="M 0.00390625 35 L 79 35 L 79 139 L 0.00390625 139 Z M 0.00390625 35 " clip-rule="nonzero"/></clipPath><mask id="744f279fcd"><g filter="url(#ba7f9023ec)"><rect x="-35.55" width="426.6" fill="#000000" y="-17.475" height="209.699996" fill-opacity="0.5"/></g></mask><clipPath id="4acb710799"><path d="M 16 3 L 78.851562 3 L 78.851562 85 L 16 85 Z M 16 3 " clip-rule="nonzero"/></clipPath><clipPath id="f5c4e598d1"><path d="M 74.378906 103.878906 L 0.308594 100.582031 L 4.773438 0.324219 L 78.84375 3.625 Z M 74.378906 103.878906 " clip-rule="nonzero"/></clipPath><clipPath id="8c47eadab2"><path d="M 74.378906 103.878906 L 0.308594 100.582031 L 4.773438 0.324219 L 78.84375 3.625 Z M 74.378906 103.878906 " clip-rule="nonzero"/></clipPath><clipPath id="067bfc3590"><path d="M 3 7 L 71 7 L 71 102 L 3 102 Z M 3 7 " clip-rule="nonzero"/></clipPath><clipPath id="3f6bb2b094"><path d="M 74.378906 103.878906 L 0.308594 100.582031 L 4.773438 0.324219 L 78.84375 3.625 Z M 74.378906 103.878906 " clip-rule="nonzero"/></clipPath><clipPath id="a2f596e613"><path d="M 74.378906 103.878906 L 0.308594 100.582031 L 4.773438 0.324219 L 78.84375 3.625 Z M 74.378906 103.878906 " clip-rule="nonzero"/></clipPath><clipPath id="ca0bdf2e87"><path d="M 52 12 L 58 12 L 58 19 L 52 19 Z M 52 12 " clip-rule="nonzero"/></clipPath><clipPath id="5bb8df5a3e"><path d="M 74.378906 103.878906 L 0.308594 100.582031 L 4.773438 0.324219 L 78.84375 3.625 Z M 74.378906 103.878906 " clip-rule="nonzero"/></clipPath><clipPath id="0fa2484628"><path d="M 74.378906 103.878906 L 0.308594 100.582031 L 4.773438 0.324219 L 78.84375 3.625 Z M 74.378906 103.878906 " clip-rule="nonzero"/></clipPath><clipPath id="25b7d3849e"><path d="M 0.00390625 77 L 7 77 L 7 85 L 0.00390625 85 Z M 0.00390625 77 " clip-rule="nonzero"/></clipPath><clipPath id="9c3bcf1397"><path d="M 74.378906 103.878906 L 0.308594 100.582031 L 4.773438 0.324219 L 78.84375 3.625 Z M 74.378906 103.878906 " clip-rule="nonzero"/></clipPath><clipPath id="ba4d0e961b"><path d="M 74.378906 103.878906 L 0.308594 100.582031 L 4.773438 0.324219 L 78.84375 3.625 Z M 74.378906 103.878906 " clip-rule="nonzero"/></clipPath><clipPath id="e837286200"><rect x="0" width="79" y="0" height="104"/></clipPath></defs><g clip-path="url(#31bef0eb26)"><g mask="url(#e0ca6ab8c9)"><g transform="matrix(1, 0, 0, 1, 209, 2)"><g clip-path="url(#3d7aec06a3)"><g clip-path="url(#1488761928)"><path fill="#f7f7f2" d="M 124.59375 10.457031 C 114.925781 0.519531 98.402344 -1.902344 78.070312 3.652344 C 77.792969 3.722656 77.636719 4.011719 77.710938 4.277344 C 77.78125 4.554688 78.070312 4.707031 78.335938 4.636719 C 98.300781 -0.8125 114.464844 1.507812 123.855469 11.164062 C 144.730469 32.625 126.820312 84.027344 83.929688 125.738281 C 73.839844 135.550781 63.074219 144.109375 52.214844 151.121094 C 59.890625 145.742188 67.445312 139.492188 74.601562 132.53125 C 92.765625 114.867188 106.386719 94.691406 112.957031 75.722656 C 117.675781 62.101562 118.332031 50.269531 115.070312 41.246094 C 116.023438 40.550781 116.648438 39.429688 116.648438 38.15625 C 116.648438 36.042969 114.9375 34.328125 112.820312 34.328125 C 112.378906 34.328125 111.949219 34.421875 111.558594 34.566406 C 110.851562 33.589844 110.101562 32.65625 109.261719 31.792969 C 100.855469 23.152344 86.507812 21.046875 68.832031 25.871094 C 68.554688 25.945312 68.402344 26.230469 68.472656 26.5 C 68.542969 26.773438 68.832031 26.929688 69.097656 26.855469 C 86.382812 22.136719 100.394531 24.136719 108.523438 32.503906 C 109.292969 33.292969 109.980469 34.144531 110.625 35.027344 C 109.640625 35.714844 108.992188 36.863281 108.992188 38.15625 C 108.992188 40.273438 110.707031 41.984375 112.820312 41.984375 C 113.292969 41.984375 113.734375 41.894531 114.15625 41.730469 C 117.285156 50.515625 116.597656 62.0625 111.992188 75.382812 C 105.472656 94.199219 91.945312 114.230469 73.890625 131.792969 C 65.117188 140.332031 55.746094 147.785156 46.28125 153.871094 C 45.605469 153.273438 44.734375 152.90625 43.769531 152.90625 C 41.652344 152.90625 39.941406 154.621094 39.941406 156.734375 C 39.941406 157.0625 39.992188 157.371094 40.0625 157.667969 C 33.6875 161.351562 27.324219 164.390625 21.125 166.699219 C 14.722656 168.949219 8.492188 170.519531 2.558594 171.296875 C 2.28125 171.339844 2.078125 171.597656 2.117188 171.871094 C 2.148438 172.128906 2.375 172.3125 2.632812 172.3125 C 2.652344 172.3125 2.671875 172.3125 2.703125 172.3125 C 2.855469 172.292969 3.011719 172.261719 3.164062 172.242188 C 3.238281 172.285156 3.320312 172.3125 3.410156 172.3125 C 3.429688 172.3125 3.453125 172.3125 3.484375 172.3125 C 9.199219 171.554688 15.246094 169.972656 21.453125 167.664062 C 27.765625 165.449219 34.242188 162.5625 40.761719 159.0625 C 41.457031 159.96875 42.546875 160.550781 43.769531 160.550781 C 45.882812 160.550781 47.597656 158.839844 47.597656 156.722656 C 47.597656 156.230469 47.492188 155.769531 47.328125 155.339844 C 60.085938 147.742188 72.835938 137.953125 84.648438 126.457031 C 127.949219 84.375 145.871094 32.316406 124.59375 10.457031 Z M 124.59375 10.457031 " fill-opacity="1" fill-rule="nonzero"/></g><path fill="#f7f7f2" d="M 53.714844 98.898438 C 57.449219 98.898438 60.496094 95.859375 60.496094 92.113281 C 60.496094 88.378906 57.460938 85.328125 53.714844 85.328125 C 49.96875 85.328125 46.929688 88.367188 46.929688 92.113281 C 46.9375 95.859375 49.976562 98.898438 53.714844 98.898438 Z M 53.714844 86.367188 C 56.886719 86.367188 59.472656 88.941406 59.472656 92.125 C 59.472656 95.296875 56.894531 97.882812 53.714844 97.882812 C 50.53125 97.882812 47.957031 95.304688 47.957031 92.125 C 47.964844 88.941406 50.542969 86.367188 53.714844 86.367188 Z M 53.714844 86.367188 " fill-opacity="1" fill-rule="nonzero"/></g></g></g></g><g clip-path="url(#cd4ba2463c)"><g mask="url(#744f279fcd)"><g transform="matrix(1, 0, 0, 1, 0, 35)"><g clip-path="url(#e837286200)"><g clip-path="url(#4acb710799)"><g clip-path="url(#f5c4e598d1)"><g clip-path="url(#8c47eadab2)"><path fill="#f7f7f2" d="M 37.066406 84.773438 C 28.917969 84.808594 22.488281 81.136719 18.953125 73.285156 C 15.164062 64.871094 16.207031 55.988281 20.324219 46.910156 C 23.4375 40.050781 27.699219 34.03125 35.824219 26.9375 C 37.992188 25.042969 40.1875 23.597656 41.96875 22.421875 C 42.503906 22.066406 43.003906 21.738281 43.453125 21.429688 C 50.164062 16.820312 60.199219 10.875 77.761719 3.867188 C 78.113281 3.726562 78.511719 3.894531 78.652344 4.25 C 78.792969 4.601562 78.621094 5 78.269531 5.140625 C 60.796875 12.113281 50.855469 18.011719 44.230469 22.5625 C 43.769531 22.878906 43.257812 23.214844 42.726562 23.566406 C 40.9375 24.746094 38.816406 26.144531 36.726562 27.972656 C 28.734375 34.949219 24.597656 40.8125 21.574219 47.480469 C 17.558594 56.328125 16.628906 64.78125 20.203125 72.71875 C 23.5 80.042969 29.414062 83.433594 37.058594 83.402344 C 37.4375 83.398438 37.746094 83.707031 37.75 84.085938 C 37.75 84.464844 37.445312 84.773438 37.066406 84.773438 Z M 37.066406 84.773438 " fill-opacity="1" fill-rule="nonzero"/></g></g></g><g clip-path="url(#067bfc3590)"><g clip-path="url(#3f6bb2b094)"><g clip-path="url(#a2f596e613)"><path fill="#f7f7f2" d="M 69.613281 8.871094 C 49.75 18.183594 32.644531 28.882812 22.085938 40.761719 C 16.832031 46.671875 12.394531 53.09375 9.210938 59.582031 C 3.90625 70.402344 3.75 79.382812 5.8125 85.890625 C 8.1875 93.382812 15.429688 98.101562 23.917969 100.179688 C 24.285156 100.269531 24.511719 100.640625 24.421875 101.007812 C 24.332031 101.375 23.960938 101.601562 23.59375 101.511719 C 14.882812 99.378906 7.085938 94.449219 4.503906 86.304688 C 2.320312 79.414062 2.539062 70.070312 7.980469 58.976562 C 11.222656 52.363281 15.734375 45.839844 21.058594 39.851562 C 31.804688 27.761719 49.113281 16.96875 69.03125 7.628906 C 69.375 7.46875 69.785156 7.613281 69.945312 7.957031 C 70.105469 8.300781 69.957031 8.710938 69.613281 8.871094 Z M 69.613281 8.871094 " fill-opacity="1" fill-rule="nonzero"/></g></g></g><g clip-path="url(#ca0bdf2e87)"><g clip-path="url(#5bb8df5a3e)"><g clip-path="url(#0fa2484628)"><path fill="#f7f7f2" d="M 52.480469 15.40625 L 52.519531 15.003906 C 52.65625 14.199219 52.984375 13.5625 53.503906 13.097656 C 54.023438 12.636719 54.621094 12.464844 55.292969 12.585938 C 55.929688 12.742188 56.429688 13.140625 56.789062 13.78125 C 56.90625 13.988281 56.996094 14.214844 57.066406 14.453125 L 57.152344 14.824219 C 57.195312 15.078125 57.210938 15.34375 57.199219 15.617188 C 57.148438 16.457031 56.886719 17.144531 56.417969 17.683594 C 55.949219 18.222656 55.378906 18.488281 54.707031 18.480469 C 54.039062 18.425781 53.496094 18.113281 53.078125 17.535156 C 52.660156 16.957031 52.460938 16.246094 52.480469 15.40625 " fill-opacity="1" fill-rule="nonzero"/></g></g></g><g clip-path="url(#25b7d3849e)"><g clip-path="url(#9c3bcf1397)"><g clip-path="url(#ba4d0e961b)"><path fill="#f7f7f2" d="M 0.871094 81.214844 L 0.917969 80.761719 C 1.082031 79.847656 1.484375 79.128906 2.121094 78.605469 C 2.761719 78.082031 3.496094 77.890625 4.324219 78.035156 C 5.113281 78.214844 5.730469 78.667969 6.175781 79.394531 C 6.320312 79.628906 6.433594 79.882812 6.523438 80.15625 L 6.628906 80.578125 C 6.683594 80.867188 6.707031 81.164062 6.691406 81.476562 C 6.628906 82.425781 6.308594 83.207031 5.734375 83.816406 C 5.15625 84.421875 4.457031 84.71875 3.632812 84.707031 C 2.808594 84.648438 2.136719 84.289062 1.617188 83.632812 C 1.097656 82.976562 0.847656 82.167969 0.871094 81.214844 " fill-opacity="1" fill-rule="nonzero"/></g></g></g></g></g></g></g></svg>