<svg xmlns="http://www.w3.org/2000/svg" xmlns:xlink="http://www.w3.org/1999/xlink" width="308" zoomAndPan="magnify" viewBox="0 0 230.87999 231" height="308" preserveAspectRatio="xMidYMid meet" version="1.0"><defs><g/><clipPath id="2c8475d11c"><path d="M 0.441406 0.0585938 L 230.570312 0.0585938 L 230.570312 230 L 0.441406 230 Z M 0.441406 0.0585938 " clip-rule="nonzero"/></clipPath><clipPath id="97641eca5c"><path d="M 0.441406 0.0585938 L 117 0.0585938 L 117 230 L 0.441406 230 Z M 0.441406 0.0585938 " clip-rule="nonzero"/></clipPath></defs><g clip-path="url(#2c8475d11c)"><path fill="#ffc44d" d="M 9.007812 -0.476562 C 6.703125 -0.476562 4.511719 0.515625 2.988281 2.242188 C 1.460938 3.96875 0.75 6.265625 1.039062 8.554688 L 22.457031 179.917969 C 22.792969 182.582031 24.433594 184.90625 26.835938 186.105469 L 112.519531 228.945312 C 114.78125 230.078125 117.441406 230.078125 119.703125 228.945312 L 205.386719 186.105469 C 207.789062 184.90625 209.429688 182.582031 209.765625 179.917969 L 231.183594 8.554688 C 231.46875 6.265625 230.761719 3.96875 229.234375 2.242188 C 227.710938 0.515625 225.515625 -0.476562 223.214844 -0.476562 Z M 9.007812 -0.476562 " fill-opacity="1" fill-rule="nonzero"/></g><g clip-path="url(#97641eca5c)"><path fill="#e5b045" d="M 116.109375 -0.476562 L 116.109375 229.796875 C 114.878906 229.796875 113.648438 229.511719 112.519531 228.945312 L 26.835938 186.105469 C 24.433594 184.90625 22.792969 182.582031 22.457031 179.917969 L 1.039062 8.554688 C 0.75 6.265625 1.460938 3.96875 2.988281 2.242188 C 4.511719 0.515625 6.703125 -0.476562 9.007812 -0.476562 Z M 116.109375 -0.476562 " fill-opacity="1" fill-rule="evenodd"/></g><path fill="#eeeeee" d="M 100.046875 31.65625 C 104.484375 31.65625 108.078125 35.25 108.078125 39.6875 L 108.078125 178.921875 C 108.078125 181.785156 106.554688 184.433594 104.078125 185.871094 C 101.601562 187.308594 98.546875 187.316406 96.0625 185.894531 L 58.574219 164.476562 C 54.722656 162.273438 53.386719 157.367188 55.585938 153.515625 C 57.789062 149.664062 62.695312 148.324219 66.546875 150.527344 L 92.011719 165.078125 L 92.011719 39.6875 C 92.011719 35.25 95.609375 31.65625 100.046875 31.65625 Z M 100.046875 31.65625 " fill-opacity="1" fill-rule="evenodd"/><path fill="#ffffff" d="M 124.144531 39.6875 C 124.144531 35.25 127.742188 31.65625 132.179688 31.65625 L 185.730469 31.65625 C 190.167969 31.65625 193.761719 35.25 193.761719 39.6875 C 193.761719 44.125 190.167969 47.722656 185.730469 47.722656 L 140.210938 47.722656 L 140.210938 99.289062 L 178.632812 90.753906 C 181.136719 90.195312 183.753906 90.871094 185.679688 92.5625 C 187.605469 94.257812 188.605469 96.765625 188.375 99.320312 L 183.019531 158.226562 C 182.765625 161 181.101562 163.441406 178.613281 164.683594 L 135.769531 186.105469 C 131.800781 188.089844 126.976562 186.480469 124.992188 182.515625 C 123.007812 178.546875 124.617188 173.71875 128.585938 171.738281 L 167.425781 152.316406 L 171.378906 108.820312 L 133.921875 117.144531 C 131.542969 117.675781 129.050781 117.09375 127.152344 115.570312 C 125.25 114.046875 124.144531 111.742188 124.144531 109.304688 Z M 124.144531 39.6875 " fill-opacity="1" fill-rule="evenodd"/><g fill="#ffffff" fill-opacity="1"><g transform="translate(134.929859, 112.651486)"><g><path d="M 0.890625 -0.625 C 0.890625 -0.882812 0.945312 -1.082031 1.0625 -1.21875 C 1.1875 -1.351562 1.359375 -1.421875 1.578125 -1.421875 C 1.804688 -1.421875 1.984375 -1.351562 2.109375 -1.21875 C 2.234375 -1.082031 2.296875 -0.882812 2.296875 -0.625 C 2.296875 -0.363281 2.234375 -0.164062 2.109375 -0.03125 C 1.984375 0.101562 1.804688 0.171875 1.578125 0.171875 C 1.378906 0.171875 1.210938 0.109375 1.078125 -0.015625 C 0.953125 -0.140625 0.890625 -0.34375 0.890625 -0.625 Z M 0.890625 -0.625 "/></g></g></g></svg>