<svg xmlns="http://www.w3.org/2000/svg" xmlns:xlink="http://www.w3.org/1999/xlink" width="3473" zoomAndPan="magnify" viewBox="0 0 2604.75 4023.74988" height="5365" preserveAspectRatio="xMidYMid meet" version="1.0"><defs><g/><clipPath id="d4129c6ec4"><path d="M 105.738281 0.585938 L 2481 0.585938 L 2481 4023.394531 L 105.738281 4023.394531 Z M 105.738281 0.585938 " clip-rule="nonzero"/></clipPath><clipPath id="b05e6ddba1"><path d="M 523.726562 1240.242188 L 2067.222656 1240.242188 L 2067.222656 2783.738281 L 523.726562 2783.738281 Z M 523.726562 1240.242188 " clip-rule="nonzero"/></clipPath><clipPath id="4a0c94b16a"><path d="M 1295.476562 1240.242188 C 869.25 1240.242188 523.726562 1585.765625 523.726562 2011.992188 C 523.726562 2438.214844 869.25 2783.738281 1295.476562 2783.738281 C 1721.699219 2783.738281 2067.222656 2438.214844 2067.222656 2011.992188 C 2067.222656 1585.765625 1721.699219 1240.242188 1295.476562 1240.242188 Z M 1295.476562 1240.242188 " clip-rule="nonzero"/></clipPath><clipPath id="ec7d879097"><path d="M 689.425781 1399.234375 L 1901.308594 1399.234375 L 1901.308594 2611.117188 L 689.425781 2611.117188 Z M 689.425781 1399.234375 " clip-rule="nonzero"/></clipPath><clipPath id="f107469704"><path d="M 1295.472656 1399.234375 C 960.761719 1399.234375 689.425781 1670.570312 689.425781 2005.28125 C 689.425781 2339.992188 960.761719 2611.328125 1295.472656 2611.328125 C 1630.183594 2611.328125 1901.519531 2339.992188 1901.519531 2005.28125 C 1901.519531 1670.570312 1630.183594 1399.234375 1295.472656 1399.234375 Z M 1295.472656 1399.234375 " clip-rule="nonzero"/></clipPath><clipPath id="3c40a27bc9"><path d="M 672.226562 1683.519531 L 1901.523438 1683.519531 L 1901.523438 2340.460938 L 672.226562 2340.460938 Z M 672.226562 1683.519531 " clip-rule="nonzero"/></clipPath></defs><g clip-path="url(#d4129c6ec4)"><path fill="#940000" d="M 105.738281 0.585938 L 2480.039062 0.585938 L 2480.039062 4023.394531 L 105.738281 4023.394531 Z M 105.738281 0.585938 " fill-opacity="1" fill-rule="nonzero"/></g><g clip-path="url(#b05e6ddba1)"><g clip-path="url(#4a0c94b16a)"><path fill="#ffffff" d="M 523.726562 1240.242188 L 2067.222656 1240.242188 L 2067.222656 2783.738281 L 523.726562 2783.738281 Z M 523.726562 1240.242188 " fill-opacity="1" fill-rule="nonzero"/></g></g><g clip-path="url(#ec7d879097)"><g clip-path="url(#f107469704)"><path stroke-linecap="butt" transform="matrix(0.749928, 0, 0, 0.749928, 689.426849, 1399.234218)" fill="none" stroke-linejoin="miter" d="M 808.138666 0.000209308 C 361.814564 0.000209308 -0.00142396 361.816198 -0.00142396 808.1403 C -0.00142396 1254.464402 361.814564 1616.28039 808.138666 1616.28039 C 1254.462768 1616.28039 1616.278757 1254.464402 1616.278757 808.1403 C 1616.278757 361.816198 1254.462768 0.000209308 808.138666 0.000209308 Z M 808.138666 0.000209308 " stroke="#940000" stroke-width="64" stroke-opacity="1" stroke-miterlimit="4"/></g></g><g clip-path="url(#3c40a27bc9)"><path fill="#ffffff" d="M 672.226562 1683.519531 L 1901.425781 1683.519531 L 1901.425781 2340.460938 L 672.226562 2340.460938 Z M 672.226562 1683.519531 " fill-opacity="1" fill-rule="nonzero"/></g><g fill="#940000" fill-opacity="0.4"><g transform="translate(658.812376, 2009.621167)"><g><path d="M 22.828125 -215.0625 L 55.890625 -215.0625 L 55.890625 -29.265625 L 117.625 -29.265625 L 117.625 0 L 22.828125 0 Z M 22.828125 -215.0625 "/></g></g></g><g fill="#940000" fill-opacity="0.4"><g transform="translate(785.20312, 2009.621167)"><g><path d="M 101.53125 -215.34375 L 205.109375 0 L 167.359375 0 L 148.9375 -42.140625 L 50.328125 -42.140625 L 31.890625 0 L -4.6875 0 L 98.3125 -215.34375 Z M 86.90625 -123.765625 L 63.5 -71.6875 L 136.0625 -71.6875 L 112.9375 -123.46875 L 100.359375 -153.03125 L 99.78125 -153.03125 Z M 86.90625 -123.765625 "/></g></g></g><g fill="#940000" fill-opacity="0.4"><g transform="translate(985.614303, 2009.621167)"><g/></g></g><g fill="#940000" fill-opacity="0.4"><g transform="translate(1057.29419, 2009.621167)"><g><path d="M 22.828125 -215.0625 L 70.21875 -215.0625 C 96.945312 -215.0625 116.503906 -209.351562 128.890625 -197.9375 C 141.273438 -186.53125 147.46875 -170.878906 147.46875 -150.984375 C 147.46875 -127.960938 140.738281 -110.304688 127.28125 -98.015625 C 113.820312 -85.722656 93.828125 -79.578125 67.296875 -79.578125 L 55.890625 -79.578125 L 55.890625 0 L 22.828125 0 Z M 68.171875 -108.546875 C 85.335938 -108.546875 97.332031 -112.347656 104.15625 -119.953125 C 110.988281 -127.566406 114.40625 -136.738281 114.40625 -147.46875 C 114.40625 -158.976562 111.085938 -168.335938 104.453125 -175.546875 C 97.816406 -182.765625 86.695312 -186.375 71.09375 -186.375 L 55.890625 -186.375 L 55.890625 -108.546875 Z M 68.171875 -108.546875 "/></g></g></g><g fill="#940000" fill-opacity="0.4"><g transform="translate(1212.356848, 2009.621167)"><g><path d="M 101.53125 -215.34375 L 205.109375 0 L 167.359375 0 L 148.9375 -42.140625 L 50.328125 -42.140625 L 31.890625 0 L -4.6875 0 L 98.3125 -215.34375 Z M 86.90625 -123.765625 L 63.5 -71.6875 L 136.0625 -71.6875 L 112.9375 -123.46875 L 100.359375 -153.03125 L 99.78125 -153.03125 Z M 86.90625 -123.765625 "/></g></g></g><g fill="#940000" fill-opacity="0.4"><g transform="translate(1412.768031, 2009.621167)"><g><path d="M 96.84375 2.921875 C 69.925781 2.921875 50.421875 -5.171875 38.328125 -21.359375 C 26.234375 -37.546875 20.1875 -61.050781 20.1875 -91.875 L 20.1875 -215.0625 L 52.953125 -215.0625 L 52.953125 -91.296875 C 52.953125 -68.472656 56.363281 -52.132812 63.1875 -42.28125 C 70.019531 -32.425781 81.238281 -27.5 96.84375 -27.5 C 112.445312 -27.5 123.613281 -32.328125 130.34375 -41.984375 C 137.070312 -51.640625 140.4375 -68.078125 140.4375 -91.296875 L 140.4375 -215.0625 L 173.515625 -215.0625 L 173.515625 -91.875 C 173.515625 -61.25 167.125 -37.789062 154.34375 -21.5 C 141.5625 -5.21875 122.394531 2.921875 96.84375 2.921875 Z M 96.84375 2.921875 "/></g></g></g><g fill="#940000" fill-opacity="0.4"><g transform="translate(1606.450066, 2009.621167)"><g><path d="M 72.265625 2.921875 C 60.566406 2.921875 48.960938 0.875 37.453125 -3.21875 C 25.941406 -7.3125 17.648438 -11.894531 12.578125 -16.96875 L 28.09375 -44.765625 C 32.1875 -41.054688 38.570312 -37.203125 47.25 -33.203125 C 55.9375 -29.210938 64.273438 -27.21875 72.265625 -27.21875 C 82.609375 -27.21875 91.046875 -29.65625 97.578125 -34.53125 C 104.109375 -39.40625 107.375 -46.132812 107.375 -54.71875 C 107.375 -61.34375 105.617188 -67.09375 102.109375 -71.96875 C 98.597656 -76.851562 94.304688 -80.90625 89.234375 -84.125 C 84.171875 -87.34375 76.957031 -91.289062 67.59375 -95.96875 C 56.46875 -101.425781 48.859375 -105.523438 44.765625 -108.265625 C 25.847656 -120.941406 16.390625 -138.492188 16.390625 -160.921875 C 16.390625 -179.453125 22.53125 -193.644531 34.8125 -203.5 C 47.101562 -213.351562 62.613281 -218.28125 81.34375 -218.28125 C 101.4375 -218.28125 118.503906 -212.523438 132.546875 -201.015625 L 117.03125 -174.390625 C 113.332031 -178.285156 108.117188 -181.644531 101.390625 -184.46875 C 94.660156 -187.300781 87.488281 -188.71875 79.875 -188.71875 C 70.125 -188.71875 62.46875 -186.523438 56.90625 -182.140625 C 51.351562 -177.753906 48.578125 -171.269531 48.578125 -162.6875 C 48.578125 -156.632812 50.332031 -151.21875 53.84375 -146.4375 C 57.351562 -141.664062 61.789062 -137.519531 67.15625 -134 C 72.519531 -130.488281 79.785156 -126.203125 88.953125 -121.140625 C 97.722656 -116.253906 104.445312 -112.394531 109.125 -109.5625 C 113.8125 -106.738281 118.203125 -103.378906 122.296875 -99.484375 C 127.960938 -94.410156 132.550781 -88.363281 136.0625 -81.34375 C 139.570312 -74.320312 141.328125 -66.613281 141.328125 -58.21875 C 141.328125 -45.15625 138.347656 -34.039062 132.390625 -24.875 C 126.441406 -15.707031 118.25 -8.78125 107.8125 -4.09375 C 97.382812 0.582031 85.535156 2.921875 72.265625 2.921875 Z M 72.265625 2.921875 "/></g></g></g><g fill="#940000" fill-opacity="0.4"><g transform="translate(1760.04993, 2009.621167)"><g><path d="M 101.53125 -215.34375 L 205.109375 0 L 167.359375 0 L 148.9375 -42.140625 L 50.328125 -42.140625 L 31.890625 0 L -4.6875 0 L 98.3125 -215.34375 Z M 86.90625 -123.765625 L 63.5 -71.6875 L 136.0625 -71.6875 L 112.9375 -123.46875 L 100.359375 -153.03125 L 99.78125 -153.03125 Z M 86.90625 -123.765625 "/></g></g></g><g fill="#940000" fill-opacity="1"><g transform="translate(644.585935, 1995.394685)"><g><path d="M 22.828125 -215.0625 L 55.890625 -215.0625 L 55.890625 -29.265625 L 117.625 -29.265625 L 117.625 0 L 22.828125 0 Z M 22.828125 -215.0625 "/></g></g></g><g fill="#940000" fill-opacity="1"><g transform="translate(770.976679, 1995.394685)"><g><path d="M 101.53125 -215.34375 L 205.109375 0 L 167.359375 0 L 148.9375 -42.140625 L 50.328125 -42.140625 L 31.890625 0 L -4.6875 0 L 98.3125 -215.34375 Z M 86.90625 -123.765625 L 63.5 -71.6875 L 136.0625 -71.6875 L 112.9375 -123.46875 L 100.359375 -153.03125 L 99.78125 -153.03125 Z M 86.90625 -123.765625 "/></g></g></g><g fill="#940000" fill-opacity="1"><g transform="translate(971.387862, 1995.394685)"><g/></g></g><g fill="#940000" fill-opacity="1"><g transform="translate(1043.067749, 1995.394685)"><g><path d="M 22.828125 -215.0625 L 70.21875 -215.0625 C 96.945312 -215.0625 116.503906 -209.351562 128.890625 -197.9375 C 141.273438 -186.53125 147.46875 -170.878906 147.46875 -150.984375 C 147.46875 -127.960938 140.738281 -110.304688 127.28125 -98.015625 C 113.820312 -85.722656 93.828125 -79.578125 67.296875 -79.578125 L 55.890625 -79.578125 L 55.890625 0 L 22.828125 0 Z M 68.171875 -108.546875 C 85.335938 -108.546875 97.332031 -112.347656 104.15625 -119.953125 C 110.988281 -127.566406 114.40625 -136.738281 114.40625 -147.46875 C 114.40625 -158.976562 111.085938 -168.335938 104.453125 -175.546875 C 97.816406 -182.765625 86.695312 -186.375 71.09375 -186.375 L 55.890625 -186.375 L 55.890625 -108.546875 Z M 68.171875 -108.546875 "/></g></g></g><g fill="#940000" fill-opacity="1"><g transform="translate(1198.130407, 1995.394685)"><g><path d="M 101.53125 -215.34375 L 205.109375 0 L 167.359375 0 L 148.9375 -42.140625 L 50.328125 -42.140625 L 31.890625 0 L -4.6875 0 L 98.3125 -215.34375 Z M 86.90625 -123.765625 L 63.5 -71.6875 L 136.0625 -71.6875 L 112.9375 -123.46875 L 100.359375 -153.03125 L 99.78125 -153.03125 Z M 86.90625 -123.765625 "/></g></g></g><g fill="#940000" fill-opacity="1"><g transform="translate(1398.54159, 1995.394685)"><g><path d="M 96.84375 2.921875 C 69.925781 2.921875 50.421875 -5.171875 38.328125 -21.359375 C 26.234375 -37.546875 20.1875 -61.050781 20.1875 -91.875 L 20.1875 -215.0625 L 52.953125 -215.0625 L 52.953125 -91.296875 C 52.953125 -68.472656 56.363281 -52.132812 63.1875 -42.28125 C 70.019531 -32.425781 81.238281 -27.5 96.84375 -27.5 C 112.445312 -27.5 123.613281 -32.328125 130.34375 -41.984375 C 137.070312 -51.640625 140.4375 -68.078125 140.4375 -91.296875 L 140.4375 -215.0625 L 173.515625 -215.0625 L 173.515625 -91.875 C 173.515625 -61.25 167.125 -37.789062 154.34375 -21.5 C 141.5625 -5.21875 122.394531 2.921875 96.84375 2.921875 Z M 96.84375 2.921875 "/></g></g></g><g fill="#940000" fill-opacity="1"><g transform="translate(1592.223625, 1995.394685)"><g><path d="M 72.265625 2.921875 C 60.566406 2.921875 48.960938 0.875 37.453125 -3.21875 C 25.941406 -7.3125 17.648438 -11.894531 12.578125 -16.96875 L 28.09375 -44.765625 C 32.1875 -41.054688 38.570312 -37.203125 47.25 -33.203125 C 55.9375 -29.210938 64.273438 -27.21875 72.265625 -27.21875 C 82.609375 -27.21875 91.046875 -29.65625 97.578125 -34.53125 C 104.109375 -39.40625 107.375 -46.132812 107.375 -54.71875 C 107.375 -61.34375 105.617188 -67.09375 102.109375 -71.96875 C 98.597656 -76.851562 94.304688 -80.90625 89.234375 -84.125 C 84.171875 -87.34375 76.957031 -91.289062 67.59375 -95.96875 C 56.46875 -101.425781 48.859375 -105.523438 44.765625 -108.265625 C 25.847656 -120.941406 16.390625 -138.492188 16.390625 -160.921875 C 16.390625 -179.453125 22.53125 -193.644531 34.8125 -203.5 C 47.101562 -213.351562 62.613281 -218.28125 81.34375 -218.28125 C 101.4375 -218.28125 118.503906 -212.523438 132.546875 -201.015625 L 117.03125 -174.390625 C 113.332031 -178.285156 108.117188 -181.644531 101.390625 -184.46875 C 94.660156 -187.300781 87.488281 -188.71875 79.875 -188.71875 C 70.125 -188.71875 62.46875 -186.523438 56.90625 -182.140625 C 51.351562 -177.753906 48.578125 -171.269531 48.578125 -162.6875 C 48.578125 -156.632812 50.332031 -151.21875 53.84375 -146.4375 C 57.351562 -141.664062 61.789062 -137.519531 67.15625 -134 C 72.519531 -130.488281 79.785156 -126.203125 88.953125 -121.140625 C 97.722656 -116.253906 104.445312 -112.394531 109.125 -109.5625 C 113.8125 -106.738281 118.203125 -103.378906 122.296875 -99.484375 C 127.960938 -94.410156 132.550781 -88.363281 136.0625 -81.34375 C 139.570312 -74.320312 141.328125 -66.613281 141.328125 -58.21875 C 141.328125 -45.15625 138.347656 -34.039062 132.390625 -24.875 C 126.441406 -15.707031 118.25 -8.78125 107.8125 -4.09375 C 97.382812 0.582031 85.535156 2.921875 72.265625 2.921875 Z M 72.265625 2.921875 "/></g></g></g><g fill="#940000" fill-opacity="1"><g transform="translate(1745.823488, 1995.394685)"><g><path d="M 101.53125 -215.34375 L 205.109375 0 L 167.359375 0 L 148.9375 -42.140625 L 50.328125 -42.140625 L 31.890625 0 L -4.6875 0 L 98.3125 -215.34375 Z M 86.90625 -123.765625 L 63.5 -71.6875 L 136.0625 -71.6875 L 112.9375 -123.46875 L 100.359375 -153.03125 L 99.78125 -153.03125 Z M 86.90625 -123.765625 "/></g></g></g><g fill="#940000" fill-opacity="1"><g transform="translate(849.70468, 2269.86789)"><g><path d="M 73.84375 1.25 C 60.226562 1.25 48.429688 -1.796875 38.453125 -7.890625 C 28.472656 -13.984375 20.851562 -22.140625 15.59375 -32.359375 C 10.332031 -42.578125 7.703125 -53.835938 7.703125 -66.140625 C 7.703125 -79.171875 10.539062 -90.820312 16.21875 -101.09375 C 21.894531 -111.375 29.867188 -119.410156 40.140625 -125.203125 C 50.421875 -131.003906 62.078125 -133.90625 75.109375 -133.90625 C 80.960938 -133.90625 86.425781 -133.273438 91.5 -132.015625 C 96.582031 -130.765625 100.796875 -129.332031 104.140625 -127.71875 C 107.484375 -126.101562 109.695312 -124.757812 110.78125 -123.6875 L 102 -105.75 C 94.707031 -112.207031 85.207031 -115.4375 73.5 -115.4375 C 65.25 -115.4375 57.773438 -113.40625 51.078125 -109.34375 C 44.390625 -105.28125 39.132812 -99.484375 35.3125 -91.953125 C 31.488281 -84.421875 29.578125 -75.695312 29.578125 -65.78125 C 29.578125 -56.695312 31.28125 -48.453125 34.6875 -41.046875 C 38.09375 -33.640625 43.082031 -27.785156 49.65625 -23.484375 C 56.226562 -19.179688 64.054688 -17.03125 73.140625 -17.03125 C 83.648438 -17.03125 93.804688 -20.015625 103.609375 -25.984375 L 109.515625 -8.96875 C 106.890625 -6.570312 102.082031 -4.269531 95.09375 -2.0625 C 88.101562 0.144531 81.019531 1.25 73.84375 1.25 Z M 73.84375 1.25 "/></g></g></g><g fill="#940000" fill-opacity="1"><g transform="translate(966.031918, 2269.86789)"><g><path d="M 62.203125 -131.921875 L 125.65625 0 L 102.53125 0 L 91.234375 -25.8125 L 30.828125 -25.8125 L 19.53125 0 L -2.875 0 L 60.234375 -131.921875 Z M 53.234375 -75.828125 L 38.890625 -43.921875 L 83.34375 -43.921875 L 69.1875 -75.640625 L 61.484375 -93.75 L 61.125 -93.75 Z M 53.234375 -75.828125 "/></g></g></g><g fill="#940000" fill-opacity="1"><g transform="translate(1088.811785, 2269.86789)"><g><path d="M 79.765625 0 L 53.234375 -49.828125 C 47.734375 -49.585938 42.832031 -49.46875 38.53125 -49.46875 L 33.515625 -49.46875 L 33.515625 0 L 13.984375 0 L 13.984375 -131.75 L 43.921875 -131.75 C 59.097656 -131.75 71.582031 -128.609375 81.375 -122.328125 C 91.175781 -116.054688 96.078125 -105.875 96.078125 -91.78125 C 96.078125 -82.9375 94.015625 -75.316406 89.890625 -68.921875 C 85.765625 -62.523438 79.640625 -57.597656 71.515625 -54.140625 L 102.890625 0 Z M 46.25 -65.78125 C 57.957031 -65.78125 65.988281 -68.316406 70.34375 -73.390625 C 74.707031 -78.472656 76.890625 -84.539062 76.890625 -91.59375 C 76.890625 -107.25 66.4375 -115.078125 45.53125 -115.078125 L 33.515625 -115.078125 L 33.515625 -65.78125 Z M 46.25 -65.78125 "/></g></g></g><g fill="#940000" fill-opacity="1"><g transform="translate(1198.148645, 2269.86789)"><g><path d="M 13.984375 -131.75 L 45.703125 -131.75 C 72.234375 -131.75 90.785156 -125.472656 101.359375 -112.921875 C 111.941406 -100.378906 117.234375 -85.441406 117.234375 -68.109375 C 117.234375 -56.046875 114.960938 -44.90625 110.421875 -34.6875 C 105.878906 -24.46875 98.378906 -16.128906 87.921875 -9.671875 C 77.460938 -3.222656 63.75 0 46.78125 0 L 13.984375 0 Z M 48.9375 -17.75 C 65.425781 -17.75 77.40625 -22.4375 84.875 -31.8125 C 92.34375 -41.195312 96.078125 -53 96.078125 -67.21875 C 96.078125 -81.082031 92.3125 -92.375 84.78125 -101.09375 C 77.257812 -109.820312 65.3125 -114.1875 48.9375 -114.1875 L 34.0625 -114.1875 L 34.0625 -17.75 Z M 48.9375 -17.75 "/></g></g></g><g fill="#940000" fill-opacity="1"><g transform="translate(1321.466266, 2269.86789)"><g><path d="M 62.203125 -131.921875 L 125.65625 0 L 102.53125 0 L 91.234375 -25.8125 L 30.828125 -25.8125 L 19.53125 0 L -2.875 0 L 60.234375 -131.921875 Z M 53.234375 -75.828125 L 38.890625 -43.921875 L 83.34375 -43.921875 L 69.1875 -75.640625 L 61.484375 -93.75 L 61.125 -93.75 Z M 46.78125 -151.828125 L 81.921875 -178.53125 L 92.671875 -163.65625 L 54.5 -140 Z M 46.78125 -151.828125 "/></g></g></g><g fill="#940000" fill-opacity="1"><g transform="translate(1444.246133, 2269.86789)"><g><path d="M 13.984375 -131.75 L 43.015625 -131.75 C 59.390625 -131.75 71.367188 -128.253906 78.953125 -121.265625 C 86.546875 -114.273438 90.34375 -104.6875 90.34375 -92.5 C 90.34375 -78.394531 86.21875 -67.578125 77.96875 -60.046875 C 69.726562 -52.515625 57.484375 -48.75 41.234375 -48.75 L 34.234375 -48.75 L 34.234375 0 L 13.984375 0 Z M 41.765625 -66.5 C 52.285156 -66.5 59.632812 -68.828125 63.8125 -73.484375 C 68 -78.148438 70.09375 -83.769531 70.09375 -90.34375 C 70.09375 -97.394531 68.054688 -103.128906 63.984375 -107.546875 C 59.921875 -111.972656 53.113281 -114.1875 43.5625 -114.1875 L 34.234375 -114.1875 L 34.234375 -66.5 Z M 41.765625 -66.5 "/></g></g></g><g fill="#940000" fill-opacity="1"><g transform="translate(1539.243689, 2269.86789)"><g><path d="M 16.3125 -131.75 L 36.390625 -131.75 L 36.390625 0 L 16.3125 0 Z M 16.3125 -131.75 "/></g></g></g><g fill="#940000" fill-opacity="1"><g transform="translate(1591.940482, 2269.86789)"><g><path d="M 74.5625 1.796875 C 62.613281 1.796875 51.585938 -0.976562 41.484375 -6.53125 C 31.390625 -12.09375 23.351562 -20.007812 17.375 -30.28125 C 11.40625 -40.5625 8.421875 -52.515625 8.421875 -66.140625 C 8.421875 -79.878906 11.40625 -91.859375 17.375 -102.078125 C 23.351562 -112.296875 31.390625 -120.15625 41.484375 -125.65625 C 51.585938 -131.15625 62.613281 -133.90625 74.5625 -133.90625 C 86.519531 -133.90625 97.546875 -131.15625 107.640625 -125.65625 C 117.734375 -120.15625 125.769531 -112.296875 131.75 -102.078125 C 137.726562 -91.859375 140.71875 -79.878906 140.71875 -66.140625 C 140.71875 -52.515625 137.726562 -40.5625 131.75 -30.28125 C 125.769531 -20.007812 117.734375 -12.09375 107.640625 -6.53125 C 97.546875 -0.976562 86.519531 1.796875 74.5625 1.796875 Z M 74.5625 -16.3125 C 82.8125 -16.3125 90.34375 -18.253906 97.15625 -22.140625 C 103.96875 -26.023438 109.375 -31.703125 113.375 -39.171875 C 117.375 -46.640625 119.375 -55.570312 119.375 -65.96875 C 119.375 -76.476562 117.375 -85.46875 113.375 -92.9375 C 109.375 -100.40625 103.992188 -106.050781 97.234375 -109.875 C 90.484375 -113.695312 82.925781 -115.609375 74.5625 -115.609375 C 66.195312 -115.609375 58.609375 -113.695312 51.796875 -109.875 C 44.992188 -106.050781 39.617188 -100.40625 35.671875 -92.9375 C 31.722656 -85.46875 29.75 -76.476562 29.75 -65.96875 C 29.75 -55.570312 31.78125 -46.640625 35.84375 -39.171875 C 39.90625 -31.703125 45.375 -26.023438 52.25 -22.140625 C 59.125 -18.253906 66.5625 -16.3125 74.5625 -16.3125 Z M 74.5625 -16.3125 "/></g></g></g></svg>