<svg xmlns="http://www.w3.org/2000/svg" xmlns:xlink="http://www.w3.org/1999/xlink" width="291" zoomAndPan="magnify" viewBox="0 0 218.25 56.999997" height="76" preserveAspectRatio="xMidYMid meet" version="1.0"><defs><g/><clipPath id="4658e3088c"><path d="M 0.246094 5 L 28 5 L 28 52.878906 L 0.246094 52.878906 Z M 0.246094 5 " clip-rule="nonzero"/></clipPath><clipPath id="ee1d2e891a"><path d="M 0.246094 4.296875 L 28.648438 4.296875 L 28.648438 52.878906 L 0.246094 52.878906 Z M 0.246094 4.296875 " clip-rule="nonzero"/></clipPath></defs><g clip-path="url(#4658e3088c)"><path fill="#eeeeee" d="M 0.929688 43.203125 L 0.929688 5.101562 L 27.648438 31.914062 L 16.296875 34.167969 L 22.71875 49.890625 L 16.878906 52.339844 L 10.457031 36.617188 Z M 0.929688 43.203125 " fill-opacity="1" fill-rule="nonzero"/></g><path fill="#4b2699" d="M 19.597656 48.941406 C 19.464844 48.941406 19.335938 48.859375 19.28125 48.726562 L 14.523438 37.082031 C 14.453125 36.90625 14.539062 36.707031 14.710938 36.632812 C 14.886719 36.5625 15.085938 36.648438 15.15625 36.820312 L 19.914062 48.46875 C 19.988281 48.644531 19.902344 48.84375 19.726562 48.914062 C 19.6875 48.933594 19.640625 48.941406 19.597656 48.941406 Z M 14.289062 35.945312 C 14.15625 35.945312 14.027344 35.863281 13.972656 35.730469 L 13.695312 35.050781 C 13.621094 34.875 13.707031 34.675781 13.882812 34.605469 C 14.054688 34.53125 14.257812 34.617188 14.328125 34.789062 L 14.605469 35.472656 C 14.675781 35.648438 14.59375 35.847656 14.417969 35.917969 C 14.375 35.9375 14.332031 35.945312 14.289062 35.945312 Z M 13.4375 33.859375 C 13.304688 33.859375 13.175781 33.78125 13.121094 33.648438 L 12.65625 32.511719 C 12.617188 32.417969 12.625 32.308594 12.671875 32.21875 C 12.71875 32.128906 12.804688 32.066406 12.90625 32.046875 L 17.671875 31.101562 C 17.859375 31.0625 18.039062 31.183594 18.074219 31.371094 C 18.113281 31.554688 17.992188 31.738281 17.804688 31.773438 L 13.449219 32.636719 L 13.753906 33.386719 C 13.824219 33.5625 13.742188 33.761719 13.566406 33.835938 C 13.523438 33.851562 13.480469 33.859375 13.4375 33.859375 Z M 19.738281 31.382812 C 19.578125 31.382812 19.4375 31.269531 19.402344 31.105469 C 19.367188 30.921875 19.488281 30.742188 19.675781 30.703125 L 22.097656 30.226562 L 14.046875 22.144531 C 13.914062 22.011719 13.914062 21.796875 14.046875 21.660156 C 14.183594 21.53125 14.398438 21.527344 14.53125 21.664062 L 23.035156 30.195312 C 23.125 30.285156 23.15625 30.414062 23.121094 30.535156 C 23.082031 30.65625 22.980469 30.75 22.859375 30.773438 L 19.804688 31.378906 C 19.785156 31.382812 19.761719 31.382812 19.738281 31.382812 Z M 3.328125 34.5625 C 3.140625 34.5625 2.984375 34.40625 2.984375 34.21875 L 2.984375 10.90625 C 2.984375 10.765625 3.070312 10.640625 3.195312 10.589844 C 3.324219 10.535156 3.472656 10.5625 3.570312 10.664062 L 13.148438 20.273438 C 13.28125 20.40625 13.28125 20.625 13.144531 20.757812 C 13.011719 20.890625 12.792969 20.890625 12.660156 20.753906 L 3.671875 11.734375 L 3.671875 34.21875 C 3.671875 34.40625 3.515625 34.5625 3.328125 34.5625 Z M 3.328125 34.5625 " fill-opacity="1" fill-rule="nonzero"/><g clip-path="url(#ee1d2e891a)"><path fill="#4b2699" d="M 16.878906 53.023438 C 16.789062 53.023438 16.699219 53.007812 16.617188 52.972656 C 16.449219 52.902344 16.3125 52.765625 16.246094 52.597656 L 10.144531 37.664062 L 1.320312 43.765625 C 1.109375 43.910156 0.835938 43.925781 0.613281 43.808594 C 0.386719 43.691406 0.246094 43.457031 0.246094 43.203125 L 0.246094 5.101562 C 0.246094 4.824219 0.414062 4.574219 0.667969 4.46875 C 0.925781 4.359375 1.21875 4.421875 1.414062 4.617188 L 28.132812 31.429688 C 28.3125 31.609375 28.378906 31.871094 28.304688 32.113281 C 28.230469 32.351562 28.03125 32.535156 27.78125 32.585938 L 17.242188 34.679688 L 23.351562 49.632812 C 23.496094 49.980469 23.332031 50.375 22.984375 50.523438 L 17.144531 52.96875 C 17.058594 53.003906 16.96875 53.023438 16.878906 53.023438 Z M 10.457031 35.929688 C 10.523438 35.929688 10.585938 35.941406 10.652344 35.960938 C 10.851562 36.019531 11.011719 36.164062 11.089844 36.359375 L 17.253906 51.4375 L 21.828125 49.519531 L 15.664062 34.429688 C 15.585938 34.238281 15.597656 34.023438 15.691406 33.84375 C 15.789062 33.664062 15.960938 33.539062 16.164062 33.496094 L 26.261719 31.488281 L 1.613281 6.761719 L 1.613281 41.894531 L 10.066406 36.054688 C 10.183594 35.972656 10.320312 35.929688 10.457031 35.929688 Z M 10.457031 35.929688 " fill-opacity="1" fill-rule="nonzero"/></g><g fill="#4b2699" fill-opacity="1"><g transform="translate(35.351173, 39.512151)"><g><path d="M 6.765625 0.375 C 5.253906 0.375 3.863281 0.09375 2.59375 -0.46875 C 1.332031 -1.03125 0.296875 -1.832031 -0.515625 -2.875 L 2.359375 -6.3125 C 3.566406 -4.675781 4.945312 -3.859375 6.5 -3.859375 C 8.601562 -3.859375 9.65625 -5.09375 9.65625 -7.5625 L 9.65625 -18.171875 L 1.8125 -18.171875 L 1.8125 -22.328125 L 14.796875 -22.328125 L 14.796875 -7.84375 C 14.796875 -5.101562 14.113281 -3.046875 12.75 -1.671875 C 11.394531 -0.304688 9.398438 0.375 6.765625 0.375 Z M 6.765625 0.375 "/></g></g></g><g fill="#4b2699" fill-opacity="1"><g transform="translate(52.599646, 39.512151)"><g><path d="M 19.578125 -17.15625 L 19.578125 0 L 14.859375 0 L 14.859375 -2.046875 C 14.203125 -1.296875 13.414062 -0.722656 12.5 -0.328125 C 11.582031 0.0546875 10.59375 0.25 9.53125 0.25 C 7.28125 0.25 5.492188 -0.394531 4.171875 -1.6875 C 2.859375 -2.988281 2.203125 -4.914062 2.203125 -7.46875 L 2.203125 -17.15625 L 7.171875 -17.15625 L 7.171875 -8.203125 C 7.171875 -5.429688 8.332031 -4.046875 10.65625 -4.046875 C 11.84375 -4.046875 12.796875 -4.429688 13.515625 -5.203125 C 14.242188 -5.984375 14.609375 -7.140625 14.609375 -8.671875 L 14.609375 -17.15625 Z M 19.578125 -17.15625 "/></g></g></g><g fill="#4b2699" fill-opacity="1"><g transform="translate(74.502972, 39.512151)"><g><path d="M 2.296875 -23.65625 L 7.265625 -23.65625 L 7.265625 0 L 2.296875 0 Z M 2.296875 -23.65625 "/></g></g></g><g fill="#4b2699" fill-opacity="1"><g transform="translate(84.099624, 39.512151)"><g><path d="M 2.296875 -17.15625 L 7.265625 -17.15625 L 7.265625 0 L 2.296875 0 Z M 4.78125 -19.546875 C 3.863281 -19.546875 3.117188 -19.8125 2.546875 -20.34375 C 1.972656 -20.875 1.6875 -21.535156 1.6875 -22.328125 C 1.6875 -23.109375 1.972656 -23.765625 2.546875 -24.296875 C 3.117188 -24.828125 3.863281 -25.09375 4.78125 -25.09375 C 5.6875 -25.09375 6.425781 -24.835938 7 -24.328125 C 7.582031 -23.816406 7.875 -23.179688 7.875 -22.421875 C 7.875 -21.585938 7.582031 -20.898438 7 -20.359375 C 6.425781 -19.816406 5.6875 -19.546875 4.78125 -19.546875 Z M 4.78125 -19.546875 "/></g></g></g><g fill="#4b2699" fill-opacity="1"><g transform="translate(93.696277, 39.512151)"><g><path d="M 9.21875 -17.40625 C 11.875 -17.40625 13.910156 -16.773438 15.328125 -15.515625 C 16.753906 -14.253906 17.46875 -12.347656 17.46875 -9.796875 L 17.46875 0 L 12.8125 0 L 12.8125 -2.140625 C 11.882812 -0.546875 10.144531 0.25 7.59375 0.25 C 6.269531 0.25 5.125 0.03125 4.15625 -0.40625 C 3.1875 -0.851562 2.445312 -1.46875 1.9375 -2.25 C 1.4375 -3.039062 1.1875 -3.9375 1.1875 -4.9375 C 1.1875 -6.53125 1.785156 -7.785156 2.984375 -8.703125 C 4.179688 -9.617188 6.035156 -10.078125 8.546875 -10.078125 L 12.5 -10.078125 C 12.5 -11.160156 12.171875 -11.992188 11.515625 -12.578125 C 10.859375 -13.160156 9.867188 -13.453125 8.546875 -13.453125 C 7.628906 -13.453125 6.726562 -13.304688 5.84375 -13.015625 C 4.96875 -12.734375 4.222656 -12.347656 3.609375 -11.859375 L 1.8125 -15.34375 C 2.75 -16 3.867188 -16.503906 5.171875 -16.859375 C 6.484375 -17.222656 7.832031 -17.40625 9.21875 -17.40625 Z M 8.828125 -3.09375 C 9.679688 -3.09375 10.4375 -3.285156 11.09375 -3.671875 C 11.757812 -4.066406 12.226562 -4.648438 12.5 -5.421875 L 12.5 -7.171875 L 9.09375 -7.171875 C 7.050781 -7.171875 6.03125 -6.503906 6.03125 -5.171875 C 6.03125 -4.523438 6.28125 -4.015625 6.78125 -3.640625 C 7.28125 -3.273438 7.960938 -3.09375 8.828125 -3.09375 Z M 8.828125 -3.09375 "/></g></g></g><g fill="#4b2699" fill-opacity="1"><g transform="translate(113.367823, 39.512151)"><g/></g></g><g fill="#4b2699" fill-opacity="1"><g transform="translate(122.390593, 39.512151)"><g><path d="M 16.875 0 L 12.5625 -6.21875 L 7.8125 -6.21875 L 7.8125 0 L 2.640625 0 L 2.640625 -22.328125 L 12.3125 -22.328125 C 14.289062 -22.328125 16.003906 -21.992188 17.453125 -21.328125 C 18.910156 -20.671875 20.03125 -19.734375 20.8125 -18.515625 C 21.601562 -17.304688 22 -15.875 22 -14.21875 C 22 -12.5625 21.597656 -11.128906 20.796875 -9.921875 C 20.003906 -8.722656 18.875 -7.804688 17.40625 -7.171875 L 22.421875 0 Z M 16.78125 -14.21875 C 16.78125 -15.476562 16.375 -16.441406 15.5625 -17.109375 C 14.75 -17.773438 13.566406 -18.109375 12.015625 -18.109375 L 7.8125 -18.109375 L 7.8125 -10.328125 L 12.015625 -10.328125 C 13.566406 -10.328125 14.75 -10.664062 15.5625 -11.34375 C 16.375 -12.03125 16.78125 -12.988281 16.78125 -14.21875 Z M 16.78125 -14.21875 "/></g></g></g><g fill="#4b2699" fill-opacity="1"><g transform="translate(145.824285, 39.512151)"><g><path d="M 19.109375 -8.515625 C 19.109375 -8.453125 19.070312 -8.003906 19 -7.171875 L 6.03125 -7.171875 C 6.257812 -6.109375 6.8125 -5.269531 7.6875 -4.65625 C 8.5625 -4.039062 9.644531 -3.734375 10.9375 -3.734375 C 11.832031 -3.734375 12.625 -3.863281 13.3125 -4.125 C 14 -4.394531 14.644531 -4.816406 15.25 -5.390625 L 17.890625 -2.515625 C 16.273438 -0.671875 13.914062 0.25 10.8125 0.25 C 8.875 0.25 7.160156 -0.125 5.671875 -0.875 C 4.179688 -1.632812 3.03125 -2.679688 2.21875 -4.015625 C 1.414062 -5.359375 1.015625 -6.878906 1.015625 -8.578125 C 1.015625 -10.253906 1.410156 -11.765625 2.203125 -13.109375 C 3.003906 -14.460938 4.101562 -15.515625 5.5 -16.265625 C 6.894531 -17.023438 8.453125 -17.40625 10.171875 -17.40625 C 11.847656 -17.40625 13.367188 -17.046875 14.734375 -16.328125 C 16.097656 -15.609375 17.164062 -14.570312 17.9375 -13.21875 C 18.71875 -11.863281 19.109375 -10.296875 19.109375 -8.515625 Z M 10.203125 -13.65625 C 9.078125 -13.65625 8.128906 -13.332031 7.359375 -12.6875 C 6.597656 -12.050781 6.132812 -11.179688 5.96875 -10.078125 L 14.421875 -10.078125 C 14.242188 -11.160156 13.769531 -12.023438 13 -12.671875 C 12.238281 -13.328125 11.304688 -13.65625 10.203125 -13.65625 Z M 10.203125 -13.65625 "/></g></g></g><g fill="#4b2699" fill-opacity="1"><g transform="translate(165.942185, 39.512151)"><g><path d="M 2.296875 -17.15625 L 7.265625 -17.15625 L 7.265625 0 L 2.296875 0 Z M 4.78125 -19.546875 C 3.863281 -19.546875 3.117188 -19.8125 2.546875 -20.34375 C 1.972656 -20.875 1.6875 -21.535156 1.6875 -22.328125 C 1.6875 -23.109375 1.972656 -23.765625 2.546875 -24.296875 C 3.117188 -24.828125 3.863281 -25.09375 4.78125 -25.09375 C 5.6875 -25.09375 6.425781 -24.835938 7 -24.328125 C 7.582031 -23.816406 7.875 -23.179688 7.875 -22.421875 C 7.875 -21.585938 7.582031 -20.898438 7 -20.359375 C 6.425781 -19.816406 5.6875 -19.546875 4.78125 -19.546875 Z M 4.78125 -19.546875 "/></g></g></g><g fill="#4b2699" fill-opacity="1"><g transform="translate(175.538837, 39.512151)"><g><path d="M 8.0625 0.25 C 6.644531 0.25 5.253906 0.078125 3.890625 -0.265625 C 2.523438 -0.617188 1.441406 -1.0625 0.640625 -1.59375 L 2.296875 -5.171875 C 3.054688 -4.679688 3.976562 -4.28125 5.0625 -3.96875 C 6.15625 -3.664062 7.222656 -3.515625 8.265625 -3.515625 C 10.367188 -3.515625 11.421875 -4.035156 11.421875 -5.078125 C 11.421875 -5.554688 11.128906 -5.898438 10.546875 -6.109375 C 9.972656 -6.328125 9.09375 -6.515625 7.90625 -6.671875 C 6.5 -6.878906 5.335938 -7.117188 4.421875 -7.390625 C 3.515625 -7.671875 2.722656 -8.160156 2.046875 -8.859375 C 1.378906 -9.566406 1.046875 -10.566406 1.046875 -11.859375 C 1.046875 -12.941406 1.359375 -13.90625 1.984375 -14.75 C 2.617188 -15.59375 3.535156 -16.242188 4.734375 -16.703125 C 5.929688 -17.171875 7.351562 -17.40625 9 -17.40625 C 10.207031 -17.40625 11.410156 -17.269531 12.609375 -17 C 13.816406 -16.738281 14.8125 -16.375 15.59375 -15.90625 L 13.9375 -12.375 C 12.425781 -13.226562 10.78125 -13.65625 9 -13.65625 C 7.9375 -13.65625 7.132812 -13.503906 6.59375 -13.203125 C 6.0625 -12.898438 5.796875 -12.515625 5.796875 -12.046875 C 5.796875 -11.515625 6.082031 -11.144531 6.65625 -10.9375 C 7.238281 -10.726562 8.15625 -10.523438 9.40625 -10.328125 C 10.8125 -10.097656 11.957031 -9.847656 12.84375 -9.578125 C 13.738281 -9.316406 14.515625 -8.832031 15.171875 -8.125 C 15.835938 -7.425781 16.171875 -6.453125 16.171875 -5.203125 C 16.171875 -4.140625 15.847656 -3.191406 15.203125 -2.359375 C 14.566406 -1.523438 13.640625 -0.878906 12.421875 -0.421875 C 11.203125 0.0234375 9.75 0.25 8.0625 0.25 Z M 8.0625 0.25 "/></g></g></g><g fill="#4b2699" fill-opacity="1"><g transform="translate(192.468486, 39.512151)"><g><path d="M 4.171875 0.25 C 3.304688 0.25 2.570312 -0.046875 1.96875 -0.640625 C 1.375 -1.234375 1.078125 -1.976562 1.078125 -2.875 C 1.078125 -3.78125 1.375 -4.515625 1.96875 -5.078125 C 2.570312 -5.648438 3.304688 -5.9375 4.171875 -5.9375 C 5.046875 -5.9375 5.78125 -5.648438 6.375 -5.078125 C 6.96875 -4.515625 7.265625 -3.78125 7.265625 -2.875 C 7.265625 -1.976562 6.96875 -1.234375 6.375 -0.640625 C 5.78125 -0.046875 5.046875 0.25 4.171875 0.25 Z M 4.171875 0.25 "/></g></g></g></svg>