<svg xmlns="http://www.w3.org/2000/svg" xmlns:xlink="http://www.w3.org/1999/xlink" width="272" zoomAndPan="magnify" viewBox="0 0 204 233.249991" height="311" preserveAspectRatio="xMidYMid meet" version="1.0"><defs><g/><clipPath id="e7e6f4a1e8"><path d="M 0.378906 0 L 203.671875 0 L 203.671875 232.503906 L 0.378906 232.503906 Z M 0.378906 0 " clip-rule="nonzero"/></clipPath></defs><g clip-path="url(#e7e6f4a1e8)"><path fill="#8cc03e" d="M 77.117188 203.820312 C 71.175781 207.265625 70.046875 207.671875 64.464844 209.648438 C 63.113281 210.109375 61.070312 210.929688 65.234375 213.324219 L 93.203125 230.089844 C 95.871094 231.664062 98.957031 232.484375 101.996094 232.484375 L 102.015625 232.503906 C 105.089844 232.503906 108.128906 231.671875 110.800781 230.109375 L 194.523438 181.128906 C 199.960938 177.917969 203.316406 171.984375 203.316406 165.644531 L 203.316406 67.742188 C 203.316406 61.359375 199.96875 55.425781 194.523438 52.261719 L 110.800781 3.230469 C 105.542969 0.203125 98.515625 0.203125 93.210938 3.230469 L 9.585938 52.210938 C 4.15625 55.386719 0.800781 61.359375 0.800781 67.695312 L 0.800781 165.597656 C 0.800781 171.984375 4.148438 177.917969 9.585938 181.082031 L 31.523438 193.902344 C 42.132812 199.238281 45.929688 199.238281 50.78125 199.238281 C 66.507812 199.238281 75.574219 189.589844 75.574219 172.773438 L 75.574219 76.070312 C 75.574219 74.699219 74.445312 73.636719 73.125 73.636719 L 62.515625 73.636719 C 61.15625 73.636719 60.066406 74.691406 60.066406 76.070312 L 60.066406 172.726562 C 60.066406 180.214844 52.449219 187.613281 39.980469 181.324219 L 17.050781 167.902344 C 16.25 167.488281 15.746094 166.570312 15.746094 165.644531 L 15.746094 67.742188 C 15.746094 66.789062 16.25 65.863281 17.058594 65.398438 L 100.683594 16.417969 C 101.445312 15.957031 102.496094 15.957031 103.269531 16.417969 L 186.941406 65.351562 C 187.753906 65.851562 188.253906 66.730469 188.253906 67.695312 L 188.253906 165.644531 C 188.253906 166.554688 187.761719 167.480469 186.992188 167.941406 L 103.269531 216.921875 C 102.546875 217.386719 101.457031 217.386719 100.683594 216.921875 L 79.199219 204.011719 C 78.5625 203.597656 77.753906 203.453125 77.117188 203.820312 Z M 77.117188 203.820312 " fill-opacity="1" fill-rule="nonzero"/></g><path fill="#8cc03e" d="M 127.839844 150.199219 C 105.679688 150.199219 100.820312 144.546875 99.199219 133.386719 C 99.015625 132.1875 98.023438 131.320312 96.796875 131.320312 L 85.96875 131.320312 C 84.609375 131.320312 83.566406 132.421875 83.566406 133.75 C 83.566406 148.039062 91.222656 165.085938 127.886719 165.085938 C 154.347656 165.039062 169.59375 154.4375 169.59375 135.960938 L 169.566406 135.96875 C 169.566406 117.640625 157.328125 112.769531 131.628906 109.324219 C 105.613281 105.832031 102.988281 104.039062 102.988281 97.882812 C 102.988281 92.789062 105.21875 85.988281 124.472656 85.988281 C 141.660156 85.988281 148.003906 89.75 150.625 101.511719 C 150.847656 102.621094 151.851562 103.4375 152.988281 103.4375 L 163.867188 103.4375 C 164.542969 103.4375 165.179688 103.167969 165.632812 102.65625 C 166.085938 102.148438 166.304688 101.460938 166.269531 100.777344 C 164.589844 80.515625 151.3125 71.101562 124.472656 71.101562 C 100.589844 71.101562 86.355469 81.308594 86.355469 98.433594 C 86.355469 116.992188 100.539062 122.144531 123.433594 124.433594 C 150.859375 127.152344 152.980469 131.234375 152.980469 136.703125 C 153 146.167969 145.476562 150.199219 127.839844 150.199219 Z M 127.839844 150.199219 " fill-opacity="1" fill-rule="nonzero"/><g fill="#8cc03e" fill-opacity="1"><g transform="translate(69.853364, 112.288933)"><g><path d="M 0.890625 -0.625 C 0.890625 -0.882812 0.945312 -1.082031 1.0625 -1.21875 C 1.1875 -1.351562 1.359375 -1.421875 1.578125 -1.421875 C 1.804688 -1.421875 1.984375 -1.351562 2.109375 -1.21875 C 2.234375 -1.082031 2.296875 -0.882812 2.296875 -0.625 C 2.296875 -0.363281 2.226562 -0.164062 2.09375 -0.03125 C 1.96875 0.101562 1.796875 0.171875 1.578125 0.171875 C 1.378906 0.171875 1.210938 0.109375 1.078125 -0.015625 C 0.953125 -0.140625 0.890625 -0.34375 0.890625 -0.625 Z M 0.890625 -0.625 "/></g></g></g></svg>