<svg xmlns="http://www.w3.org/2000/svg" xmlns:xlink="http://www.w3.org/1999/xlink" width="308" zoomAndPan="magnify" viewBox="0 0 230.87999 231" height="308" preserveAspectRatio="xMidYMid meet" version="1.0"><defs><g/><clipPath id="78faf8c14a"><path d="M 0 0.625 L 230.128906 0.625 L 230.128906 230.757812 L 0 230.757812 Z M 0 0.625 " clip-rule="nonzero"/></clipPath></defs><g clip-path="url(#78faf8c14a)"><path fill="#f06292" d="M 115.019531 0.8125 C 178.597656 0.8125 230.128906 52.34375 230.128906 115.921875 C 230.128906 179.492188 178.597656 231.035156 115.019531 231.035156 C 51.449219 231.035156 -0.09375 179.5 -0.09375 115.921875 C -0.0859375 52.34375 51.449219 0.8125 115.019531 0.8125 Z M 115.019531 0.8125 " fill-opacity="1" fill-rule="evenodd"/></g><path fill="#ffffff" d="M 187.222656 50.078125 C 182.011719 29.632812 148.113281 22.914062 116.035156 34.308594 C 96.941406 41.09375 76.273438 51.738281 61.410156 65.640625 C 43.734375 82.167969 40.921875 96.554688 42.082031 102.5625 C 46.175781 123.773438 75.238281 137.636719 87.183594 147.925781 L 87.183594 147.992188 C 83.660156 149.726562 57.878906 162.773438 51.84375 176.113281 C 45.476562 190.1875 52.859375 200.285156 57.746094 201.648438 C 72.886719 205.859375 88.417969 198.285156 96.769531 185.832031 C 104.828125 173.8125 104.160156 158.296875 100.65625 150.574219 C 105.484375 149.300781 111.121094 148.730469 118.273438 149.566406 C 138.464844 151.925781 142.425781 164.53125 141.664062 169.808594 C 140.910156 175.085938 136.671875 177.988281 135.257812 178.863281 C 133.839844 179.742188 133.414062 180.046875 133.527344 180.691406 C 133.699219 181.640625 134.351562 181.605469 135.5625 181.402344 C 137.226562 181.121094 146.164062 177.113281 146.550781 167.371094 C 147.035156 155.003906 135.1875 141.171875 114.207031 141.53125 C 105.566406 141.679688 100.132812 142.5 96.203125 143.964844 C 95.917969 143.636719 95.617188 143.308594 95.316406 142.976562 C 82.34375 129.136719 58.363281 119.347656 59.378906 100.742188 C 59.746094 93.976562 62.101562 76.164062 105.457031 54.558594 C 140.972656 36.859375 169.410156 41.734375 174.324219 52.523438 C 181.339844 67.945312 159.125 96.605469 122.238281 100.742188 C 108.183594 102.316406 100.785156 96.871094 98.945312 94.839844 C 97.007812 92.707031 96.71875 92.609375 95.996094 93.011719 C 94.820312 93.664062 95.566406 95.550781 95.996094 96.675781 C 97.097656 99.542969 101.621094 104.625 109.320312 107.15625 C 116.097656 109.382812 132.597656 110.597656 152.554688 102.882812 C 174.898438 94.230469 192.351562 70.179688 187.222656 50.078125 Z M 92.144531 154.265625 C 93.816406 160.460938 93.632812 166.238281 91.90625 171.46875 C 91.71875 172.054688 91.503906 172.625 91.273438 173.195312 C 91.042969 173.761719 90.792969 174.324219 90.53125 174.878906 C 89.195312 177.648438 87.402344 180.238281 85.210938 182.632812 C 78.519531 189.925781 69.175781 192.683594 65.175781 190.359375 C 60.847656 187.851562 63.019531 177.566406 70.769531 169.367188 C 79.109375 160.546875 91.113281 154.878906 91.113281 154.878906 L 91.09375 154.84375 C 91.441406 154.652344 91.792969 154.460938 92.144531 154.265625 Z M 92.144531 154.265625 " fill-opacity="1" fill-rule="nonzero"/><g fill="#ffffff" fill-opacity="1"><g transform="translate(71.962591, 127.310431)"><g><path d="M 0.890625 -0.625 C 0.890625 -0.882812 0.945312 -1.082031 1.0625 -1.21875 C 1.1875 -1.351562 1.359375 -1.421875 1.578125 -1.421875 C 1.804688 -1.421875 1.984375 -1.351562 2.109375 -1.21875 C 2.234375 -1.082031 2.296875 -0.882812 2.296875 -0.625 C 2.296875 -0.363281 2.234375 -0.164062 2.109375 -0.03125 C 1.984375 0.101562 1.804688 0.171875 1.578125 0.171875 C 1.378906 0.171875 1.210938 0.109375 1.078125 -0.015625 C 0.953125 -0.140625 0.890625 -0.34375 0.890625 -0.625 Z M 0.890625 -0.625 "/></g></g></g></svg>