<svg xmlns="http://www.w3.org/2000/svg" xmlns:xlink="http://www.w3.org/1999/xlink" width="39" zoomAndPan="magnify" viewBox="0 0 29.25 29.250001" height="39" preserveAspectRatio="xMidYMid meet" version="1.0"><defs><g/><clipPath id="3319965c39"><path d="M 0 0 L 28.519531 0 L 28.519531 28.519531 L 0 28.519531 Z M 0 0 " clip-rule="nonzero"/></clipPath></defs><g clip-path="url(#3319965c39)"><path fill="#02b194" d="M 28.460938 14.230469 C 28.460938 15.164062 28.371094 16.089844 28.1875 17.007812 C 28.007812 17.921875 27.734375 18.8125 27.378906 19.675781 C 27.019531 20.539062 26.582031 21.359375 26.0625 22.136719 C 25.542969 22.914062 24.953125 23.632812 24.292969 24.292969 C 23.632812 24.953125 22.914062 25.542969 22.136719 26.0625 C 21.359375 26.582031 20.539062 27.019531 19.675781 27.378906 C 18.8125 27.734375 17.921875 28.007812 17.007812 28.1875 C 16.089844 28.371094 15.164062 28.460938 14.230469 28.460938 C 13.296875 28.460938 12.371094 28.371094 11.453125 28.1875 C 10.539062 28.007812 9.648438 27.734375 8.785156 27.378906 C 7.921875 27.019531 7.101562 26.582031 6.324219 26.0625 C 5.546875 25.542969 4.828125 24.953125 4.167969 24.292969 C 3.507812 23.632812 2.917969 22.914062 2.398438 22.136719 C 1.878906 21.359375 1.441406 20.539062 1.082031 19.675781 C 0.726562 18.8125 0.457031 17.921875 0.273438 17.007812 C 0.0898438 16.089844 0 15.164062 0 14.230469 C 0 13.296875 0.0898438 12.371094 0.273438 11.453125 C 0.457031 10.539062 0.726562 9.648438 1.082031 8.785156 C 1.441406 7.921875 1.878906 7.101562 2.398438 6.324219 C 2.917969 5.546875 3.507812 4.828125 4.167969 4.167969 C 4.828125 3.507812 5.546875 2.917969 6.324219 2.398438 C 7.101562 1.878906 7.921875 1.441406 8.785156 1.082031 C 9.648438 0.726562 10.539062 0.457031 11.453125 0.273438 C 12.371094 0.0898438 13.296875 0 14.230469 0 C 15.164062 0 16.089844 0.0898438 17.007812 0.273438 C 17.921875 0.457031 18.8125 0.726562 19.675781 1.082031 C 20.539062 1.441406 21.359375 1.878906 22.136719 2.398438 C 22.914062 2.917969 23.632812 3.507812 24.292969 4.167969 C 24.953125 4.828125 25.542969 5.546875 26.0625 6.324219 C 26.582031 7.101562 27.019531 7.921875 27.378906 8.785156 C 27.734375 9.648438 28.007812 10.539062 28.1875 11.453125 C 28.371094 12.371094 28.460938 13.296875 28.460938 14.230469 Z M 28.460938 14.230469 " fill-opacity="1" fill-rule="nonzero"/></g><path fill="#f6f5f1" d="M 13.238281 15.125 C 10.886719 12.875 11.253906 11.816406 11.253906 11.816406 C 12.210938 10.886719 12.078125 9.664062 12.078125 9.664062 C 11.582031 9 11.085938 8.339844 10.589844 7.679688 C 10.589844 7.679688 9.929688 6.585938 8.902344 7.179688 C 6.15625 8.804688 7.015625 11.582031 7.015625 11.582031 C 7.015625 11.617188 7.777344 13.964844 11.253906 17.210938 C 14.726562 20.484375 17.242188 21.347656 17.242188 21.347656 C 17.242188 21.347656 20.089844 22.273438 21.445312 19.660156 C 21.941406 18.664062 20.816406 17.90625 20.816406 17.90625 C 20.121094 17.339844 19.425781 16.8125 18.730469 16.28125 C 18.730469 16.28125 17.472656 16.085938 16.613281 17.042969 C 16.613281 17.078125 15.554688 17.375 13.238281 15.125 Z M 13.238281 15.125 " fill-opacity="1" fill-rule="nonzero"/><g fill="#f6f5f1" fill-opacity="1"><g transform="translate(15.503217, 20.330039)"><g><path d="M 0.21875 -0.265625 C 0.21875 -0.378906 0.242188 -0.460938 0.296875 -0.515625 C 0.359375 -0.566406 0.445312 -0.59375 0.5625 -0.59375 C 0.664062 -0.59375 0.742188 -0.5625 0.796875 -0.5 C 0.859375 -0.445312 0.890625 -0.367188 0.890625 -0.265625 C 0.890625 -0.171875 0.859375 -0.09375 0.796875 -0.03125 C 0.742188 0.0195312 0.664062 0.046875 0.5625 0.046875 C 0.457031 0.046875 0.375 0.0195312 0.3125 -0.03125 C 0.25 -0.09375 0.21875 -0.171875 0.21875 -0.265625 Z M 0.21875 -0.265625 "/></g></g></g></svg>