<svg xmlns="http://www.w3.org/2000/svg" xmlns:xlink="http://www.w3.org/1999/xlink" width="3168" zoomAndPan="magnify" viewBox="0 0 2376 4023.749885" height="5365" preserveAspectRatio="xMidYMid meet" version="1.0"><defs><clipPath id="bdbc3bd5fa"><path d="M 0.0742188 0.519531 L 2375 0.519531 L 2375 4023.464844 L 0.0742188 4023.464844 Z M 0.0742188 0.519531 " clip-rule="nonzero"/></clipPath><clipPath id="5964024eee"><path d="M 442.289062 2213.046875 L 756.792969 2213.046875 L 756.792969 2505.703125 L 442.289062 2505.703125 Z M 442.289062 2213.046875 " clip-rule="nonzero"/></clipPath><clipPath id="1bb117597a"><path d="M 340.332031 2133 L 577 2133 L 577 2316 L 340.332031 2316 Z M 340.332031 2133 " clip-rule="nonzero"/></clipPath><clipPath id="1ba84a20dd"><path d="M 340.332031 2093.191406 L 577 2093.191406 L 577 2123 L 340.332031 2123 Z M 340.332031 2093.191406 " clip-rule="nonzero"/></clipPath><clipPath id="b9333e01af"><path d="M 1002 2754 L 1097 2754 L 1097 2769.375 L 1002 2769.375 Z M 1002 2754 " clip-rule="nonzero"/></clipPath><clipPath id="008f1731ed"><path d="M 1355 2754 L 1451 2754 L 1451 2769.375 L 1355 2769.375 Z M 1355 2754 " clip-rule="nonzero"/></clipPath><clipPath id="afeb937d00"><path d="M 1120.179688 2754 L 1215 2754 L 1215 2769.375 L 1120.179688 2769.375 Z M 1120.179688 2754 " clip-rule="nonzero"/></clipPath><clipPath id="8a39ff3734"><path d="M 1238 2754 L 1333 2754 L 1333 2769.375 L 1238 2769.375 Z M 1238 2754 " clip-rule="nonzero"/></clipPath><clipPath id="097fc35d60"><path d="M 991 2389 L 1453.828125 2389 L 1453.828125 2684 L 991 2684 Z M 991 2389 " clip-rule="nonzero"/></clipPath><clipPath id="60eadb7133"><path d="M 1360 2388.597656 L 1461.773438 2388.597656 L 1461.773438 2484 L 1360 2484 Z M 1360 2388.597656 " clip-rule="nonzero"/></clipPath><clipPath id="d0a564bfb2"><path d="M 1894 2093.191406 L 2023 2093.191406 L 2023 2222 L 1894 2222 Z M 1894 2093.191406 " clip-rule="nonzero"/></clipPath><clipPath id="0874e54794"><path d="M 1742.835938 2238 L 1893 2238 L 1893 2387.820312 L 1742.835938 2387.820312 Z M 1742.835938 2238 " clip-rule="nonzero"/></clipPath><clipPath id="a179f924b7"><path d="M 2039.039062 2235 L 2175 2235 L 2175 2390.46875 L 2039.039062 2390.46875 Z M 2039.039062 2235 " clip-rule="nonzero"/></clipPath><clipPath id="7d3b518ad6"><path d="M 1752 1488.078125 L 2097 1488.078125 L 2097 1900 L 1752 1900 Z M 1752 1488.078125 " clip-rule="nonzero"/></clipPath><clipPath id="9284f7dc6e"><path d="M 1386 941 L 1750.40625 941 L 1750.40625 1354 L 1386 1354 Z M 1386 941 " clip-rule="nonzero"/></clipPath><clipPath id="7f7cd3f6b1"><path d="M 1628.597656 966 L 1790.3125 966 L 1790.3125 1129.972656 L 1628.597656 1129.972656 Z M 1628.597656 966 " clip-rule="nonzero"/></clipPath><clipPath id="ed19677f4f"><path d="M 586 1305 L 926 1305 L 926 1319.332031 L 586 1319.332031 Z M 586 1305 " clip-rule="nonzero"/></clipPath><clipPath id="ecdbfc6aa8"><path d="M 704.441406 940.542969 L 807.714844 940.542969 L 807.714844 1044 L 704.441406 1044 Z M 704.441406 940.542969 " clip-rule="nonzero"/></clipPath><clipPath id="3fa85bbe03"><path d="M 507.753906 1043 L 688 1043 L 688 1239 L 507.753906 1239 Z M 507.753906 1043 " clip-rule="nonzero"/></clipPath><clipPath id="8680480a3d"><path d="M 824 1043 L 1003.542969 1043 L 1003.542969 1239 L 824 1239 Z M 824 1043 " clip-rule="nonzero"/></clipPath><clipPath id="2be34f9fd2"><path d="M 124.796875 1725 L 218 1725 L 218 1910 L 124.796875 1910 Z M 124.796875 1725 " clip-rule="nonzero"/></clipPath><clipPath id="b44a3a4a69"><path d="M 342 1488.078125 L 412 1488.078125 L 412 1566.910156 L 342 1566.910156 Z M 342 1488.078125 " clip-rule="nonzero"/></clipPath></defs><g clip-path="url(#bdbc3bd5fa)"><path fill="#eeeeee" d="M 0.0742188 0.519531 L 2374.453125 0.519531 L 2374.453125 4023.464844 L 0.0742188 4023.464844 Z M 0.0742188 0.519531 " fill-opacity="1" fill-rule="nonzero"/></g><g clip-path="url(#5964024eee)"><path fill="#4377c3" d="M 735.9375 2213.222656 L 592.574219 2213.222656 L 592.574219 2236.433594 L 733.539062 2236.433594 L 733.539062 2412.78125 L 466.007812 2412.78125 L 466.007812 2331.746094 L 442.746094 2331.746094 L 442.746094 2415.160156 C 442.746094 2419.464844 444.058594 2423.476562 446.3125 2426.796875 C 448.195312 2429.570312 450.71875 2431.878906 453.667969 2433.480469 C 456.625 2435.085938 460.019531 2435.996094 463.609375 2435.996094 L 589.285156 2435.996094 L 589.285156 2464.214844 C 573.574219 2465.195312 559.992188 2468.332031 551.117188 2472.707031 C 544.195312 2476.121094 540.140625 2480.289062 540.140625 2484.796875 C 540.140625 2496.34375 566.828125 2505.703125 599.773438 2505.703125 C 632.707031 2505.703125 659.40625 2496.34375 659.40625 2484.796875 C 659.40625 2479.003906 652.691406 2473.769531 641.851562 2469.984375 C 633.421875 2467.039062 622.476562 2464.980469 610.261719 2464.214844 L 610.261719 2435.996094 L 735.9375 2435.996094 C 743.117188 2435.996094 749.480469 2432.34375 753.222656 2426.796875 C 755.488281 2423.476562 756.792969 2419.464844 756.792969 2415.160156 L 756.792969 2234.035156 C 756.792969 2222.574219 747.429688 2213.222656 735.9375 2213.222656 " fill-opacity="1" fill-rule="nonzero"/></g><path fill="#4377c3" d="M 431.015625 2194.128906 L 379.222656 2223.960938 C 378.800781 2224.207031 378.800781 2224.820312 379.222656 2225.066406 L 431.015625 2254.910156 C 431.4375 2255.160156 431.976562 2254.835938 431.976562 2254.351562 L 431.976562 2240.242188 C 431.976562 2240.003906 431.863281 2239.808594 431.65625 2239.683594 L 406.28125 2225.066406 C 405.847656 2224.820312 405.847656 2224.207031 406.28125 2223.960938 L 431.65625 2209.34375 C 431.863281 2209.21875 431.976562 2209.011719 431.976562 2208.785156 L 431.976562 2194.675781 C 431.976562 2194.191406 431.4375 2193.878906 431.015625 2194.128906 " fill-opacity="1" fill-rule="nonzero"/><path fill="#4377c3" d="M 485.917969 2254.910156 L 537.722656 2225.066406 C 538.144531 2224.820312 538.144531 2224.207031 537.722656 2223.960938 L 485.917969 2194.128906 C 485.496094 2193.878906 484.96875 2194.191406 484.96875 2194.675781 L 484.96875 2208.785156 C 484.96875 2209.011719 485.09375 2209.21875 485.277344 2209.34375 L 510.671875 2223.960938 C 511.097656 2224.207031 511.097656 2224.820312 510.671875 2225.066406 L 485.277344 2239.683594 C 485.09375 2239.808594 484.96875 2240.003906 484.96875 2240.242188 L 484.96875 2254.351562 C 484.96875 2254.835938 485.496094 2255.160156 485.917969 2254.910156 " fill-opacity="1" fill-rule="nonzero"/><path fill="#4377c3" d="M 480.59375 2182.894531 L 467.351562 2182.550781 L 436.339844 2266.144531 L 449.5 2266.710938 L 480.59375 2182.894531 " fill-opacity="1" fill-rule="nonzero"/><g clip-path="url(#1bb117597a)"><path fill="#4377c3" d="M 358.328125 2151.40625 L 558.617188 2151.40625 L 558.617188 2297.859375 L 358.328125 2297.859375 Z M 466.007812 2315.835938 L 576.625 2315.835938 L 576.625 2133.449219 L 340.320312 2133.449219 L 340.320312 2315.835938 L 466.007812 2315.835938 " fill-opacity="1" fill-rule="nonzero"/></g><g clip-path="url(#1ba84a20dd)"><path fill="#4377c3" d="M 541.144531 2113.917969 C 537.835938 2113.917969 535.15625 2111.238281 535.15625 2107.929688 C 535.15625 2104.640625 537.835938 2101.960938 541.144531 2101.960938 C 544.445312 2101.960938 547.125 2104.640625 547.125 2107.929688 C 547.125 2111.238281 544.445312 2113.917969 541.144531 2113.917969 Z M 517.292969 2113.917969 C 513.992188 2113.917969 511.304688 2111.238281 511.304688 2107.929688 C 511.304688 2104.640625 513.992188 2101.960938 517.292969 2101.960938 C 520.59375 2101.960938 523.269531 2104.640625 523.269531 2107.929688 C 523.269531 2111.238281 520.59375 2113.917969 517.292969 2113.917969 Z M 493.449219 2113.917969 C 490.140625 2113.917969 487.460938 2111.238281 487.460938 2107.929688 C 487.460938 2104.640625 490.140625 2101.960938 493.449219 2101.960938 C 496.761719 2101.960938 499.429688 2104.640625 499.429688 2107.929688 C 499.429688 2111.238281 496.761719 2113.917969 493.449219 2113.917969 Z M 471.066406 2113.535156 L 375.425781 2113.535156 C 372.335938 2113.535156 369.820312 2111.035156 369.820312 2107.929688 C 369.820312 2104.847656 372.335938 2102.34375 375.425781 2102.34375 L 471.066406 2102.34375 C 474.160156 2102.34375 476.660156 2104.847656 476.660156 2107.929688 C 476.660156 2111.035156 474.160156 2113.535156 471.066406 2113.535156 Z M 547.070312 2093.191406 L 369.882812 2093.191406 C 353.550781 2093.191406 340.320312 2106.398438 340.320312 2122.679688 L 576.625 2122.679688 C 576.625 2106.398438 563.382812 2093.191406 547.070312 2093.191406 " fill-opacity="1" fill-rule="nonzero"/></g><g clip-path="url(#b9333e01af)"><path fill="#ffffff" d="M 1002.414062 2754.699219 L 1096.949219 2754.699219 L 1096.949219 2770.296875 L 1002.414062 2770.296875 Z M 1002.414062 2754.699219 " fill-opacity="1" fill-rule="nonzero"/></g><path fill="#ffb733" d="M 1002.414062 2753.582031 L 1096.949219 2753.582031 L 1096.949219 2767.554688 L 1002.414062 2767.554688 Z M 1002.414062 2753.582031 " fill-opacity="1" fill-rule="nonzero"/><path fill="#ffffff" d="M 1002.414062 2737.980469 L 1096.949219 2737.980469 L 1096.949219 2753.582031 L 1002.414062 2753.582031 Z M 1002.414062 2737.980469 " fill-opacity="1" fill-rule="nonzero"/><path fill="#ffb733" d="M 1002.414062 2736.855469 L 1096.949219 2736.855469 L 1096.949219 2750.828125 L 1002.414062 2750.828125 Z M 1002.414062 2736.855469 " fill-opacity="1" fill-rule="nonzero"/><g clip-path="url(#008f1731ed)"><path fill="#ffffff" d="M 1355.789062 2754.699219 L 1450.3125 2754.699219 L 1450.3125 2770.296875 L 1355.789062 2770.296875 Z M 1355.789062 2754.699219 " fill-opacity="1" fill-rule="nonzero"/></g><path fill="#ffb733" d="M 1355.789062 2753.582031 L 1450.3125 2753.582031 L 1450.3125 2767.554688 L 1355.789062 2767.554688 Z M 1355.789062 2753.582031 " fill-opacity="1" fill-rule="nonzero"/><path fill="#ffffff" d="M 1355.789062 2737.980469 L 1450.3125 2737.980469 L 1450.3125 2753.582031 L 1355.789062 2753.582031 Z M 1355.789062 2737.980469 " fill-opacity="1" fill-rule="nonzero"/><path fill="#ffb733" d="M 1355.789062 2736.855469 L 1450.3125 2736.855469 L 1450.3125 2750.828125 L 1355.789062 2750.828125 Z M 1355.789062 2736.855469 " fill-opacity="1" fill-rule="nonzero"/><path fill="#ffffff" d="M 1355.789062 2721.253906 L 1450.3125 2721.253906 L 1450.3125 2736.855469 L 1355.789062 2736.855469 Z M 1355.789062 2721.253906 " fill-opacity="1" fill-rule="nonzero"/><path fill="#ffb733" d="M 1355.789062 2720.136719 L 1450.3125 2720.136719 L 1450.3125 2734.113281 L 1355.789062 2734.113281 Z M 1355.789062 2720.136719 " fill-opacity="1" fill-rule="nonzero"/><path fill="#ffffff" d="M 1355.789062 2704.550781 L 1450.3125 2704.550781 L 1450.3125 2720.136719 L 1355.789062 2720.136719 Z M 1355.789062 2704.550781 " fill-opacity="1" fill-rule="nonzero"/><path fill="#ffb733" d="M 1355.789062 2703.421875 L 1450.3125 2703.421875 L 1450.3125 2717.398438 L 1355.789062 2717.398438 Z M 1355.789062 2703.421875 " fill-opacity="1" fill-rule="nonzero"/><path fill="#ffffff" d="M 1355.789062 2687.824219 L 1450.3125 2687.824219 L 1450.3125 2703.421875 L 1355.789062 2703.421875 Z M 1355.789062 2687.824219 " fill-opacity="1" fill-rule="nonzero"/><path fill="#ffb733" d="M 1355.789062 2686.707031 L 1450.3125 2686.707031 L 1450.3125 2700.679688 L 1355.789062 2700.679688 Z M 1355.789062 2686.707031 " fill-opacity="1" fill-rule="nonzero"/><path fill="#ffffff" d="M 1355.789062 2671.105469 L 1450.3125 2671.105469 L 1450.3125 2686.695312 L 1355.789062 2686.695312 Z M 1355.789062 2671.105469 " fill-opacity="1" fill-rule="nonzero"/><path fill="#ffb733" d="M 1355.789062 2669.980469 L 1450.3125 2669.980469 L 1450.3125 2683.953125 L 1355.789062 2683.953125 Z M 1355.789062 2669.980469 " fill-opacity="1" fill-rule="nonzero"/><path fill="#ffffff" d="M 1355.789062 2654.378906 L 1450.3125 2654.378906 L 1450.3125 2669.980469 L 1355.789062 2669.980469 Z M 1355.789062 2654.378906 " fill-opacity="1" fill-rule="nonzero"/><path fill="#ffb733" d="M 1355.789062 2653.261719 L 1450.3125 2653.261719 L 1450.3125 2667.238281 L 1355.789062 2667.238281 Z M 1355.789062 2653.261719 " fill-opacity="1" fill-rule="nonzero"/><path fill="#ffffff" d="M 1355.789062 2637.664062 L 1450.3125 2637.664062 L 1450.3125 2653.261719 L 1355.789062 2653.261719 Z M 1355.789062 2637.664062 " fill-opacity="1" fill-rule="nonzero"/><path fill="#ffb733" d="M 1355.789062 2636.546875 L 1450.3125 2636.546875 L 1450.3125 2650.523438 L 1355.789062 2650.523438 Z M 1355.789062 2636.546875 " fill-opacity="1" fill-rule="nonzero"/><path fill="#ffffff" d="M 1355.789062 2620.9375 L 1450.3125 2620.9375 L 1450.3125 2636.546875 L 1355.789062 2636.546875 Z M 1355.789062 2620.9375 " fill-opacity="1" fill-rule="nonzero"/><path fill="#ffb733" d="M 1355.789062 2619.820312 L 1450.3125 2619.820312 L 1450.3125 2633.796875 L 1355.789062 2633.796875 Z M 1355.789062 2619.820312 " fill-opacity="1" fill-rule="nonzero"/><path fill="#ffffff" d="M 1355.789062 2604.222656 L 1450.3125 2604.222656 L 1450.3125 2619.820312 L 1355.789062 2619.820312 Z M 1355.789062 2604.222656 " fill-opacity="1" fill-rule="nonzero"/><path fill="#ffb733" d="M 1355.789062 2603.105469 L 1450.3125 2603.105469 L 1450.3125 2617.078125 L 1355.789062 2617.078125 Z M 1355.789062 2603.105469 " fill-opacity="1" fill-rule="nonzero"/><path fill="#ffffff" d="M 1355.789062 2587.496094 L 1450.3125 2587.496094 L 1450.3125 2603.105469 L 1355.789062 2603.105469 Z M 1355.789062 2587.496094 " fill-opacity="1" fill-rule="nonzero"/><path fill="#ffb733" d="M 1355.789062 2586.386719 L 1450.3125 2586.386719 L 1450.3125 2600.351562 L 1355.789062 2600.351562 Z M 1355.789062 2586.386719 " fill-opacity="1" fill-rule="nonzero"/><path fill="#ffffff" d="M 1355.789062 2570.789062 L 1450.3125 2570.789062 L 1450.3125 2586.386719 L 1355.789062 2586.386719 Z M 1355.789062 2570.789062 " fill-opacity="1" fill-rule="nonzero"/><path fill="#ffb733" d="M 1355.789062 2569.660156 L 1450.3125 2569.660156 L 1450.3125 2583.648438 L 1355.789062 2583.648438 Z M 1355.789062 2569.660156 " fill-opacity="1" fill-rule="nonzero"/><path fill="#ffffff" d="M 1355.789062 2554.0625 L 1450.3125 2554.0625 L 1450.3125 2569.660156 L 1355.789062 2569.660156 Z M 1355.789062 2554.0625 " fill-opacity="1" fill-rule="nonzero"/><path fill="#ffb733" d="M 1355.789062 2552.945312 L 1450.3125 2552.945312 L 1450.3125 2566.910156 L 1355.789062 2566.910156 Z M 1355.789062 2552.945312 " fill-opacity="1" fill-rule="nonzero"/><path fill="#ffffff" d="M 1355.789062 2537.355469 L 1450.3125 2537.355469 L 1450.3125 2552.945312 L 1355.789062 2552.945312 Z M 1355.789062 2537.355469 " fill-opacity="1" fill-rule="nonzero"/><path fill="#ffb733" d="M 1355.789062 2536.230469 L 1450.3125 2536.230469 L 1450.3125 2550.203125 L 1355.789062 2550.203125 Z M 1355.789062 2536.230469 " fill-opacity="1" fill-rule="nonzero"/><g clip-path="url(#afeb937d00)"><path fill="#ffffff" d="M 1120.210938 2754.699219 L 1214.742188 2754.699219 L 1214.742188 2770.296875 L 1120.210938 2770.296875 Z M 1120.210938 2754.699219 " fill-opacity="1" fill-rule="nonzero"/></g><path fill="#ffb733" d="M 1120.210938 2753.582031 L 1214.742188 2753.582031 L 1214.742188 2767.554688 L 1120.210938 2767.554688 Z M 1120.210938 2753.582031 " fill-opacity="1" fill-rule="nonzero"/><path fill="#ffffff" d="M 1120.210938 2737.980469 L 1214.742188 2737.980469 L 1214.742188 2753.582031 L 1120.210938 2753.582031 Z M 1120.210938 2737.980469 " fill-opacity="1" fill-rule="nonzero"/><path fill="#ffb733" d="M 1120.210938 2736.855469 L 1214.742188 2736.855469 L 1214.742188 2750.828125 L 1120.210938 2750.828125 Z M 1120.210938 2736.855469 " fill-opacity="1" fill-rule="nonzero"/><path fill="#ffffff" d="M 1120.210938 2721.265625 L 1214.742188 2721.265625 L 1214.742188 2736.863281 L 1120.210938 2736.863281 Z M 1120.210938 2721.265625 " fill-opacity="1" fill-rule="nonzero"/><path fill="#ffb733" d="M 1120.210938 2720.136719 L 1214.742188 2720.136719 L 1214.742188 2734.125 L 1120.210938 2734.125 Z M 1120.210938 2720.136719 " fill-opacity="1" fill-rule="nonzero"/><path fill="#ffffff" d="M 1120.210938 2704.550781 L 1214.742188 2704.550781 L 1214.742188 2720.136719 L 1120.210938 2720.136719 Z M 1120.210938 2704.550781 " fill-opacity="1" fill-rule="nonzero"/><path fill="#ffb733" d="M 1120.210938 2703.433594 L 1214.742188 2703.433594 L 1214.742188 2717.40625 L 1120.210938 2717.40625 Z M 1120.210938 2703.433594 " fill-opacity="1" fill-rule="nonzero"/><path fill="#ffffff" d="M 1120.210938 2687.832031 L 1214.742188 2687.832031 L 1214.742188 2703.433594 L 1120.210938 2703.433594 Z M 1120.210938 2687.832031 " fill-opacity="1" fill-rule="nonzero"/><path fill="#ffb733" d="M 1120.210938 2686.707031 L 1214.742188 2686.707031 L 1214.742188 2700.691406 L 1120.210938 2700.691406 Z M 1120.210938 2686.707031 " fill-opacity="1" fill-rule="nonzero"/><path fill="#ffffff" d="M 1120.210938 2671.117188 L 1214.742188 2671.117188 L 1214.742188 2686.714844 L 1120.210938 2686.714844 Z M 1120.210938 2671.117188 " fill-opacity="1" fill-rule="nonzero"/><path fill="#ffb733" d="M 1120.210938 2669.988281 L 1214.742188 2669.988281 L 1214.742188 2683.964844 L 1120.210938 2683.964844 Z M 1120.210938 2669.988281 " fill-opacity="1" fill-rule="nonzero"/><g clip-path="url(#8a39ff3734)"><path fill="#ffffff" d="M 1238.007812 2754.699219 L 1332.527344 2754.699219 L 1332.527344 2770.296875 L 1238.007812 2770.296875 Z M 1238.007812 2754.699219 " fill-opacity="1" fill-rule="nonzero"/></g><path fill="#ffb733" d="M 1238.007812 2753.582031 L 1332.527344 2753.582031 L 1332.527344 2767.554688 L 1238.007812 2767.554688 Z M 1238.007812 2753.582031 " fill-opacity="1" fill-rule="nonzero"/><path fill="#ffffff" d="M 1238.007812 2737.980469 L 1332.527344 2737.980469 L 1332.527344 2753.582031 L 1238.007812 2753.582031 Z M 1238.007812 2737.980469 " fill-opacity="1" fill-rule="nonzero"/><path fill="#ffb733" d="M 1238.007812 2736.855469 L 1332.527344 2736.855469 L 1332.527344 2750.828125 L 1238.007812 2750.828125 Z M 1238.007812 2736.855469 " fill-opacity="1" fill-rule="nonzero"/><path fill="#ffffff" d="M 1238.007812 2721.265625 L 1332.527344 2721.265625 L 1332.527344 2736.863281 L 1238.007812 2736.863281 Z M 1238.007812 2721.265625 " fill-opacity="1" fill-rule="nonzero"/><path fill="#ffb733" d="M 1238.007812 2720.136719 L 1332.527344 2720.136719 L 1332.527344 2734.125 L 1238.007812 2734.125 Z M 1238.007812 2720.136719 " fill-opacity="1" fill-rule="nonzero"/><path fill="#ffffff" d="M 1238.007812 2704.550781 L 1332.527344 2704.550781 L 1332.527344 2720.136719 L 1238.007812 2720.136719 Z M 1238.007812 2704.550781 " fill-opacity="1" fill-rule="nonzero"/><path fill="#ffb733" d="M 1238.007812 2703.433594 L 1332.527344 2703.433594 L 1332.527344 2717.40625 L 1238.007812 2717.40625 Z M 1238.007812 2703.433594 " fill-opacity="1" fill-rule="nonzero"/><path fill="#ffffff" d="M 1238.007812 2687.832031 L 1332.527344 2687.832031 L 1332.527344 2703.433594 L 1238.007812 2703.433594 Z M 1238.007812 2687.832031 " fill-opacity="1" fill-rule="nonzero"/><path fill="#ffb733" d="M 1238.007812 2686.707031 L 1332.527344 2686.707031 L 1332.527344 2700.691406 L 1238.007812 2700.691406 Z M 1238.007812 2686.707031 " fill-opacity="1" fill-rule="nonzero"/><path fill="#ffffff" d="M 1238.007812 2671.117188 L 1332.527344 2671.117188 L 1332.527344 2686.714844 L 1238.007812 2686.714844 Z M 1238.007812 2671.117188 " fill-opacity="1" fill-rule="nonzero"/><path fill="#ffb733" d="M 1238.007812 2669.988281 L 1332.527344 2669.988281 L 1332.527344 2683.964844 L 1238.007812 2683.964844 Z M 1238.007812 2669.988281 " fill-opacity="1" fill-rule="nonzero"/><path fill="#ffffff" d="M 1238.007812 2654.390625 L 1332.527344 2654.390625 L 1332.527344 2669.988281 L 1238.007812 2669.988281 Z M 1238.007812 2654.390625 " fill-opacity="1" fill-rule="nonzero"/><path fill="#ffb733" d="M 1238.007812 2653.285156 L 1332.527344 2653.285156 L 1332.527344 2667.257812 L 1238.007812 2667.257812 Z M 1238.007812 2653.285156 " fill-opacity="1" fill-rule="nonzero"/><path fill="#ffffff" d="M 1238.007812 2637.675781 L 1332.527344 2637.675781 L 1332.527344 2653.273438 L 1238.007812 2653.273438 Z M 1238.007812 2637.675781 " fill-opacity="1" fill-rule="nonzero"/><path fill="#ffb733" d="M 1238.007812 2636.566406 L 1332.527344 2636.566406 L 1332.527344 2650.53125 L 1238.007812 2650.53125 Z M 1238.007812 2636.566406 " fill-opacity="1" fill-rule="nonzero"/><path fill="#ffffff" d="M 1238.007812 2620.96875 L 1332.527344 2620.96875 L 1332.527344 2636.566406 L 1238.007812 2636.566406 Z M 1238.007812 2620.96875 " fill-opacity="1" fill-rule="nonzero"/><path fill="#ffb733" d="M 1238.007812 2619.851562 L 1332.527344 2619.851562 L 1332.527344 2633.816406 L 1238.007812 2633.816406 Z M 1238.007812 2619.851562 " fill-opacity="1" fill-rule="nonzero"/><path fill="#ffffff" d="M 1238.007812 2604.242188 L 1332.527344 2604.242188 L 1332.527344 2619.851562 L 1238.007812 2619.851562 Z M 1238.007812 2604.242188 " fill-opacity="1" fill-rule="nonzero"/><path fill="#ffb733" d="M 1238.007812 2603.136719 L 1332.527344 2603.136719 L 1332.527344 2617.101562 L 1238.007812 2617.101562 Z M 1238.007812 2603.136719 " fill-opacity="1" fill-rule="nonzero"/><g clip-path="url(#097fc35d60)"><path fill="#ffb733" d="M 1002.40625 2683.882812 C 997.128906 2683.882812 992.589844 2680.105469 991.617188 2674.902344 C 990.519531 2668.945312 994.472656 2663.203125 1000.410156 2662.097656 C 1093.648438 2644.78125 1194.65625 2599.277344 1284.84375 2533.945312 C 1342.3125 2492.320312 1392.582031 2445.167969 1434.238281 2393.789062 C 1436.335938 2391.203125 1439.449219 2389.726562 1442.769531 2389.726562 C 1445.273438 2389.726562 1447.738281 2390.605469 1449.691406 2392.1875 C 1451.96875 2394.027344 1453.394531 2396.65625 1453.683594 2399.574219 C 1453.996094 2402.488281 1453.144531 2405.355469 1451.292969 2407.632812 C 1408.429688 2460.488281 1356.761719 2508.984375 1297.730469 2551.734375 C 1204.957031 2618.929688 1100.796875 2665.800781 1004.421875 2683.707031 C 1003.75 2683.820312 1003.078125 2683.882812 1002.40625 2683.882812 Z M 1002.40625 2683.882812 " fill-opacity="1" fill-rule="nonzero"/></g><g clip-path="url(#60eadb7133)"><path fill="#ffb733" d="M 1450.25 2483.441406 C 1444.613281 2483.441406 1439.925781 2479.203125 1439.335938 2473.59375 L 1432.984375 2412.773438 L 1372.164062 2419.125 C 1371.78125 2419.164062 1371.398438 2419.183594 1371.015625 2419.183594 C 1365.378906 2419.183594 1360.683594 2414.953125 1360.105469 2409.347656 C 1359.792969 2406.421875 1360.640625 2403.566406 1362.492188 2401.28125 C 1364.335938 2399.003906 1366.972656 2397.578125 1369.890625 2397.277344 L 1452.546875 2388.640625 L 1461.195312 2471.320312 C 1461.8125 2477.339844 1457.429688 2482.75 1451.410156 2483.382812 C 1451.015625 2483.421875 1450.621094 2483.441406 1450.25 2483.441406 Z M 1450.25 2483.441406 " fill-opacity="1" fill-rule="nonzero"/></g><g clip-path="url(#d0a564bfb2)"><path fill="#185c99" d="M 1913.558594 2202.691406 C 1913.558594 2202.691406 1913.898438 2203.023438 1913.898438 2203.023438 C 1925.371094 2214.496094 1941.226562 2221.582031 1958.769531 2221.582031 C 1976.324219 2221.582031 1992.183594 2214.496094 2003.652344 2203.023438 C 2003.652344 2203.023438 2003.996094 2202.691406 2003.996094 2202.691406 C 2003.996094 2202.691406 2004.324219 2202.351562 2004.324219 2202.351562 C 2015.796875 2190.878906 2022.882812 2175.023438 2022.882812 2157.476562 C 2022.882812 2139.925781 2015.796875 2124.066406 2004.324219 2112.59375 C 2004.324219 2112.59375 2003.996094 2112.265625 2003.996094 2112.265625 C 2003.996094 2112.265625 2003.652344 2111.921875 2003.652344 2111.921875 C 1992.183594 2100.449219 1976.324219 2093.367188 1958.769531 2093.367188 C 1941.226562 2093.367188 1925.371094 2100.449219 1913.898438 2111.921875 C 1913.898438 2111.921875 1913.558594 2112.265625 1913.558594 2112.265625 C 1913.558594 2112.265625 1913.226562 2112.59375 1913.226562 2112.59375 C 1901.757812 2124.066406 1894.671875 2139.925781 1894.671875 2157.476562 C 1894.671875 2175.023438 1901.757812 2190.878906 1913.226562 2202.351562 C 1913.226562 2202.351562 1913.226562 2202.691406 1913.558594 2202.691406 Z M 1914.914062 2150.722656 L 1908.5 2150.722656 C 1909.855469 2141.953125 1913.226562 2133.519531 1918.285156 2126.765625 L 1922.671875 2131.152344 C 1924.027344 2132.507812 1925.710938 2133.179688 1927.398438 2133.179688 C 1929.085938 2133.179688 1930.769531 2132.507812 1932.125 2131.152344 C 1934.816406 2128.453125 1934.816406 2124.40625 1932.125 2121.707031 L 1927.730469 2117.324219 C 1934.484375 2112.265625 1942.582031 2108.550781 1951.6875 2107.535156 L 1951.6875 2113.609375 C 1951.6875 2117.324219 1954.726562 2120.351562 1958.441406 2120.351562 C 1962.152344 2120.351562 1965.183594 2117.324219 1965.183594 2113.609375 L 1965.183594 2107.195312 C 1973.957031 2108.550781 1982.398438 2111.921875 1989.140625 2116.980469 L 1984.753906 2121.367188 C 1982.054688 2124.066406 1982.054688 2128.121094 1984.753906 2130.820312 C 1986.109375 2132.167969 1987.796875 2132.839844 1989.480469 2132.839844 C 1991.167969 2132.839844 1992.855469 2132.167969 1994.210938 2130.820312 L 1998.59375 2126.4375 C 2003.652344 2133.179688 2007.367188 2141.28125 2008.378906 2150.394531 L 2002.640625 2150.394531 C 1998.925781 2150.394531 1995.894531 2153.421875 1995.894531 2157.136719 C 1995.894531 2160.851562 1998.925781 2163.882812 2002.640625 2163.882812 L 2009.050781 2163.882812 C 2007.699219 2172.664062 2004.324219 2181.09375 1999.265625 2187.839844 L 1994.882812 2183.453125 C 1992.183594 2180.753906 1988.125 2180.753906 1985.425781 2183.453125 C 1982.738281 2186.152344 1982.738281 2190.207031 1985.425781 2192.90625 L 1989.824219 2197.292969 C 1983.070312 2202.351562 1974.96875 2206.066406 1965.867188 2207.078125 L 1965.867188 2201.335938 C 1965.867188 2197.625 1962.824219 2194.59375 1959.113281 2194.59375 C 1955.398438 2194.59375 1952.367188 2197.625 1952.367188 2201.335938 L 1952.367188 2207.75 C 1943.597656 2206.40625 1935.15625 2203.023438 1928.414062 2197.964844 L 1932.796875 2193.578125 C 1935.496094 2190.878906 1935.496094 2186.835938 1932.796875 2184.136719 C 1930.097656 2181.433594 1926.042969 2181.433594 1923.34375 2184.136719 L 1918.957031 2188.519531 C 1913.898438 2181.765625 1910.1875 2173.667969 1909.171875 2164.5625 L 1914.914062 2164.5625 C 1918.628906 2164.5625 1921.65625 2161.523438 1921.65625 2157.808594 C 1921.65625 2154.097656 1918.628906 2150.722656 1914.914062 2150.722656 Z M 1914.914062 2150.722656 " fill-opacity="1" fill-rule="nonzero"/></g><path fill="#185c99" d="M 1941.902344 2164.222656 L 1958.769531 2164.222656 C 1962.484375 2164.222656 1965.527344 2161.183594 1965.527344 2157.476562 L 1965.527344 2137.226562 C 1965.527344 2133.519531 1962.484375 2130.480469 1958.769531 2130.480469 C 1955.066406 2130.480469 1952.027344 2133.519531 1952.027344 2137.226562 L 1952.027344 2150.722656 L 1941.902344 2150.722656 C 1938.199219 2150.722656 1935.15625 2153.765625 1935.15625 2157.476562 C 1935.15625 2161.183594 1938.199219 2164.222656 1941.902344 2164.222656 Z M 1941.902344 2164.222656 " fill-opacity="1" fill-rule="nonzero"/><g clip-path="url(#0874e54794)"><path fill="#185c99" d="M 1752.277344 2332.59375 C 1753.621094 2336.648438 1755.320312 2340.695312 1757.335938 2344.75 C 1755.320312 2350.480469 1756.324219 2357.234375 1761.050781 2361.621094 L 1768.476562 2369.035156 C 1771.507812 2372.078125 1775.5625 2373.765625 1779.949219 2373.765625 C 1781.976562 2373.765625 1783.660156 2373.421875 1785.679688 2372.75 C 1789.390625 2374.777344 1793.445312 2376.464844 1797.832031 2377.820312 C 1800.53125 2383.207031 1805.929688 2387.261719 1812.335938 2387.261719 L 1822.800781 2387.261719 C 1829.203125 2387.261719 1834.945312 2383.550781 1837.304688 2377.820312 C 1841.359375 2376.464844 1845.402344 2374.777344 1849.457031 2372.75 C 1851.144531 2373.421875 1853.160156 2373.765625 1855.1875 2373.765625 C 1859.574219 2373.765625 1863.628906 2372.078125 1866.660156 2369.035156 L 1874.085938 2361.621094 C 1878.8125 2356.894531 1879.816406 2350.480469 1877.800781 2344.75 C 1879.816406 2341.035156 1881.503906 2336.992188 1882.859375 2332.59375 C 1888.257812 2329.894531 1892.300781 2324.503906 1892.300781 2318.09375 L 1892.300781 2307.632812 C 1892.300781 2301.222656 1888.597656 2295.480469 1882.859375 2293.121094 C 1881.503906 2289.066406 1879.816406 2285.023438 1877.800781 2280.976562 C 1878.472656 2279.28125 1878.8125 2277.265625 1878.8125 2275.234375 C 1878.8125 2270.851562 1877.117188 2266.804688 1874.085938 2263.765625 L 1866.660156 2256.335938 C 1863.628906 2253.308594 1859.574219 2251.621094 1855.1875 2251.621094 C 1853.160156 2251.621094 1851.476562 2251.953125 1849.457031 2252.625 C 1845.746094 2250.605469 1841.691406 2248.921875 1837.304688 2247.566406 C 1834.605469 2242.164062 1829.203125 2238.121094 1822.800781 2238.121094 L 1812.335938 2238.121094 C 1805.929688 2238.121094 1800.191406 2241.835938 1797.832031 2247.566406 C 1793.777344 2248.921875 1789.734375 2250.605469 1785.679688 2252.625 C 1783.320312 2252.292969 1781.632812 2251.953125 1779.605469 2251.953125 C 1775.222656 2251.953125 1771.175781 2253.636719 1768.136719 2256.679688 L 1760.707031 2264.105469 C 1758.019531 2266.804688 1756.324219 2270.851562 1756.324219 2275.234375 C 1756.324219 2277.265625 1756.664062 2278.949219 1757.335938 2280.976562 C 1755.320312 2284.679688 1753.621094 2288.734375 1752.277344 2293.121094 C 1746.539062 2295.480469 1742.835938 2300.878906 1742.835938 2307.632812 L 1742.835938 2318.09375 C 1742.835938 2324.503906 1746.539062 2329.894531 1752.277344 2332.59375 Z M 1756.324219 2307.632812 C 1756.324219 2306.277344 1757.335938 2304.933594 1759.023438 2304.933594 L 1763.40625 2304.933594 C 1764.761719 2295.820312 1768.476562 2287.378906 1773.535156 2280.292969 L 1770.492188 2277.265625 C 1769.492188 2276.25 1769.492188 2274.5625 1770.492188 2273.550781 L 1777.921875 2266.121094 C 1778.261719 2265.792969 1778.933594 2265.449219 1779.605469 2265.449219 C 1780.277344 2265.449219 1780.960938 2265.792969 1781.292969 2266.121094 L 1784.332031 2269.164062 C 1791.417969 2263.765625 1799.847656 2260.390625 1808.960938 2259.039062 L 1808.960938 2254.652344 C 1808.960938 2253.308594 1809.976562 2251.953125 1811.660156 2251.953125 L 1822.121094 2251.953125 C 1823.472656 2251.953125 1824.820312 2252.964844 1824.820312 2254.652344 L 1824.820312 2259.039062 C 1833.933594 2260.390625 1842.371094 2264.105469 1849.457031 2269.164062 L 1852.488281 2266.121094 C 1852.832031 2265.792969 1853.503906 2265.449219 1854.175781 2265.449219 C 1854.847656 2265.449219 1855.53125 2265.792969 1855.859375 2266.121094 L 1863.289062 2273.550781 C 1864.300781 2274.5625 1864.300781 2276.25 1863.289062 2277.265625 L 1860.246094 2280.292969 C 1865.644531 2287.378906 1869.027344 2295.820312 1870.375 2304.933594 L 1874.757812 2304.933594 C 1876.113281 2304.933594 1877.457031 2305.9375 1877.457031 2307.632812 L 1877.457031 2318.09375 C 1877.457031 2319.4375 1876.445312 2320.792969 1874.757812 2320.792969 L 1870.375 2320.792969 C 1869.027344 2329.894531 1865.316406 2338.335938 1860.246094 2345.421875 L 1863.289062 2348.460938 C 1864.300781 2349.464844 1864.300781 2351.164062 1863.289062 2352.164062 L 1855.859375 2359.59375 C 1855.859375 2359.933594 1855.1875 2359.933594 1854.515625 2359.933594 C 1853.84375 2359.933594 1853.160156 2359.59375 1852.832031 2359.25 L 1849.789062 2356.21875 C 1842.703125 2361.621094 1834.273438 2364.992188 1825.160156 2366.335938 L 1825.160156 2370.734375 C 1825.160156 2372.078125 1824.148438 2373.421875 1822.460938 2373.421875 L 1812.003906 2373.421875 C 1810.648438 2373.421875 1809.304688 2372.417969 1809.304688 2370.734375 L 1809.304688 2366.335938 C 1800.191406 2364.992188 1791.761719 2361.277344 1784.675781 2356.21875 L 1781.632812 2359.25 C 1780.960938 2359.933594 1780.277344 2359.933594 1779.605469 2359.933594 C 1778.933594 2359.933594 1778.261719 2359.59375 1777.921875 2359.25 L 1770.492188 2351.835938 C 1769.492188 2350.820312 1769.492188 2349.136719 1770.492188 2348.121094 L 1773.535156 2345.078125 C 1768.136719 2337.996094 1764.761719 2329.5625 1763.40625 2320.449219 L 1759.023438 2320.449219 C 1757.335938 2320.449219 1756.324219 2319.4375 1756.324219 2317.75 Z M 1756.324219 2307.632812 " fill-opacity="1" fill-rule="nonzero"/></g><path fill="#185c99" d="M 1817.0625 2353.179688 C 1839.332031 2353.179688 1857.546875 2334.964844 1857.546875 2312.691406 C 1857.546875 2290.421875 1839.332031 2272.195312 1817.0625 2272.195312 C 1794.792969 2272.195312 1776.574219 2290.421875 1776.574219 2312.691406 C 1776.574219 2334.964844 1794.792969 2353.179688 1817.0625 2353.179688 Z M 1817.0625 2285.695312 C 1831.90625 2285.695312 1844.058594 2297.847656 1844.058594 2312.691406 C 1844.058594 2327.535156 1831.90625 2339.679688 1817.0625 2339.679688 C 1802.21875 2339.679688 1790.0625 2327.535156 1790.0625 2312.691406 C 1790.0625 2297.847656 1802.21875 2285.695312 1817.0625 2285.695312 Z M 1817.0625 2285.695312 " fill-opacity="1" fill-rule="nonzero"/><path fill="#185c99" d="M 2090.707031 2221.582031 L 2106.5625 2221.582031 C 2089.691406 2193.578125 2065.394531 2170.636719 2036.039062 2155.792969 C 2036.039062 2156.464844 2036.039062 2156.796875 2036.039062 2157.476562 C 2036.039062 2161.863281 2035.707031 2166.25 2035.035156 2170.292969 C 2057.636719 2182.78125 2076.875 2200.324219 2090.707031 2221.582031 Z M 2090.707031 2221.582031 " fill-opacity="1" fill-rule="nonzero"/><g clip-path="url(#a179f924b7)"><path fill="#185c99" d="M 2154.476562 2248.578125 L 2140.644531 2248.578125 C 2138.960938 2240.820312 2132.207031 2235.082031 2124.105469 2235.082031 L 2090.363281 2235.082031 C 2082.265625 2235.082031 2075.523438 2240.820312 2073.835938 2248.578125 L 2060.007812 2248.578125 C 2048.867188 2248.578125 2039.753906 2257.691406 2039.753906 2268.824219 L 2039.753906 2370.050781 C 2039.753906 2381.191406 2048.867188 2390.292969 2060.007812 2390.292969 L 2154.476562 2390.292969 C 2165.617188 2390.292969 2174.71875 2381.191406 2174.71875 2370.050781 L 2174.71875 2268.824219 C 2174.71875 2257.691406 2165.617188 2248.578125 2154.476562 2248.578125 Z M 2086.992188 2251.953125 C 2086.992188 2249.933594 2088.347656 2248.578125 2090.363281 2248.578125 L 2124.105469 2248.578125 C 2126.132812 2248.578125 2127.488281 2249.933594 2127.488281 2251.953125 L 2127.488281 2258.707031 C 2127.488281 2260.722656 2126.132812 2262.078125 2124.105469 2262.078125 L 2090.363281 2262.078125 C 2088.347656 2262.078125 2086.992188 2260.722656 2086.992188 2258.707031 Z M 2161.230469 2370.050781 C 2161.230469 2373.765625 2158.1875 2376.804688 2154.476562 2376.804688 L 2060.007812 2376.804688 C 2056.292969 2376.804688 2053.25 2373.765625 2053.25 2370.050781 L 2053.25 2268.824219 C 2053.25 2265.109375 2056.292969 2262.078125 2060.007812 2262.078125 L 2073.835938 2262.078125 C 2075.523438 2269.835938 2082.265625 2275.578125 2090.363281 2275.578125 L 2124.105469 2275.578125 C 2132.207031 2275.578125 2138.960938 2269.835938 2140.644531 2262.078125 L 2154.476562 2262.078125 C 2158.1875 2262.078125 2161.230469 2265.109375 2161.230469 2268.824219 Z M 2161.230469 2370.050781 " fill-opacity="1" fill-rule="nonzero"/></g><path fill="#185c99" d="M 2134.234375 2289.066406 L 2080.25 2289.066406 C 2076.535156 2289.066406 2073.496094 2292.109375 2073.496094 2295.820312 C 2073.496094 2299.535156 2076.535156 2302.566406 2080.25 2302.566406 L 2134.234375 2302.566406 C 2137.945312 2302.566406 2140.976562 2299.535156 2140.976562 2295.820312 C 2140.976562 2292.109375 2137.945312 2289.066406 2134.234375 2289.066406 Z M 2134.234375 2289.066406 " fill-opacity="1" fill-rule="nonzero"/><path fill="#185c99" d="M 2134.234375 2316.066406 L 2080.25 2316.066406 C 2076.535156 2316.066406 2073.496094 2319.105469 2073.496094 2322.808594 C 2073.496094 2326.523438 2076.535156 2329.5625 2080.25 2329.5625 L 2134.234375 2329.5625 C 2137.945312 2329.5625 2140.976562 2326.523438 2140.976562 2322.808594 C 2140.976562 2319.105469 2137.945312 2316.066406 2134.234375 2316.066406 Z M 2134.234375 2316.066406 " fill-opacity="1" fill-rule="nonzero"/><path fill="#185c99" d="M 2134.234375 2343.0625 L 2080.25 2343.0625 C 2076.535156 2343.0625 2073.496094 2346.09375 2073.496094 2349.808594 C 2073.496094 2353.519531 2076.535156 2356.550781 2080.25 2356.550781 L 2134.234375 2356.550781 C 2137.945312 2356.550781 2140.976562 2353.519531 2140.976562 2349.808594 C 2140.976562 2346.09375 2137.945312 2343.0625 2134.234375 2343.0625 Z M 2134.234375 2343.0625 " fill-opacity="1" fill-rule="nonzero"/><path fill="#185c99" d="M 1822.121094 2224.964844 C 1822.800781 2224.964844 1823.472656 2224.964844 1824.148438 2224.964844 C 1838.316406 2202.351562 1858.230469 2183.453125 1881.84375 2170.292969 C 1881.503906 2166.25 1881.171875 2161.863281 1881.171875 2157.476562 C 1881.171875 2156.796875 1881.171875 2156.464844 1881.171875 2155.792969 C 1850.804688 2171.308594 1825.5 2195.605469 1808.632812 2225.292969 C 1809.632812 2225.292969 1810.648438 2224.964844 1811.660156 2224.964844 Z M 1822.121094 2224.964844 " fill-opacity="1" fill-rule="nonzero"/><path fill="#185c99" d="M 2102.519531 2403.792969 L 2086.320312 2403.792969 C 2075.523438 2418.648438 2062.023438 2431.132812 2046.507812 2441.589844 C 2037.054688 2437.535156 2027.269531 2433.148438 2019.851562 2430.121094 C 2015.464844 2428.089844 2012.082031 2426.738281 2009.726562 2425.734375 L 2003.996094 2407.164062 C 2017.824219 2389.621094 2026.265625 2364.992188 2026.265625 2342.378906 C 2026.265625 2301.894531 1997.582031 2268.824219 1962.152344 2268.824219 C 1926.726562 2268.824219 1898.042969 2301.894531 1898.042969 2342.378906 C 1898.042969 2364.992188 1906.472656 2389.621094 1920.3125 2407.164062 L 1914.570312 2425.390625 C 1912.554688 2426.40625 1908.84375 2427.75 1904.457031 2429.777344 C 1896.015625 2433.492188 1884.542969 2438.550781 1873.746094 2442.9375 C 1855.859375 2431.464844 1840.34375 2416.949219 1828.53125 2399.40625 C 1826.503906 2399.75 1824.488281 2400.078125 1822.121094 2400.078125 L 1812.675781 2400.078125 C 1824.820312 2419.320312 1840.34375 2435.851562 1858.902344 2449.007812 C 1850.804688 2452.390625 1844.730469 2455.089844 1843.71875 2455.421875 C 1841.691406 2456.09375 1840.003906 2457.789062 1839.671875 2459.808594 L 1823.804688 2516.160156 C 1823.132812 2518.1875 1823.804688 2520.546875 1824.820312 2522.234375 C 1825.832031 2523.917969 1828.203125 2524.933594 1830.21875 2524.933594 L 2093.40625 2524.933594 C 2095.433594 2524.933594 2097.449219 2523.917969 2098.804688 2522.234375 C 2100.148438 2520.546875 2100.492188 2518.519531 2099.820312 2516.160156 L 2083.960938 2459.808594 C 2083.28125 2457.789062 2081.933594 2456.09375 2079.90625 2455.421875 C 2078.894531 2455.089844 2070.792969 2451.707031 2060.679688 2446.992188 C 2077.207031 2435.519531 2091.378906 2420.664062 2102.519531 2403.792969 Z M 1911.542969 2342.378906 C 1911.542969 2309.320312 1934.144531 2282.320312 1962.152344 2282.320312 C 1990.15625 2282.320312 2012.765625 2309.320312 2012.765625 2342.378906 C 2012.765625 2375.449219 1990.15625 2417.292969 1962.152344 2417.292969 C 1934.144531 2417.292969 1911.542969 2375.792969 1911.542969 2342.378906 Z M 2072.148438 2467.234375 L 2084.632812 2511.777344 L 1839.332031 2511.777344 L 1851.816406 2467.234375 C 1857.886719 2464.535156 1872.730469 2458.460938 1909.515625 2442.261719 C 1923.011719 2436.523438 1923.011719 2436.191406 1924.027344 2435.851562 C 1925.03125 2434.835938 1926.042969 2433.824219 1926.386719 2432.476562 L 1930.769531 2418.304688 C 1939.882812 2426.0625 1950.683594 2430.792969 1961.8125 2430.792969 C 1972.953125 2430.792969 1983.742188 2426.0625 1992.855469 2418.304688 L 1997.238281 2432.476562 C 1997.582031 2433.824219 1998.59375 2435.175781 1999.609375 2435.851562 C 2000.28125 2436.523438 2000.613281 2436.523438 2013.78125 2442.261719 C 2051.222656 2458.121094 2066.078125 2464.535156 2072.148438 2467.234375 Z M 2072.148438 2467.234375 " fill-opacity="1" fill-rule="nonzero"/><g clip-path="url(#7d3b518ad6)"><path fill="#5a3ecb" d="M 2096.789062 1688.804688 L 2096.789062 1608.710938 C 2096.789062 1602.082031 2091.449219 1596.710938 2084.800781 1596.710938 L 2023.285156 1596.710938 L 2023.285156 1589.71875 C 2023.285156 1579.777344 2015.226562 1571.71875 2005.289062 1571.71875 L 1905.285156 1571.71875 C 1905.480469 1569.453125 1905.625 1567.167969 1905.625 1564.863281 C 1905.625 1522.511719 1871.304688 1488.203125 1828.96875 1488.203125 C 1786.628906 1488.203125 1752.320312 1522.511719 1752.320312 1564.863281 C 1752.320312 1607.199219 1786.640625 1641.511719 1828.96875 1641.511719 C 1831.429688 1641.511719 1833.859375 1641.378906 1836.269531 1641.148438 L 1836.269531 1759.582031 C 1828.792969 1773.886719 1819.699219 1787.261719 1807.546875 1802.632812 C 1803.054688 1801.773438 1798.234375 1802.621094 1794.140625 1805.382812 L 1775.695312 1817.816406 C 1767.453125 1823.382812 1765.269531 1834.566406 1770.835938 1842.808594 L 1785.875 1865.113281 C 1790.46875 1871.9375 1798.898438 1874.523438 1806.34375 1872.09375 L 1823.359375 1897.332031 C 1825.210938 1900.074219 1828.9375 1900.796875 1831.6875 1898.945312 L 1853.679688 1884.125 C 1855.242188 1883.070312 1856.210938 1881.339844 1856.316406 1879.457031 C 1856.410156 1877.574219 1855.613281 1875.753906 1854.175781 1874.554688 L 1831.574219 1855.648438 C 1834.636719 1852.761719 1836.476562 1848.984375 1837.015625 1844.992188 C 1837.636719 1844.734375 1838.277344 1844.476562 1838.898438 1844.226562 C 1840.605469 1846.015625 1843.003906 1847.132812 1845.671875 1847.132812 L 2005.289062 1847.132812 C 2015.226562 1847.132812 2023.273438 1839.074219 2023.273438 1829.132812 L 2023.273438 1700.804688 L 2084.789062 1700.804688 C 2091.449219 1700.804688 2096.789062 1695.4375 2096.789062 1688.804688 Z M 1828.96875 1629.511719 C 1793.261719 1629.511719 1764.308594 1600.570312 1764.308594 1564.863281 C 1764.308594 1529.144531 1793.261719 1500.199219 1828.96875 1500.199219 C 1864.683594 1500.199219 1893.625 1529.144531 1893.625 1564.863281 C 1893.625 1600.570312 1864.683594 1629.511719 1828.96875 1629.511719 Z M 1804.152344 1860.03125 C 1801.402344 1861.882812 1797.667969 1861.160156 1795.824219 1858.410156 L 1780.773438 1836.097656 C 1778.925781 1833.355469 1779.648438 1829.621094 1782.398438 1827.78125 L 1800.851562 1815.335938 C 1803.59375 1813.484375 1807.316406 1814.207031 1809.179688 1816.949219 L 1824.21875 1839.261719 C 1826.070312 1842.011719 1825.347656 1845.738281 1822.605469 1847.589844 Z M 1840.367188 1878.640625 L 1829.949219 1885.65625 L 1816.71875 1866.023438 L 1821.46875 1862.824219 Z M 1834.449219 1833.085938 C 1834.347656 1832.910156 1834.285156 1832.722656 1834.171875 1832.558594 L 1819.121094 1810.246094 C 1818.769531 1809.71875 1818.332031 1809.292969 1817.941406 1808.820312 C 1830.085938 1793.363281 1839.332031 1779.660156 1846.984375 1764.960938 L 1848.257812 1764.960938 L 1848.257812 1762.582031 C 1851.320312 1756.527344 1854.132812 1750.1875 1856.8125 1743.503906 C 1861.613281 1758.691406 1867.332031 1771.445312 1875.046875 1782.988281 C 1883.136719 1795.070312 1893.316406 1805.621094 1906.472656 1816.226562 C 1880.65625 1818.078125 1859.441406 1823.0625 1834.449219 1833.085938 Z M 1866.617188 1718.316406 C 1869.007812 1716.703125 1872.101562 1716.910156 1874.160156 1718.710938 C 1890.832031 1733.285156 1902.480469 1745.96875 1911.625 1759.695312 C 1920.769531 1773.421875 1927.554688 1788.429688 1934.265625 1807.835938 C 1935.175781 1810.464844 1934.195312 1813.433594 1931.785156 1815.066406 C 1929.558594 1816.566406 1926.707031 1816.503906 1924.667969 1815.023438 C 1906.546875 1801.929688 1894.214844 1790.054688 1885.019531 1776.316406 C 1875.824219 1762.570312 1869.535156 1746.597656 1864.011719 1724.949219 C 1863.390625 1722.488281 1864.394531 1719.808594 1866.617188 1718.316406 Z M 2011.285156 1829.132812 C 2011.285156 1832.453125 2008.597656 1835.132812 2005.289062 1835.132812 L 1865.316406 1835.132812 C 1883.335938 1830.179688 1900.949219 1827.957031 1922.859375 1827.417969 L 1922.847656 1827.34375 C 1928.070312 1828.957031 1933.851562 1828.140625 1938.488281 1825.015625 C 1945.292969 1820.425781 1948.335938 1811.808594 1945.605469 1803.925781 C 1938.703125 1783.953125 1931.503906 1767.917969 1921.605469 1753.054688 C 1911.707031 1738.179688 1899.253906 1724.710938 1882.050781 1709.679688 C 1875.78125 1704.199219 1866.691406 1703.792969 1859.914062 1708.367188 C 1855.167969 1711.5625 1852.21875 1716.765625 1851.867188 1722.339844 C 1850.6875 1725.859375 1849.480469 1729.1875 1848.257812 1732.46875 L 1848.257812 1638.96875 C 1875.214844 1631.964844 1896.347656 1610.726562 1903.195312 1583.71875 L 2005.289062 1583.71875 C 2008.597656 1583.71875 2011.285156 1586.398438 2011.285156 1589.71875 L 2011.285156 1596.710938 L 1966.621094 1596.710938 C 1959.992188 1596.710938 1954.625 1602.089844 1954.625 1608.710938 L 1954.625 1688.804688 C 1954.625 1695.425781 1959.992188 1700.804688 1966.621094 1700.804688 L 1973.832031 1700.804688 L 1977.957031 1710.394531 C 1981.816406 1719.394531 1994.238281 1720.222656 1999.265625 1711.820312 L 2005.855469 1700.804688 L 2011.285156 1700.804688 Z M 2005.855469 1688.804688 C 2001.644531 1688.804688 1997.734375 1691.019531 1995.5625 1694.648438 L 1988.976562 1705.65625 L 1984.847656 1696.058594 C 1982.953125 1691.660156 1978.621094 1688.804688 1973.832031 1688.804688 L 1966.621094 1688.804688 L 1966.621094 1608.710938 L 2084.800781 1608.710938 L 2084.800781 1688.804688 Z M 2005.855469 1688.804688 " fill-opacity="1" fill-rule="nonzero"/></g><path fill="#5a3ecb" d="M 1989.863281 1634.488281 C 1981.640625 1634.488281 1974.992188 1641.148438 1974.992188 1649.363281 C 1974.992188 1657.585938 1981.640625 1664.25 1989.863281 1664.25 C 1998.078125 1664.25 2004.738281 1657.585938 2004.738281 1649.363281 C 2004.738281 1641.148438 1998.078125 1634.488281 1989.863281 1634.488281 Z M 1989.863281 1652.25 C 1988.273438 1652.25 1986.980469 1650.957031 1986.980469 1649.363281 C 1986.980469 1647.78125 1988.273438 1646.488281 1989.863281 1646.488281 C 1991.449219 1646.488281 1992.742188 1647.78125 1992.742188 1649.363281 C 1992.742188 1650.957031 1991.449219 1652.25 1989.863281 1652.25 Z M 1989.863281 1652.25 " fill-opacity="1" fill-rule="nonzero"/><path fill="#5a3ecb" d="M 2025.851562 1634.488281 C 2017.636719 1634.488281 2010.976562 1641.148438 2010.976562 1649.363281 C 2010.976562 1657.585938 2017.636719 1664.25 2025.851562 1664.25 C 2034.0625 1664.25 2040.726562 1657.585938 2040.726562 1649.363281 C 2040.726562 1641.148438 2034.0625 1634.488281 2025.851562 1634.488281 Z M 2025.851562 1652.25 C 2024.269531 1652.25 2022.976562 1650.957031 2022.976562 1649.363281 C 2022.976562 1647.78125 2024.269531 1646.488281 2025.851562 1646.488281 C 2027.445312 1646.488281 2028.738281 1647.78125 2028.738281 1649.363281 C 2028.738281 1650.957031 2027.445312 1652.25 2025.851562 1652.25 Z M 2025.851562 1652.25 " fill-opacity="1" fill-rule="nonzero"/><path fill="#5a3ecb" d="M 2061.847656 1634.488281 C 2053.625 1634.488281 2046.972656 1641.148438 2046.972656 1649.363281 C 2046.972656 1657.585938 2053.625 1664.25 2061.847656 1664.25 C 2070.058594 1664.25 2076.699219 1657.585938 2076.699219 1649.363281 C 2076.699219 1641.148438 2070.058594 1634.488281 2061.847656 1634.488281 Z M 2061.847656 1652.25 C 2060.253906 1652.25 2058.960938 1650.957031 2058.960938 1649.363281 C 2058.960938 1647.78125 2060.253906 1646.488281 2061.847656 1646.488281 C 2063.429688 1646.488281 2064.722656 1647.78125 2064.722656 1649.363281 C 2064.722656 1650.957031 2063.429688 1652.25 2061.847656 1652.25 Z M 2061.847656 1652.25 " fill-opacity="1" fill-rule="nonzero"/><path fill="#5a3ecb" d="M 2115.386719 1782.988281 C 2077.601562 1782.988281 2046.972656 1813.628906 2046.972656 1851.425781 C 2046.972656 1889.214844 2077.601562 1919.851562 2115.386719 1919.851562 C 2153.183594 1919.851562 2183.832031 1889.214844 2183.832031 1851.425781 C 2183.832031 1813.628906 2153.183594 1782.988281 2115.386719 1782.988281 Z M 2115.386719 1907.851562 C 2084.25 1907.851562 2058.960938 1882.59375 2058.960938 1851.425781 C 2058.960938 1820.25 2084.25 1794.988281 2115.386719 1794.988281 C 2146.582031 1794.988281 2171.832031 1820.25 2171.832031 1851.425781 C 2171.832031 1882.59375 2146.582031 1907.851562 2115.386719 1907.851562 Z M 2115.386719 1907.851562 " fill-opacity="1" fill-rule="nonzero"/><path fill="#5a3ecb" d="M 2142.023438 1841.566406 L 2111.785156 1823.28125 C 2103.875 1818.5 2093.738281 1824.066406 2093.550781 1833.304688 L 2092.835938 1868.640625 C 2092.652344 1877.875 2102.550781 1883.855469 2110.648438 1879.398438 L 2141.597656 1862.347656 C 2149.695312 1857.890625 2149.933594 1846.347656 2142.023438 1841.566406 Z M 2104.824219 1868.886719 L 2105.550781 1833.542969 L 2135.785156 1851.839844 Z M 2104.824219 1868.886719 " fill-opacity="1" fill-rule="nonzero"/><path fill="#5a3ecb" d="M 1828.96875 1564.871094 C 1842.539062 1564.871094 1853.535156 1553.867188 1853.535156 1540.304688 C 1853.535156 1526.742188 1842.539062 1515.738281 1828.96875 1515.738281 C 1815.40625 1515.738281 1804.410156 1526.734375 1804.410156 1540.304688 C 1804.410156 1553.875 1815.40625 1564.871094 1828.96875 1564.871094 Z M 1828.96875 1527.738281 C 1835.90625 1527.738281 1841.535156 1533.363281 1841.535156 1540.304688 C 1841.535156 1547.246094 1835.90625 1552.875 1828.96875 1552.875 C 1822.027344 1552.875 1816.398438 1547.246094 1816.398438 1540.304688 C 1816.398438 1533.363281 1822.027344 1527.738281 1828.96875 1527.738281 Z M 1828.96875 1527.738281 " fill-opacity="1" fill-rule="nonzero"/><path fill="#5a3ecb" d="M 1828.96875 1569.042969 C 1810.378906 1569.042969 1795.296875 1584.113281 1795.296875 1602.710938 C 1795.296875 1606.023438 1797.988281 1608.710938 1801.296875 1608.710938 L 1856.648438 1608.710938 C 1859.957031 1608.710938 1862.636719 1606.023438 1862.636719 1602.710938 C 1862.636719 1584.113281 1847.566406 1569.042969 1828.96875 1569.042969 Z M 1808.132812 1596.710938 C 1810.742188 1587.660156 1819.089844 1581.039062 1828.96875 1581.039062 C 1838.867188 1581.039062 1847.203125 1587.660156 1849.800781 1596.710938 Z M 1808.132812 1596.710938 " fill-opacity="1" fill-rule="nonzero"/><g clip-path="url(#9284f7dc6e)"><path fill="#ff8300" d="M 1636.230469 974.128906 L 1621.585938 998.25 C 1607.878906 990.398438 1594.316406 982.300781 1580.386719 974.914062 C 1577.644531 973.464844 1572.378906 973.3125 1570.0625 975.007812 C 1525.230469 1007.820312 1475.550781 1024.960938 1419.664062 1022.703125 C 1418.753906 1022.671875 1417.820312 1022.890625 1416.519531 1023.035156 C 1416.148438 1024.027344 1415.382812 1025.113281 1415.371094 1026.222656 C 1414.324219 1091.070312 1421.019531 1154.519531 1450.777344 1213.472656 C 1475.996094 1263.433594 1514.828125 1298.863281 1566.554688 1320.273438 C 1572.75 1322.839844 1578.039062 1322.828125 1584.234375 1320.160156 C 1654.09375 1290.109375 1698.078125 1237.449219 1720.089844 1165.433594 C 1720.894531 1162.785156 1721.703125 1160.125 1722.632812 1157.074219 C 1727.132812 1156.714844 1731.746094 1156.421875 1736.347656 1155.949219 C 1740.609375 1155.503906 1744.851562 1154.851562 1750.199219 1154.136719 C 1744.25 1179.203125 1735.675781 1202.1875 1724.441406 1224.21875 C 1693.515625 1284.949219 1645.519531 1326.945312 1582.710938 1352.320312 C 1578.410156 1354.058594 1572.222656 1353.976562 1567.859375 1352.289062 C 1484.34375 1319.871094 1433.015625 1258.105469 1407.074219 1173.851562 C 1389.8125 1117.808594 1385.757812 1060.046875 1386.667969 1001.777344 C 1386.675781 1000.898438 1387.019531 1000.019531 1387.277344 998.820312 C 1402.109375 998.042969 1416.882812 997.527344 1431.621094 996.453125 C 1481.53125 992.839844 1526.257812 975.089844 1566.285156 945.546875 C 1572.96875 940.613281 1577.273438 940.625 1584.089844 944.75 C 1601 954.980469 1618.511719 964.238281 1636.230469 974.128906 Z M 1636.230469 974.128906 " fill-opacity="1" fill-rule="nonzero"/></g><path fill="#ff8300" d="M 1607.257812 1134.753906 C 1606.335938 1134.691406 1605.417969 1134.660156 1604.289062 1134.597656 C 1604.226562 1133.53125 1604.15625 1132.621094 1604.132812 1131.699219 C 1603.875 1122.617188 1603.96875 1113.503906 1603.277344 1104.464844 C 1602.457031 1093.808594 1591.992188 1083.757812 1581.359375 1083.226562 C 1573.320312 1082.824219 1565.253906 1083.125 1557.203125 1083.019531 C 1545.546875 1082.875 1532.867188 1093.851562 1532.886719 1108.136719 C 1532.898438 1113.101562 1532.742188 1118.078125 1532.699219 1123.054688 C 1532.660156 1126.878906 1532.691406 1130.699219 1532.691406 1134.503906 C 1530.269531 1134.753906 1528.46875 1134.835938 1526.710938 1135.113281 C 1522.128906 1135.859375 1516.882812 1141.082031 1516.855469 1145.398438 C 1516.738281 1164.171875 1516.730469 1182.9375 1516.824219 1201.710938 C 1516.855469 1206.953125 1522.605469 1212.273438 1527.878906 1212.28125 C 1554.710938 1212.332031 1581.542969 1212.324219 1608.375 1212.273438 C 1614.386719 1212.261719 1619.765625 1207.121094 1619.824219 1201.058594 C 1619.992188 1183.226562 1620.023438 1165.402344 1619.886719 1147.570312 C 1619.835938 1140.140625 1614.726562 1135.269531 1607.257812 1134.753906 Z M 1576.101562 1170.171875 C 1574.230469 1172.085938 1573.671875 1174.007812 1573.714844 1176.542969 C 1573.796875 1181.589844 1573.722656 1186.648438 1573.496094 1191.707031 C 1573.363281 1194.8125 1572.617188 1195.316406 1569.484375 1195.390625 C 1563.378906 1195.515625 1563.070312 1195.234375 1562.964844 1189.183594 C 1562.925781 1186.960938 1562.957031 1184.726562 1562.957031 1182.5 L 1562.894531 1182.5 C 1562.894531 1181.042969 1562.851562 1179.585938 1562.902344 1178.125 C 1563.007812 1174.96875 1562.800781 1172.3125 1560.140625 1169.652344 C 1555.890625 1165.402344 1556.792969 1158.742188 1561.300781 1154.757812 C 1565.5 1151.054688 1571.953125 1151.304688 1576.03125 1155.304688 C 1580.011719 1159.214844 1580.21875 1165.972656 1576.101562 1170.171875 Z M 1586.558594 1134.554688 L 1549.570312 1134.554688 C 1549.890625 1125.144531 1550.003906 1115.90625 1550.625 1106.710938 C 1550.894531 1102.726562 1553.6875 1100.390625 1557.773438 1100.316406 C 1565.136719 1100.191406 1572.511719 1100.347656 1579.867188 1100.617188 C 1583.09375 1100.730469 1585.351562 1102.839844 1585.878906 1106.007812 C 1586.332031 1108.777344 1586.488281 1111.625 1586.539062 1114.4375 C 1586.621094 1121.035156 1586.558594 1127.625 1586.558594 1134.554688 Z M 1586.558594 1134.554688 " fill-opacity="1" fill-rule="nonzero"/><g clip-path="url(#7f7cd3f6b1)"><path fill="#ff8300" d="M 1709.921875 966.816406 C 1665.101562 966.816406 1628.773438 1003.15625 1628.773438 1047.964844 C 1628.773438 1092.785156 1665.101562 1129.113281 1709.921875 1129.113281 C 1754.730469 1129.113281 1791.058594 1092.785156 1791.058594 1047.964844 C 1791.058594 1003.15625 1754.730469 966.816406 1709.921875 966.816406 Z M 1756.550781 1027.492188 C 1755.917969 1028.332031 1755.164062 1029.078125 1754.417969 1029.820312 C 1737.960938 1046.289062 1721.496094 1062.757812 1705.015625 1079.226562 C 1699.234375 1085.007812 1694.445312 1085.027344 1688.695312 1079.289062 C 1680.542969 1071.144531 1672.402344 1063.003906 1664.273438 1054.863281 C 1661.5625 1052.15625 1660.601562 1048.90625 1661.667969 1045.214844 C 1662.699219 1041.601562 1665.234375 1039.410156 1668.867188 1038.644531 C 1672.457031 1037.890625 1675.394531 1039.265625 1677.90625 1041.78125 C 1683.480469 1047.375 1689.078125 1052.972656 1694.695312 1058.546875 C 1695.367188 1059.21875 1696.070312 1059.859375 1697.21875 1060.957031 C 1697.871094 1060.066406 1698.347656 1059.1875 1699.019531 1058.515625 C 1713.167969 1044.335938 1727.328125 1030.164062 1741.5 1015.992188 C 1743.484375 1014.003906 1745.636719 1012.464844 1748.566406 1012.359375 C 1752.535156 1012.226562 1755.609375 1013.808594 1757.441406 1017.347656 C 1759.261719 1020.863281 1758.929688 1024.308594 1756.550781 1027.492188 Z M 1756.550781 1027.492188 " fill-opacity="1" fill-rule="nonzero"/></g><g clip-path="url(#ed19677f4f)"><path fill="#545454" d="M 586.015625 1305.132812 L 925.65625 1305.132812 L 925.65625 1319.1875 L 586.015625 1319.1875 Z M 586.015625 1305.132812 " fill-opacity="1" fill-rule="nonzero"/></g><g clip-path="url(#ecdbfc6aa8)"><path fill="#545454" d="M 755.945312 1043.320312 C 784.265625 1043.320312 807.175781 1020.398438 807.175781 992.074219 C 807.175781 963.753906 784.265625 940.839844 755.945312 940.839844 C 727.621094 940.839844 704.699219 963.753906 704.699219 992.074219 C 704.699219 1020.179688 727.621094 1043.320312 755.945312 1043.320312 Z M 755.945312 954.886719 C 776.476562 954.886719 793.128906 971.542969 793.128906 992.074219 C 793.128906 1012.621094 776.476562 1029.261719 755.945312 1029.261719 C 735.402344 1029.261719 718.757812 1012.621094 718.757812 992.074219 C 718.757812 971.542969 735.402344 954.886719 755.945312 954.886719 Z M 755.945312 954.886719 " fill-opacity="1" fill-rule="nonzero"/></g><path fill="#545454" d="M 723.082031 1065.582031 L 708.601562 1249.996094 L 704.917969 1249.996094 C 688.492188 1249.996094 675.085938 1262.761719 674 1278.96875 L 645.039062 1278.96875 L 645.039062 1293.027344 L 867.285156 1293.667969 L 867.285156 1279.621094 L 838.3125 1279.621094 C 837.441406 1263.183594 823.832031 1250.214844 807.394531 1250.214844 L 803.722656 1250.214844 L 789.023438 1065.363281 C 809.992188 1057.800781 820.800781 1043.960938 825.125 1037.042969 L 974.292969 1037.042969 L 974.292969 1022.996094 L 816.257812 1022.996094 L 814.3125 1027.316406 C 814.097656 1027.535156 801.125 1056.933594 756.378906 1056.933594 C 756.160156 1056.933594 755.945312 1056.933594 755.726562 1056.933594 C 710.109375 1056.933594 698.433594 1028.828125 698 1027.753906 L 696.269531 1023.210938 L 538.019531 1023.210938 L 538.019531 1037.257812 L 686.972656 1037.257812 C 691.089844 1044.394531 701.679688 1058.238281 723.082031 1065.582031 Z M 806.960938 1264.273438 C 815.605469 1264.273438 822.746094 1270.976562 823.613281 1279.40625 L 688.273438 1278.96875 C 689.351562 1270.539062 696.269531 1264.054688 704.917969 1264.054688 L 806.960938 1264.054688 Z M 755.507812 1070.992188 C 755.726562 1070.992188 755.945312 1070.992188 756.160156 1070.992188 C 763.070312 1070.992188 769.132812 1070.339844 774.75 1069.265625 L 789.023438 1250.214844 L 722.648438 1250.214844 L 736.921875 1069.265625 C 742.753906 1070.121094 748.808594 1070.992188 755.507812 1070.992188 Z M 755.507812 1070.992188 " fill-opacity="1" fill-rule="nonzero"/><g clip-path="url(#3fa85bbe03)"><path fill="#545454" d="M 618.878906 1183.195312 L 618.878906 1176.058594 L 595.53125 1176.058594 L 571.960938 1057.800781 L 687.625 1057.800781 L 687.625 1043.746094 L 537.804688 1043.746094 L 537.804688 1057.800781 L 554.664062 1057.800781 L 531.101562 1176.058594 L 507.753906 1176.058594 L 507.753906 1183.195312 C 507.753906 1213.894531 532.613281 1238.761719 563.3125 1238.761719 C 594.011719 1238.761719 618.878906 1213.679688 618.878906 1183.195312 Z M 563.527344 1086.777344 L 581.257812 1176.058594 L 545.800781 1176.058594 Z M 563.527344 1224.488281 C 542.996094 1224.488281 526.125 1209.570312 522.671875 1190.113281 L 604.386719 1190.113281 C 600.933594 1209.789062 583.855469 1224.488281 563.527344 1224.488281 Z M 563.527344 1224.488281 " fill-opacity="1" fill-rule="nonzero"/></g><g clip-path="url(#8680480a3d)"><path fill="#545454" d="M 980.558594 1176.058594 L 956.996094 1057.800781 L 973.867188 1057.800781 L 973.867188 1043.746094 L 824.039062 1043.746094 L 824.039062 1057.800781 L 939.703125 1057.800781 L 916.136719 1176.058594 L 892.792969 1176.058594 L 892.792969 1183.195312 C 892.792969 1213.894531 917.648438 1238.761719 948.347656 1238.761719 C 979.050781 1238.761719 1003.914062 1213.894531 1003.914062 1183.195312 L 1003.914062 1176.058594 Z M 948.347656 1086.777344 L 966.078125 1176.058594 L 930.621094 1176.058594 Z M 948.347656 1224.488281 C 927.816406 1224.488281 910.945312 1209.570312 907.492188 1190.113281 L 989.207031 1190.113281 C 985.96875 1209.789062 968.890625 1224.488281 948.347656 1224.488281 Z M 948.347656 1224.488281 " fill-opacity="1" fill-rule="nonzero"/></g><path fill="#0e7658" d="M 385.367188 1836.871094 C 376.75 1836.871094 366.078125 1835.011719 352.941406 1831.214844 C 335.976562 1826.3125 311.203125 1826.515625 301.335938 1826.828125 C 298.789062 1826.898438 296.636719 1824.902344 296.554688 1822.347656 C 296.472656 1819.792969 298.480469 1817.664062 301.035156 1817.582031 C 313.828125 1817.167969 337.929688 1817.25 355.515625 1822.328125 C 374.589844 1827.832031 398.195312 1831.824219 402.371094 1819.554688 C 407.046875 1805.789062 380.765625 1790.066406 371.1875 1786.195312 C 363.675781 1783.15625 355.949219 1783.125 347.769531 1783.082031 C 333.203125 1783.011719 316.683594 1782.925781 298.933594 1765.476562 C 286.203125 1752.960938 269.816406 1747.820312 253.980469 1751.378906 C 248.714844 1752.566406 244.402344 1754.035156 240.222656 1755.453125 C 232.910156 1757.957031 225.328125 1760.542969 213.371094 1761.195312 C 210.796875 1761.316406 208.632812 1759.375 208.5 1756.820312 C 208.363281 1754.261719 210.320312 1752.089844 212.863281 1751.945312 C 223.558594 1751.378906 229.902344 1749.207031 237.246094 1746.703125 C 241.652344 1745.203125 246.191406 1743.652344 251.953125 1742.359375 C 270.902344 1738.09375 290.390625 1744.117188 305.421875 1758.878906 C 320.492188 1773.691406 333.773438 1773.761719 347.820312 1773.824219 C 356.507812 1773.875 365.496094 1773.917969 374.652344 1777.609375 C 386.453125 1782.378906 418.476562 1800.863281 411.132812 1822.535156 C 409.21875 1828.152344 404.164062 1835.144531 390.878906 1836.59375 C 389.144531 1836.777344 387.3125 1836.871094 385.367188 1836.871094 Z M 385.367188 1836.871094 " fill-opacity="1" fill-rule="evenodd"/><path fill="#0e7658" d="M 338.613281 1899.433594 C 333.855469 1899.433594 329.605469 1898.875 326.054688 1897.613281 C 296.691406 1887.226562 221.160156 1879.136719 212.648438 1878.25 C 210.101562 1877.980469 208.261719 1875.714844 208.519531 1873.167969 C 208.789062 1870.625 211.0625 1868.785156 213.597656 1869.042969 C 222.226562 1869.941406 298.78125 1878.144531 329.140625 1888.894531 C 339.070312 1892.398438 359.996094 1888.789062 385.121094 1879.230469 C 406.695312 1871.007812 427.859375 1859.691406 435.429688 1852.324219 L 530.996094 1759.332031 C 536.695312 1753.789062 538.125 1747.519531 534.640625 1743.351562 C 530.179688 1738.011719 518.71875 1737.566406 505.449219 1747.054688 L 409.632812 1815.542969 C 407.566406 1817.03125 404.667969 1816.546875 403.191406 1814.464844 C 401.699219 1812.386719 402.175781 1809.5 404.253906 1808.011719 L 500.058594 1739.523438 C 518.75 1726.167969 534.773438 1729.074219 541.746094 1737.421875 C 547.339844 1744.105469 548.179688 1755.527344 537.453125 1765.960938 L 441.894531 1858.945312 C 428.003906 1872.457031 371.414062 1899.445312 338.613281 1899.433594 Z M 338.613281 1899.433594 " fill-opacity="1" fill-rule="evenodd"/><g clip-path="url(#2be34f9fd2)"><path fill="#0e7658" d="M 131.261719 1899.816406 L 208.488281 1899.816406 L 208.488281 1734.640625 L 131.261719 1734.640625 Z M 213.121094 1909.0625 L 126.628906 1909.0625 C 124.074219 1909.0625 122.003906 1906.996094 122.003906 1904.441406 L 122.003906 1730.015625 C 122.003906 1727.460938 124.074219 1725.394531 126.628906 1725.394531 L 213.121094 1725.394531 C 215.675781 1725.394531 217.746094 1727.460938 217.746094 1730.015625 L 217.746094 1904.441406 C 217.746094 1906.996094 215.675781 1909.0625 213.121094 1909.0625 Z M 213.121094 1909.0625 " fill-opacity="1" fill-rule="evenodd"/></g><g clip-path="url(#b44a3a4a69)"><path fill="#0e7658" d="M 377.132812 1494.542969 C 364.886719 1494.542969 351.71875 1503.519531 351.71875 1523.238281 C 351.730469 1538.785156 363.054688 1557.570312 377.125 1557.570312 C 391.210938 1557.570312 402.539062 1538.785156 402.539062 1523.238281 C 402.546875 1503.519531 389.371094 1494.542969 377.132812 1494.542969 Z M 377.132812 1566.816406 C 357.292969 1566.816406 342.472656 1543.8125 342.472656 1523.238281 C 342.472656 1498.316406 359.902344 1485.285156 377.125 1485.285156 C 394.367188 1485.285156 411.796875 1498.316406 411.796875 1523.238281 C 411.796875 1543.8125 396.972656 1566.816406 377.132812 1566.816406 Z M 377.132812 1566.816406 " fill-opacity="1" fill-rule="evenodd"/></g><path fill="#0e7658" d="M 321.402344 1650.832031 L 432.867188 1650.832031 L 432.867188 1606.527344 C 432.867188 1595.046875 423.515625 1585.707031 412.035156 1585.707031 L 342.234375 1585.707031 C 330.742188 1585.707031 321.402344 1595.046875 321.402344 1606.527344 Z M 437.488281 1660.082031 L 316.777344 1660.082031 C 314.222656 1660.082031 312.152344 1658.011719 312.152344 1655.457031 L 312.152344 1606.527344 C 312.152344 1589.945312 325.640625 1576.449219 342.234375 1576.449219 L 412.035156 1576.449219 C 428.625 1576.449219 442.113281 1589.945312 442.113281 1606.527344 L 442.113281 1655.457031 C 442.113281 1658.011719 440.042969 1660.082031 437.488281 1660.082031 Z M 437.488281 1660.082031 " fill-opacity="1" fill-rule="evenodd"/><path fill="#0e7658" d="M 348.710938 1660.082031 C 346.152344 1660.082031 344.085938 1658.011719 344.085938 1655.457031 L 344.085938 1627.011719 C 344.085938 1624.445312 346.152344 1622.375 348.710938 1622.375 C 351.265625 1622.375 353.332031 1624.453125 353.332031 1627.011719 L 353.332031 1655.457031 C 353.332031 1658.011719 351.265625 1660.082031 348.710938 1660.082031 Z M 348.710938 1660.082031 " fill-opacity="1" fill-rule="evenodd"/><path fill="#0e7658" d="M 405.558594 1660.082031 C 403.003906 1660.082031 400.933594 1658.011719 400.933594 1655.457031 L 400.933594 1627.011719 C 400.933594 1624.445312 403.003906 1622.375 405.558594 1622.375 C 408.113281 1622.375 410.183594 1624.453125 410.183594 1627.011719 L 410.183594 1655.457031 C 410.183594 1658.011719 408.113281 1660.082031 405.558594 1660.082031 Z M 405.558594 1660.082031 " fill-opacity="1" fill-rule="evenodd"/><path fill="#0e7658" d="M 274.78125 1564.5625 C 264.5 1564.5625 253.433594 1572.132812 253.433594 1588.757812 C 253.433594 1601.914062 262.949219 1617.824219 274.78125 1617.824219 C 286.605469 1617.824219 296.121094 1601.914062 296.121094 1588.757812 C 296.121094 1572.132812 285.0625 1564.5625 274.78125 1564.5625 Z M 274.78125 1627.070312 C 257.269531 1627.070312 244.175781 1606.839844 244.175781 1588.757812 C 244.183594 1566.796875 259.566406 1555.316406 274.78125 1555.316406 C 289.988281 1555.304688 305.378906 1566.796875 305.378906 1588.757812 C 305.378906 1606.839844 292.304688 1627.070312 274.78125 1627.070312 Z M 274.78125 1627.070312 " fill-opacity="1" fill-rule="evenodd"/><path fill="#0e7658" d="M 326.976562 1707.726562 L 222.585938 1707.726562 C 220.03125 1707.726562 217.964844 1705.65625 217.964844 1703.101562 L 217.964844 1660.785156 C 217.964844 1646.09375 229.910156 1634.148438 244.589844 1634.148438 L 304.964844 1634.148438 C 310.042969 1634.148438 315 1635.59375 319.269531 1638.347656 C 321.421875 1639.722656 322.054688 1642.589844 320.667969 1644.738281 C 319.292969 1646.882812 316.425781 1647.511719 314.285156 1646.136719 C 311.492188 1644.347656 308.265625 1643.40625 304.964844 1643.40625 L 244.597656 1643.394531 C 235.011719 1643.394531 227.210938 1651.195312 227.210938 1660.785156 L 227.210938 1698.46875 L 322.351562 1698.46875 L 322.351562 1660.785156 C 322.351562 1659.367188 322.175781 1657.949219 321.824219 1656.582031 C 321.214844 1654.101562 322.714844 1651.585938 325.1875 1650.96875 C 327.667969 1650.347656 330.183594 1651.855469 330.804688 1654.328125 C 331.332031 1656.429688 331.601562 1658.601562 331.601562 1660.785156 L 331.601562 1703.101562 C 331.601562 1705.65625 329.53125 1707.726562 326.976562 1707.726562 Z M 326.976562 1707.726562 " fill-opacity="1" fill-rule="evenodd"/><path fill="#0e7658" d="M 248.851562 1707.726562 C 246.296875 1707.726562 244.226562 1705.65625 244.226562 1703.101562 L 244.226562 1677.136719 C 244.226562 1674.59375 246.296875 1672.515625 248.851562 1672.515625 C 251.40625 1672.515625 253.484375 1674.59375 253.484375 1677.148438 L 253.484375 1703.101562 C 253.484375 1705.65625 251.40625 1707.726562 248.851562 1707.726562 Z M 248.851562 1707.726562 " fill-opacity="1" fill-rule="evenodd"/><path fill="#0e7658" d="M 300.703125 1707.726562 C 298.148438 1707.726562 296.078125 1705.65625 296.078125 1703.101562 L 296.078125 1677.136719 C 296.078125 1674.59375 298.148438 1672.515625 300.703125 1672.515625 C 303.269531 1672.515625 305.328125 1674.59375 305.328125 1677.148438 L 305.328125 1703.101562 C 305.328125 1705.65625 303.269531 1707.726562 300.703125 1707.726562 Z M 300.703125 1707.726562 " fill-opacity="1" fill-rule="evenodd"/><path fill="#0e7658" d="M 479.484375 1564.5625 C 469.203125 1564.5625 458.136719 1572.132812 458.136719 1588.757812 C 458.136719 1601.914062 467.652344 1617.824219 479.484375 1617.824219 C 491.320312 1617.824219 500.835938 1601.914062 500.835938 1588.757812 C 500.835938 1572.132812 489.765625 1564.5625 479.484375 1564.5625 Z M 479.484375 1627.070312 C 461.964844 1627.070312 448.878906 1606.839844 448.878906 1588.757812 C 448.878906 1566.796875 464.28125 1555.316406 479.484375 1555.316406 C 494.691406 1555.316406 510.082031 1566.796875 510.082031 1588.757812 C 510.082031 1606.839844 496.996094 1627.070312 479.484375 1627.070312 Z M 479.484375 1627.070312 " fill-opacity="1" fill-rule="evenodd"/><path fill="#0e7658" d="M 531.679688 1707.726562 L 427.289062 1707.726562 C 424.734375 1707.726562 422.667969 1705.65625 422.667969 1703.101562 L 422.667969 1660.785156 C 422.667969 1658.601562 422.9375 1656.429688 423.464844 1654.328125 C 424.085938 1651.855469 426.597656 1650.347656 429.070312 1650.96875 C 431.550781 1651.597656 433.050781 1654.113281 432.441406 1656.582031 C 432.089844 1657.949219 431.914062 1659.367188 431.914062 1660.785156 L 431.914062 1698.46875 L 527.046875 1698.46875 L 527.046875 1660.785156 C 527.046875 1651.195312 519.246094 1643.40625 509.660156 1643.40625 L 449.300781 1643.394531 C 446.003906 1643.394531 442.765625 1644.347656 439.984375 1646.136719 C 437.820312 1647.511719 434.964844 1646.882812 433.578125 1644.738281 C 432.203125 1642.589844 432.835938 1639.722656 434.988281 1638.347656 C 439.269531 1635.59375 444.222656 1634.148438 449.300781 1634.148438 L 509.667969 1634.148438 C 524.347656 1634.148438 536.304688 1646.09375 536.304688 1660.785156 L 536.304688 1703.101562 C 536.304688 1704.320312 535.816406 1705.5 534.949219 1706.371094 C 534.082031 1707.238281 532.910156 1707.726562 531.679688 1707.726562 Z M 531.679688 1707.726562 " fill-opacity="1" fill-rule="evenodd"/><path fill="#0e7658" d="M 505.417969 1707.726562 C 502.863281 1707.726562 500.785156 1705.65625 500.785156 1703.101562 L 500.785156 1677.136719 C 500.785156 1674.59375 502.863281 1672.515625 505.417969 1672.515625 C 507.972656 1672.515625 510.042969 1674.59375 510.042969 1677.148438 L 510.042969 1703.101562 C 510.042969 1705.65625 507.960938 1707.726562 505.417969 1707.726562 Z M 505.417969 1707.726562 " fill-opacity="1" fill-rule="evenodd"/><path fill="#0e7658" d="M 453.554688 1707.726562 C 451 1707.726562 448.929688 1705.65625 448.929688 1703.101562 L 448.929688 1677.136719 C 448.929688 1674.59375 451 1672.515625 453.554688 1672.515625 C 456.109375 1672.515625 458.175781 1674.59375 458.175781 1677.148438 L 458.175781 1703.101562 C 458.175781 1705.65625 456.109375 1707.726562 453.554688 1707.726562 Z M 453.554688 1707.726562 " fill-opacity="1" fill-rule="evenodd"/><path fill="#c45b52" d="M 1408.9375 2060.699219 L 1172.1875 2099.386719 C 1172.1875 2099.386719 952.972656 2178.414062 875.933594 2058.710938 C 779.382812 1908.597656 884.527344 1798.484375 936.773438 1749.878906 C 981.078125 1708.554688 981.078125 1634.148438 981.40625 1625.550781 C 981.40625 1510.8125 1000.914062 1442.035156 1065.058594 1404.339844 C 1135.15625 1363.007812 1192.691406 1371.601562 1192.691406 1371.601562 C 1192.691406 1371.601562 1272.378906 1368.300781 1318.667969 1440.710938 C 1350.082031 1489.980469 1358.34375 1556.441406 1364.625 1625.550781 C 1375.207031 1743.929688 1485.976562 1763.109375 1488.285156 1882.800781 C 1490.933594 2004.820312 1408.9375 2060.699219 1408.9375 2060.699219 Z M 1408.9375 2060.699219 L 1172.1875 2099.386719 C 1172.1875 2099.386719 952.972656 2178.414062 875.933594 2058.710938 C 779.382812 1908.597656 884.527344 1798.484375 936.773438 1749.878906 C 981.078125 1708.554688 981.078125 1634.148438 981.40625 1625.550781 C 981.40625 1510.8125 1000.914062 1442.035156 1065.058594 1404.339844 C 1135.15625 1363.007812 1192.691406 1371.601562 1192.691406 1371.601562 C 1192.691406 1371.601562 1272.378906 1368.300781 1318.667969 1440.710938 C 1350.082031 1489.980469 1358.34375 1556.441406 1364.625 1625.550781 C 1375.207031 1743.929688 1485.976562 1763.109375 1488.285156 1882.800781 C 1490.933594 2004.820312 1408.9375 2060.699219 1408.9375 2060.699219 Z M 1408.9375 2060.699219 " fill-opacity="1" fill-rule="nonzero"/><path fill="#0e7658" d="M 1161.9375 1872.558594 C 1245.917969 1895.699219 1318.667969 1842.136719 1318.667969 1842.136719 C 1318.667969 1842.136719 1413.230469 1877.515625 1434.0625 1909.261719 C 1468.445312 1962.160156 1520.027344 2276.621094 1424.472656 2327.207031 C 1337.511719 2373.175781 1183.761719 2310.675781 1112.671875 2279.921875 C 1059.441406 2345.402344 991.988281 2392.683594 899.070312 2339.113281 C 794.257812 2278.265625 868 1945.628906 890.144531 1910.914062 C 926.523438 1854.03125 1024.054688 1842.46875 1024.054688 1842.46875 C 1024.054688 1842.46875 1077.625 1849.410156 1161.9375 1872.558594 Z M 1161.9375 1872.558594 C 1245.917969 1895.699219 1318.667969 1842.136719 1318.667969 1842.136719 C 1318.667969 1842.136719 1413.230469 1877.515625 1434.0625 1909.261719 C 1468.445312 1962.160156 1520.027344 2276.621094 1424.472656 2327.207031 C 1337.511719 2373.175781 1183.761719 2310.675781 1112.671875 2279.921875 C 1059.441406 2345.402344 991.988281 2392.683594 899.070312 2339.113281 C 794.257812 2278.265625 868 1945.628906 890.144531 1910.914062 C 926.523438 1854.03125 1024.054688 1842.46875 1024.054688 1842.46875 C 1024.054688 1842.46875 1077.625 1849.410156 1161.9375 1872.558594 Z M 1161.9375 1872.558594 " fill-opacity="1" fill-rule="nonzero"/><path fill="#feac7c" d="M 1291.226562 1833.542969 C 1306.097656 1838.496094 1318.667969 1842.136719 1318.667969 1842.136719 C 1318.667969 1842.136719 1300.480469 1910.914062 1221.125 1932.398438 C 1162.929688 1900.996094 1111.347656 1889.421875 1111.347656 1889.421875 L 1092.5 1920.835938 C 1036.292969 1893.382812 1024.386719 1842.136719 1024.386719 1842.136719 C 1024.386719 1842.136719 1087.214844 1823.953125 1102.089844 1811.382812 C 1115.316406 1800.140625 1112.339844 1738.964844 1111.675781 1726.074219 C 1073.984375 1709.867188 1056.132812 1678.460938 1047.867188 1650.027344 C 1027.035156 1651.671875 1009.84375 1614.636719 1019.429688 1597.777344 C 1029.683594 1579.59375 1040.925781 1591.828125 1040.925781 1591.828125 C 1096.472656 1605.710938 1183.433594 1523.714844 1210.542969 1454.933594 C 1211.207031 1453.609375 1212.859375 1453.941406 1213.191406 1455.265625 C 1222.449219 1500.894531 1265.425781 1567.023438 1300.480469 1591.828125 C 1300.480469 1591.828125 1311.726562 1579.59375 1321.976562 1597.777344 C 1332.226562 1615.960938 1311.726562 1658.289062 1288.246094 1648.703125 C 1288.246094 1647.707031 1288.246094 1646.714844 1288.578125 1645.722656 C 1277.332031 1680.769531 1259.480469 1708.222656 1231.042969 1723.757812 L 1231.707031 1723.757812 C 1231.707031 1723.757812 1231.375 1730.699219 1231.042969 1740.289062 C 1236.332031 1740.621094 1249.890625 1742.605469 1252.871094 1755.175781 C 1269.066406 1755.835938 1276.007812 1766.738281 1275.015625 1773.359375 C 1285.929688 1772.695312 1291.886719 1797.824219 1285.265625 1803.449219 C 1295.1875 1802.457031 1294.523438 1822.960938 1291.226562 1833.542969 Z M 1291.226562 1833.542969 C 1306.097656 1838.496094 1318.667969 1842.136719 1318.667969 1842.136719 C 1318.667969 1842.136719 1300.480469 1910.914062 1221.125 1932.398438 C 1162.929688 1900.996094 1111.347656 1889.421875 1111.347656 1889.421875 L 1092.5 1920.835938 C 1036.292969 1893.382812 1024.386719 1842.136719 1024.386719 1842.136719 C 1024.386719 1842.136719 1087.214844 1823.953125 1102.089844 1811.382812 C 1115.316406 1800.140625 1112.339844 1738.964844 1111.675781 1726.074219 C 1073.984375 1709.867188 1056.132812 1678.460938 1047.867188 1650.027344 C 1027.035156 1651.671875 1009.84375 1614.636719 1019.429688 1597.777344 C 1029.683594 1579.59375 1040.925781 1591.828125 1040.925781 1591.828125 C 1096.472656 1605.710938 1183.433594 1523.714844 1210.542969 1454.933594 C 1211.207031 1453.609375 1212.859375 1453.941406 1213.191406 1455.265625 C 1222.449219 1500.894531 1265.425781 1567.023438 1300.480469 1591.828125 C 1300.480469 1591.828125 1311.726562 1579.59375 1321.976562 1597.777344 C 1332.226562 1615.960938 1311.726562 1658.289062 1288.246094 1648.703125 C 1288.246094 1647.707031 1288.246094 1646.714844 1288.578125 1645.722656 C 1277.332031 1680.769531 1259.480469 1708.222656 1231.042969 1723.757812 L 1231.707031 1723.757812 C 1231.707031 1723.757812 1231.375 1730.699219 1231.042969 1740.289062 C 1236.332031 1740.621094 1249.890625 1742.605469 1252.871094 1755.175781 C 1269.066406 1755.835938 1276.007812 1766.738281 1275.015625 1773.359375 C 1285.929688 1772.695312 1291.886719 1797.824219 1285.265625 1803.449219 C 1295.1875 1802.457031 1294.523438 1822.960938 1291.226562 1833.542969 Z M 1291.226562 1833.542969 " fill-opacity="1" fill-rule="nonzero"/><path fill="#000000" d="M 1120.273438 1592.824219 C 1120.273438 1585.539062 1124.246094 1579.261719 1128.878906 1579.261719 C 1133.503906 1579.261719 1137.476562 1585.210938 1137.476562 1592.824219 C 1137.476562 1600.09375 1133.503906 1606.375 1128.878906 1606.375 C 1124.246094 1606.375 1120.273438 1600.425781 1120.273438 1592.824219 Z M 1216.5 1606.375 C 1221.457031 1606.375 1225.097656 1600.425781 1225.097656 1592.824219 C 1225.097656 1585.539062 1221.125 1579.261719 1216.5 1579.261719 C 1211.867188 1579.261719 1207.894531 1585.210938 1207.894531 1592.824219 C 1207.5625 1600.425781 1211.535156 1606.375 1216.5 1606.375 Z M 1171.855469 1636.132812 C 1172.851562 1610.34375 1173.179688 1584.214844 1172.519531 1558.429688 C 1172.519531 1555.117188 1167.566406 1555.117188 1167.566406 1558.429688 C 1168.226562 1584.214844 1168.226562 1610.34375 1166.902344 1636.132812 C 1166.570312 1639.113281 1171.527344 1639.113281 1171.855469 1636.132812 Z M 1144.746094 1663.246094 C 1150.363281 1663.90625 1155.660156 1665.230469 1160.28125 1668.542969 C 1164.917969 1671.839844 1168.226562 1676.476562 1171.855469 1680.769531 C 1172.851562 1681.761719 1174.503906 1681.761719 1175.5 1680.769531 C 1176.492188 1679.773438 1176.492188 1678.460938 1175.5 1677.136719 C 1171.527344 1672.171875 1167.894531 1667.21875 1162.601562 1663.90625 C 1157.3125 1660.277344 1151.355469 1658.621094 1145.078125 1657.960938 C 1143.753906 1657.960938 1142.429688 1659.285156 1142.429688 1660.597656 C 1142.097656 1662.253906 1143.421875 1663.246094 1144.746094 1663.246094 Z M 1158.636719 1746.578125 C 1176.160156 1748.882812 1193.683594 1745.585938 1210.210938 1739.625 C 1218.144531 1736.65625 1226.089844 1733.347656 1233.03125 1728.050781 C 1235.679688 1726.074219 1233.03125 1721.773438 1230.382812 1723.757812 C 1224.765625 1728.050781 1218.144531 1731.03125 1211.535156 1733.679688 C 1203.601562 1736.65625 1195.335938 1739.296875 1187.074219 1740.621094 C 1170.203125 1743.597656 1153.34375 1741.613281 1137.144531 1736.65625 C 1129.210938 1734.339844 1120.933594 1731.363281 1113.996094 1726.40625 C 1111.347656 1724.75 1108.707031 1729.042969 1111.347656 1730.699219 C 1117.636719 1735.003906 1124.90625 1737.972656 1131.847656 1740.289062 C 1140.773438 1743.597656 1149.699219 1745.585938 1158.636719 1746.578125 Z M 1116.640625 1885.777344 C 1125.238281 1859 1133.503906 1832.21875 1142.097656 1805.425781 C 1144.085938 1798.816406 1146.070312 1792.207031 1148.386719 1785.597656 C 1150.03125 1779.96875 1152.019531 1774.683594 1155.328125 1769.71875 C 1161.9375 1760.128906 1173.511719 1757.148438 1184.09375 1755.175781 C 1199.628906 1751.863281 1215.175781 1748.554688 1230.714844 1745.585938 C 1233.691406 1744.921875 1232.367188 1740.289062 1229.390625 1740.949219 C 1215.175781 1743.929688 1200.953125 1746.910156 1186.742188 1749.878906 C 1175.5 1752.195312 1163.261719 1754.179688 1154.996094 1762.777344 C 1146.402344 1771.703125 1143.753906 1784.933594 1140.113281 1796.5 C 1135.820312 1810.390625 1131.515625 1824.28125 1126.894531 1838.164062 C 1121.929688 1853.703125 1116.972656 1869.25 1112.339844 1884.785156 C 1110.683594 1887.765625 1115.648438 1889.089844 1116.640625 1885.777344 Z M 1204.925781 1771.042969 C 1220.132812 1763.769531 1236.660156 1759.464844 1253.53125 1758.144531 C 1256.832031 1757.8125 1256.832031 1752.855469 1253.53125 1753.1875 C 1235.679688 1754.511719 1218.476562 1759.136719 1202.277344 1766.738281 C 1199.628906 1768.0625 1202.277344 1772.367188 1204.925781 1771.042969 Z M 1273.703125 1771.703125 C 1255.1875 1772.367188 1236.660156 1775.015625 1218.476562 1779.308594 C 1215.507812 1779.96875 1216.820312 1784.933594 1219.800781 1783.941406 C 1237.324219 1779.636719 1255.507812 1776.988281 1273.703125 1776.660156 C 1276.671875 1776.660156 1276.671875 1771.703125 1273.703125 1771.703125 Z M 1233.03125 1798.484375 C 1229.71875 1798.816406 1229.71875 1803.78125 1233.03125 1803.449219 C 1251.214844 1802.125 1269.398438 1800.140625 1287.253906 1802.457031 C 1290.5625 1802.789062 1290.230469 1797.824219 1287.253906 1797.492188 C 1269.398438 1795.183594 1250.882812 1797.160156 1233.03125 1798.484375 Z M 1267.414062 1864.945312 C 1274.035156 1864.613281 1278.988281 1858.003906 1282.296875 1853.050781 C 1286.257812 1847.421875 1288.90625 1841.144531 1290.230469 1834.191406 C 1290.894531 1831.222656 1285.929688 1829.898438 1285.597656 1832.878906 C 1284.605469 1838.164062 1282.628906 1843.460938 1279.648438 1848.085938 C 1277.003906 1852.058594 1273.371094 1857.675781 1268.738281 1859.660156 C 1266.421875 1860.652344 1264.113281 1859.328125 1263.121094 1857.34375 C 1261.796875 1854.695312 1262.128906 1851.394531 1262.457031 1848.746094 C 1263.453125 1842.46875 1264.445312 1836.179688 1266.089844 1829.898438 C 1266.421875 1828.574219 1265.425781 1826.589844 1263.78125 1826.921875 C 1252.871094 1827.914062 1242.289062 1828.90625 1231.375 1829.898438 C 1230.714844 1829.898438 1230.382812 1830.230469 1230.050781 1830.5625 C 1230.050781 1830.5625 1229.71875 1830.894531 1229.71875 1830.894531 C 1229.390625 1831.222656 1229.058594 1831.886719 1229.058594 1832.546875 C 1228.398438 1844.445312 1228.066406 1856.351562 1226.089844 1868.257812 C 1225.097656 1875.859375 1223.109375 1883.792969 1217.816406 1889.421875 C 1214.847656 1892.390625 1211.207031 1894.375 1207.234375 1895.367188 C 1206.582031 1895.699219 1205.917969 1896.03125 1205.589844 1896.691406 C 1205.257812 1897.023438 1204.59375 1897.355469 1204.59375 1898.015625 C 1201.617188 1905.289062 1198.636719 1912.558594 1195.335938 1919.84375 C 1194.675781 1921.15625 1196 1922.480469 1196.992188 1922.8125 C 1198.304688 1923.140625 1199.628906 1922.480469 1199.960938 1921.15625 C 1202.941406 1914.214844 1205.917969 1906.941406 1208.886719 1900.003906 C 1216.5 1897.355469 1222.78125 1892.390625 1226.410156 1885.117188 C 1230.714844 1876.191406 1231.375 1865.609375 1232.039062 1855.6875 C 1232.699219 1848.746094 1233.03125 1841.804688 1233.363281 1834.855469 C 1242.289062 1834.203125 1251.214844 1833.210938 1260.140625 1832.546875 C 1258.488281 1839.15625 1257.164062 1845.769531 1256.832031 1852.386719 C 1256.832031 1857.675781 1260.140625 1865.277344 1267.414062 1864.945312 Z M 915.28125 1889.089844 C 931.148438 1897.023438 943.054688 1911.566406 948.339844 1928.4375 C 949.332031 1931.40625 953.964844 1930.09375 952.972656 1927.113281 C 947.34375 1908.929688 934.457031 1893.382812 917.585938 1884.785156 C 914.949219 1883.132812 912.300781 1887.433594 915.28125 1889.089844 Z M 1089.199219 1920.503906 C 1066.382812 1953.894531 1044.226562 1987.957031 1022.742188 2022.34375 C 1012.492188 2038.871094 1002.238281 2055.082031 992.320312 2071.613281 C 987.6875 2043.835938 982.730469 2015.734375 976.773438 1988.289062 C 975.128906 1980.015625 973.144531 1971.417969 971.15625 1963.152344 C 970.496094 1960.175781 965.539062 1961.5 966.523438 1964.476562 C 973.144531 1993.90625 979.089844 2023.335938 984.054688 2052.765625 C 985.371094 2061.03125 987.023438 2069.625 988.347656 2078.222656 C 977.765625 2095.414062 967.183594 2112.945312 956.601562 2130.140625 C 945.039062 2148.984375 933.796875 2167.832031 922.21875 2186.679688 C 920.566406 2189.328125 924.867188 2191.964844 926.523438 2189.328125 C 947.675781 2154.601562 968.507812 2119.886719 989.671875 2085.492188 C 1011.828125 2049.453125 1033.976562 2013.746094 1056.792969 1978.371094 C 1068.699219 1959.84375 1080.933594 1941.328125 1093.492188 1923.140625 C 1095.480469 1920.171875 1091.1875 1917.855469 1089.199219 1920.503906 Z M 945.699219 2125.171875 C 926.523438 2126.167969 907.996094 2132.785156 892.460938 2143.691406 C 889.8125 2145.34375 892.460938 2149.980469 895.109375 2147.992188 C 909.984375 2137.410156 927.835938 2131.464844 946.03125 2130.140625 C 949 2129.808594 949 2124.84375 945.699219 2125.171875 Z M 1397.691406 2197.925781 C 1373.550781 2190.320312 1348.757812 2183.699219 1324.285156 2178.085938 C 1334.535156 2173.449219 1345.445312 2170.8125 1357.023438 2171.144531 C 1369.257812 2171.792969 1381.152344 2175.4375 1392.726562 2178.414062 C 1395.707031 2179.078125 1397.03125 2174.441406 1394.050781 2173.78125 C 1381.816406 2170.480469 1369.257812 2166.839844 1356.359375 2166.179688 C 1352.054688 2165.847656 1347.433594 2166.179688 1343.460938 2166.839844 C 1343.792969 2166.507812 1344.121094 2165.847656 1344.121094 2165.515625 C 1346.441406 2129.808594 1355.699219 2095.082031 1362.96875 2060.035156 C 1364.625 2052.101562 1366.277344 2044.167969 1367.601562 2035.902344 C 1368.265625 2032.925781 1363.300781 2031.269531 1362.96875 2034.578125 C 1360.332031 2050.117188 1356.691406 2065.664062 1353.378906 2080.871094 C 1349.417969 2099.054688 1345.445312 2117.238281 1342.796875 2135.425781 C 1341.152344 2145.34375 1339.832031 2155.265625 1339.167969 2165.183594 C 1339.167969 2166.179688 1339.5 2166.839844 1340.160156 2167.171875 C 1331.894531 2168.824219 1324.285156 2171.804688 1316.679688 2175.765625 C 1314.695312 2175.4375 1313.050781 2174.773438 1311.0625 2174.441406 C 1281.96875 2167.832031 1252.871094 2162.214844 1223.441406 2157.914062 C 1207.894531 2155.597656 1192.027344 2153.609375 1176.492188 2151.964844 C 1177.152344 2150.308594 1177.816406 2148.65625 1178.796875 2146.667969 C 1188.71875 2122.867188 1198.304688 2099.054688 1207.5625 2074.921875 C 1216.171875 2053.09375 1224.105469 2031.269531 1232.039062 2009.113281 C 1238.316406 1991.589844 1244.273438 1974.066406 1249.890625 1956.542969 C 1250.554688 1954.886719 1250.882812 1952.902344 1251.546875 1951.246094 C 1251.875 1950.585938 1251.546875 1949.269531 1250.882812 1948.941406 C 1247.574219 1945.960938 1243.941406 1943.3125 1240.632812 1940.664062 C 1235.347656 1936.703125 1229.71875 1932.070312 1223.773438 1929.429688 C 1220.792969 1928.105469 1218.476562 1932.398438 1221.125 1933.722656 C 1227.074219 1936.371094 1232.367188 1940.664062 1237.324219 1944.636719 C 1240.300781 1946.953125 1243.28125 1949.269531 1246.25 1951.910156 C 1240.964844 1968.117188 1235.679688 1984.316406 1229.71875 2000.515625 C 1222.117188 2022.011719 1214.183594 2043.507812 1205.917969 2065 C 1196.660156 2088.804688 1187.402344 2112.617188 1177.484375 2136.085938 C 1167.566406 2159.898438 1157.3125 2183.371094 1146.730469 2206.851562 C 1136.8125 2228.347656 1126.5625 2249.5 1115.316406 2270.332031 C 1113.996094 2272.648438 1113 2274.96875 1111.675781 2277.285156 C 1110.03125 2279.921875 1114.324219 2282.570312 1115.980469 2279.921875 C 1127.222656 2259.75 1137.476562 2238.929688 1147.0625 2217.765625 C 1156.320312 2197.59375 1165.246094 2177.421875 1173.84375 2157.25 C 1202.941406 2160.5625 1232.039062 2164.523438 1260.804688 2170.148438 C 1289.902344 2175.4375 1318.667969 2182.046875 1347.433594 2189.328125 C 1363.632812 2193.621094 1379.839844 2198.253906 1395.707031 2202.878906 C 1399.347656 2203.539062 1400.660156 2198.585938 1397.691406 2197.925781 Z M 1425.464844 1928.4375 C 1411.574219 1941.65625 1398.6875 1955.882812 1387.441406 1971.417969 C 1385.457031 1974.066406 1389.757812 1976.382812 1391.734375 1974.066406 C 1402.648438 1958.859375 1415.214844 1944.636719 1429.097656 1932.070312 C 1431.082031 1929.761719 1427.785156 1926.121094 1425.464844 1928.4375 Z M 1217.484375 1533.632812 C 1227.734375 1532.308594 1237.984375 1536.601562 1244.273438 1544.867188 C 1245.265625 1545.859375 1246.910156 1545.859375 1247.90625 1544.867188 C 1248.898438 1543.882812 1248.898438 1542.558594 1247.90625 1541.234375 C 1240.964844 1532.308594 1229.058594 1527.34375 1217.484375 1528.667969 C 1216.171875 1528.667969 1214.847656 1529.660156 1214.847656 1531.316406 C 1215.175781 1532.308594 1216.171875 1533.964844 1217.484375 1533.632812 Z M 1030.675781 1607.367188 C 1035.296875 1612 1038.941406 1617.949219 1040.59375 1624.226562 C 1039.269531 1623.234375 1037.617188 1622.570312 1035.960938 1622.242188 C 1032.992188 1621.589844 1031.667969 1626.214844 1034.636719 1626.875 C 1037.617188 1627.539062 1040.265625 1629.523438 1041.917969 1632.160156 C 1043.230469 1634.148438 1046.542969 1633.484375 1046.542969 1630.847656 C 1045.878906 1620.597656 1041.585938 1611.007812 1034.304688 1603.726562 C 1031.667969 1601.417969 1028.359375 1605.050781 1030.675781 1607.367188 Z M 1307.09375 1610.015625 C 1308.085938 1609.351562 1308.746094 1607.699219 1308.085938 1606.703125 C 1307.421875 1605.710938 1305.769531 1605.050781 1304.773438 1605.710938 C 1297.503906 1611.007812 1292.21875 1618.941406 1290.894531 1627.539062 C 1290.5625 1628.863281 1291.226562 1629.855469 1292.21875 1630.515625 C 1293.210938 1630.847656 1294.855469 1630.515625 1295.1875 1629.523438 C 1295.847656 1628.53125 1296.179688 1628.199219 1297.171875 1627.539062 C 1297.835938 1627.207031 1298.828125 1626.875 1299.488281 1627.207031 C 1300.8125 1627.539062 1302.136719 1626.875 1302.46875 1625.550781 C 1302.800781 1624.226562 1302.136719 1622.570312 1300.8125 1622.570312 C 1299.488281 1622.242188 1298.496094 1622.570312 1297.171875 1622.570312 C 1299.488281 1617.617188 1302.800781 1612.984375 1307.09375 1610.015625 Z M 1090.523438 1440.710938 C 1059.773438 1460.222656 1038.277344 1492.628906 1031.007812 1528.007812 C 1029.019531 1537.925781 1028.027344 1548.175781 1028.359375 1558.429688 C 1028.359375 1561.738281 1033.324219 1561.738281 1033.324219 1558.429688 C 1032 1523.714844 1045.878906 1488.988281 1070.023438 1463.863281 C 1076.964844 1456.921875 1084.566406 1450.632812 1092.832031 1445.347656 C 1095.480469 1443.359375 1093.160156 1439.058594 1090.523438 1440.710938 Z M 1050.183594 1575.621094 C 1060.433594 1561.738281 1071.679688 1548.507812 1083.574219 1535.941406 C 1085.890625 1533.632812 1082.25 1529.992188 1079.941406 1532.308594 C 1067.707031 1545.199219 1056.460938 1558.757812 1045.878906 1572.980469 C 1043.894531 1575.621094 1048.199219 1578.269531 1050.183594 1575.621094 Z M 1317.011719 1538.257812 C 1317.671875 1548.175781 1317.011719 1558.429688 1315.355469 1568.347656 C 1314.695312 1571.328125 1319.660156 1572.652344 1319.992188 1569.671875 C 1326.601562 1532.972656 1317.011719 1494.285156 1294.855469 1464.523438 C 1288.578125 1456.257812 1281.636719 1448.316406 1273.371094 1441.703125 C 1271.054688 1439.71875 1267.414062 1443.027344 1269.730469 1445.347656 C 1297.835938 1468.15625 1315.027344 1502.550781 1317.011719 1538.257812 Z M 1191.035156 1388.804688 C 1191.367188 1388.804688 1191.695312 1389.136719 1192.027344 1389.136719 C 1192.027344 1389.136719 1192.359375 1389.136719 1192.359375 1389.136719 C 1192.359375 1389.136719 1192.691406 1389.136719 1192.691406 1389.136719 C 1192.691406 1389.136719 1193.019531 1389.136719 1193.019531 1389.136719 C 1193.019531 1389.136719 1193.351562 1389.136719 1193.351562 1389.46875 C 1193.683594 1389.46875 1194.015625 1389.796875 1194.34375 1389.796875 C 1195.335938 1390.449219 1196.660156 1391.113281 1197.644531 1391.773438 C 1197.644531 1391.773438 1197.976562 1391.773438 1197.976562 1392.105469 C 1198.304688 1392.4375 1198.304688 1392.4375 1198.636719 1392.765625 C 1198.96875 1393.097656 1199.628906 1393.757812 1199.960938 1394.089844 C 1200.292969 1394.421875 1200.953125 1395.082031 1201.285156 1395.414062 C 1201.617188 1395.746094 1201.617188 1396.078125 1201.949219 1396.078125 C 1201.949219 1396.078125 1202.277344 1396.40625 1202.277344 1396.40625 C 1201.949219 1396.078125 1202.277344 1396.40625 1202.277344 1396.40625 C 1202.941406 1397.402344 1204.59375 1398.0625 1205.589844 1397.402344 C 1206.582031 1396.738281 1207.234375 1395.082031 1206.582031 1394.089844 C 1202.941406 1389.136719 1197.976562 1385.496094 1192.359375 1383.507812 C 1191.035156 1383.175781 1189.710938 1383.839844 1189.378906 1385.164062 C 1189.046875 1387.148438 1189.710938 1388.472656 1191.035156 1388.804688 Z M 1224.433594 1405.335938 C 1224.765625 1405.003906 1224.765625 1405.003906 1225.097656 1404.671875 C 1225.097656 1404.671875 1225.429688 1404.339844 1225.757812 1404.339844 C 1226.410156 1404.011719 1226.742188 1403.679688 1227.402344 1403.347656 C 1227.734375 1403.019531 1228.398438 1402.6875 1228.726562 1402.6875 C 1228.726562 1402.6875 1229.71875 1402.355469 1229.058594 1402.355469 C 1229.390625 1402.355469 1229.71875 1402.023438 1230.050781 1402.023438 C 1232.699219 1401.03125 1234.355469 1400.699219 1236.992188 1400.699219 C 1238.316406 1400.699219 1239.640625 1399.71875 1239.640625 1398.0625 C 1239.640625 1396.738281 1238.648438 1395.746094 1236.992188 1395.414062 C 1231.042969 1395.414062 1225.429688 1397.402344 1221.125 1401.363281 C 1220.132812 1402.355469 1220.132812 1404.011719 1221.125 1405.003906 C 1222.117188 1406.328125 1223.441406 1406.328125 1224.433594 1405.335938 Z M 1199.300781 1411.28125 C 1197.644531 1411.28125 1196 1411.28125 1194.015625 1411.28125 C 1193.351562 1411.28125 1192.691406 1411.613281 1192.359375 1411.945312 C 1192.027344 1412.277344 1191.695312 1412.9375 1191.695312 1413.601562 C 1191.695312 1414.921875 1192.691406 1416.246094 1194.34375 1416.246094 C 1196 1416.246094 1197.644531 1416.246094 1199.628906 1416.246094 C 1200.292969 1416.246094 1200.953125 1415.917969 1201.285156 1415.585938 C 1201.617188 1415.253906 1201.949219 1414.59375 1201.949219 1413.929688 C 1201.949219 1412.605469 1200.953125 1411.28125 1199.300781 1411.28125 Z M 1199.300781 1411.28125 " fill-opacity="1" fill-rule="nonzero"/><path fill="#ffab11" d="M 1470.761719 1699.285156 C 1471.09375 1701.933594 1469.769531 1704.910156 1467.460938 1706.566406 C 1466.46875 1707.230469 1465.144531 1707.890625 1464.152344 1707.890625 C 1462.828125 1707.890625 1461.503906 1707.890625 1460.179688 1707.230469 C 1457.542969 1706.234375 1456.21875 1703.917969 1455.886719 1701.269531 C 1455.554688 1698.632812 1456.878906 1695.652344 1459.1875 1694 C 1461.503906 1692.34375 1464.152344 1692.34375 1466.46875 1693.335938 C 1468.777344 1694.328125 1470.429688 1696.648438 1470.761719 1699.285156 Z M 1427.453125 1673.164062 C 1424.804688 1672.171875 1422.15625 1672.171875 1420.171875 1673.828125 C 1417.863281 1675.484375 1416.539062 1678.128906 1416.871094 1681.097656 C 1417.203125 1683.746094 1418.855469 1686.066406 1421.164062 1687.058594 C 1422.488281 1687.71875 1423.8125 1687.71875 1425.136719 1687.71875 C 1426.460938 1687.71875 1427.453125 1687.058594 1428.445312 1686.394531 C 1430.753906 1684.742188 1432.074219 1682.09375 1431.746094 1679.125 C 1431.746094 1676.476562 1430.089844 1674.160156 1427.453125 1673.164062 Z M 1557.058594 1602.082031 C 1554.410156 1593.472656 1548.464844 1587.195312 1539.867188 1584.214844 C 1528.292969 1580.253906 1515.074219 1584.878906 1503.832031 1596.453125 C 1503.5 1597.117188 1502.835938 1597.445312 1502.507812 1598.109375 L 1512.425781 1608.359375 C 1513.417969 1608.027344 1514.082031 1607.367188 1514.742188 1606.703125 C 1520.027344 1601.417969 1526.640625 1598.109375 1531.933594 1598.109375 C 1534.914062 1598.109375 1537.550781 1599.433594 1539.539062 1601.75 C 1545.484375 1608.691406 1542.847656 1620.265625 1537.882812 1627.867188 C 1535.898438 1631.179688 1532.265625 1635.140625 1527.300781 1637.125 C 1524.332031 1638.121094 1521.351562 1638.449219 1517.710938 1638.78125 C 1515.40625 1639.113281 1513.089844 1639.445312 1510.441406 1639.773438 C 1497.542969 1642.414062 1486.640625 1652.332031 1481.675781 1666.222656 C 1481.34375 1666.886719 1481.34375 1667.546875 1481.34375 1668.210938 L 1495.566406 1672.503906 C 1495.566406 1672.171875 1495.898438 1672.171875 1495.898438 1671.839844 C 1497.871094 1666.554688 1500.851562 1661.921875 1504.824219 1658.621094 C 1508.125 1655.972656 1512.09375 1654.320312 1518.375 1653.65625 L 1519.367188 1653.65625 C 1524.664062 1652.996094 1529.949219 1652.332031 1535.234375 1650.027344 C 1539.867188 1647.707031 1544.171875 1644.398438 1547.800781 1639.773438 C 1556.730469 1629.855469 1560.371094 1613.976562 1557.058594 1602.082031 Z M 1475.726562 1566.691406 C 1470.429688 1557.105469 1459.1875 1552.480469 1447.621094 1554.785156 C 1435.054688 1557.433594 1423.8125 1567.355469 1416.871094 1582.570312 C 1416.539062 1583.554688 1416.207031 1584.214844 1416.207031 1585.210938 L 1429.429688 1590.835938 C 1429.757812 1590.175781 1430.421875 1589.511719 1430.753906 1588.851562 C 1435.386719 1578.929688 1444.644531 1567.6875 1455.554688 1569.671875 C 1458.523438 1570.003906 1460.511719 1571.328125 1461.835938 1573.644531 C 1464.152344 1577.605469 1464.8125 1583.886719 1463.160156 1590.175781 C 1461.835938 1595.460938 1458.855469 1600.09375 1454.894531 1603.726562 C 1452.578125 1605.710938 1449.597656 1607.699219 1446.628906 1609.683594 C 1444.3125 1611.339844 1441.664062 1612.984375 1439.347656 1614.636719 C 1428.113281 1623.566406 1421.824219 1636.464844 1421.824219 1650.6875 C 1421.824219 1651.339844 1421.824219 1652 1422.15625 1652.664062 L 1436.710938 1652.332031 C 1437.042969 1651.671875 1437.042969 1650.6875 1437.042969 1650.027344 C 1437.042969 1637.125 1445.636719 1628.53125 1453.238281 1623.566406 C 1463.488281 1616.625 1472.085938 1610.015625 1476.71875 1598.4375 C 1481.011719 1586.863281 1480.679688 1575.289062 1475.726562 1566.691406 Z M 1475.726562 1566.691406 " fill-opacity="1" fill-rule="nonzero"/><path fill="#ffffff" d="M 1720.730469 2589.726562 C 1720.730469 2589.042969 1720.875 2588.515625 1721.183594 2588.152344 C 1721.515625 2587.800781 1721.96875 2587.617188 1722.550781 2587.617188 C 1723.148438 2587.617188 1723.625 2587.800781 1723.957031 2588.152344 C 1724.289062 2588.515625 1724.453125 2589.042969 1724.453125 2589.726562 C 1724.453125 2590.417969 1724.265625 2590.945312 1723.914062 2591.296875 C 1723.582031 2591.652344 1723.128906 2591.835938 1722.550781 2591.835938 C 1722.023438 2591.835938 1721.578125 2591.671875 1721.226562 2591.339844 C 1720.894531 2591.007812 1720.730469 2590.472656 1720.730469 2589.726562 Z M 1720.730469 2589.726562 " fill-opacity="1" fill-rule="nonzero"/></svg>