<svg xmlns="http://www.w3.org/2000/svg" xmlns:xlink="http://www.w3.org/1999/xlink" width="308" zoomAndPan="magnify" viewBox="0 0 230.87999 231" height="308" preserveAspectRatio="xMidYMid meet" version="1.0"><defs><g/><clipPath id="94519de4bf"><path d="M 0 0.0585938 L 230.128906 0.0585938 L 230.128906 230.191406 L 0 230.191406 Z M 0 0.0585938 " clip-rule="nonzero"/></clipPath><clipPath id="8fbb75b570"><path d="M 0 0.0585938 L 230.128906 0.0585938 L 230.128906 230.191406 L 0 230.191406 Z M 0 0.0585938 " clip-rule="nonzero"/></clipPath></defs><g clip-path="url(#94519de4bf)"><path fill="#bf1b30" d="M 115.136719 0.0585938 C 51.53125 0.0585938 0 51.59375 0 115.195312 C 0 178.796875 51.53125 230.332031 115.136719 230.332031 C 178.726562 230.332031 230.269531 178.796875 230.269531 115.195312 C 230.269531 51.59375 178.726562 0.0585938 115.136719 0.0585938 Z M 115.136719 0.0585938 " fill-opacity="1" fill-rule="nonzero"/></g><path fill="#ffffff" d="M 115.136719 45.375 C 124.4375 45.375 132.011719 53.082031 132.011719 62.578125 C 132.011719 72.074219 124.4375 79.777344 115.136719 79.777344 C 105.832031 79.777344 98.257812 72.074219 98.257812 62.578125 C 98.257812 53.082031 105.832031 45.375 115.136719 45.375 Z M 165.105469 93.648438 C 154.566406 95.390625 143.773438 96.347656 133.320312 96.875 C 129.617188 96.859375 127.316406 99.082031 127.226562 101.644531 C 126.0625 134.296875 139.507812 173.636719 139.660156 174.058594 C 140.757812 177.222656 139.070312 180.675781 135.914062 181.769531 C 135.261719 181.992188 134.585938 182.105469 133.933594 182.105469 C 131.417969 182.105469 129.074219 180.527344 128.207031 178.023438 C 127.804688 176.859375 122.460938 160.238281 118.40625 139.441406 C 117.316406 133.839844 113.625 134.507812 112.773438 139.277344 C 109.035156 160.21875 103.34375 176.859375 102.941406 178.027344 C 102.070312 180.53125 99.730469 182.113281 97.214844 182.113281 C 96.5625 182.113281 95.890625 182 95.242188 181.773438 C 92.078125 180.675781 90.398438 177.230469 91.492188 174.070312 C 91.636719 173.640625 104.980469 134.5625 103.9375 102.023438 C 103.859375 99.597656 101.816406 97.738281 98.175781 97.105469 C 79.621094 96.433594 66.480469 94.828125 65.410156 94.695312 C 62.089844 94.285156 59.738281 91.253906 60.15625 87.9375 C 60.566406 84.613281 63.566406 82.25 66.917969 82.671875 C 67.425781 82.734375 118.851562 89.023438 163.140625 81.695312 C 166.4375 81.097656 169.5625 83.382812 170.105469 86.683594 C 170.644531 89.980469 168.40625 93.101562 165.105469 93.648438 Z M 165.105469 93.648438 " fill-opacity="1" fill-rule="nonzero"/><g clip-path="url(#8fbb75b570)"><path stroke-linecap="butt" transform="matrix(6.059761, 0, 0, 6.059761, -30.298805, -30.23879)" fill="none" stroke-linejoin="miter" d="M 38.999898 23.999974 C 38.999898 24.245574 38.994096 24.49053 38.981848 24.736131 C 38.969601 24.981087 38.951551 25.226043 38.9277 25.470355 C 38.903849 25.714666 38.873552 25.958333 38.837453 26.20071 C 38.801354 26.443733 38.759454 26.685465 38.711752 26.926554 C 38.66405 27.166997 38.609902 27.406797 38.550597 27.644662 C 38.490647 27.882527 38.42554 28.119103 38.353987 28.35439 C 38.283079 28.589032 38.205724 28.822385 38.123213 29.053159 C 38.040701 29.284578 37.952388 29.513418 37.858274 29.740325 C 37.764159 29.967232 37.664887 30.19156 37.559814 30.41331 C 37.454741 30.635059 37.344511 30.85423 37.229123 31.070823 C 37.113092 31.287416 36.991903 31.500785 36.866202 31.711577 C 36.739856 31.922368 36.608353 32.129291 36.472338 32.333636 C 36.335679 32.537981 36.194507 32.738458 36.048178 32.935712 C 35.901849 33.132966 35.751007 33.326352 35.595009 33.515871 C 35.439655 33.70539 35.279144 33.891685 35.114121 34.073468 C 34.949098 34.255252 34.780208 34.433167 34.606805 34.60657 C 34.432757 34.779973 34.255486 34.949509 34.073703 35.114532 C 33.891275 35.27891 33.705624 35.439421 33.516106 35.595419 C 33.325942 35.750773 33.132556 35.901614 32.935302 36.047943 C 32.738048 36.194272 32.537571 36.335444 32.33387 36.472104 C 32.129526 36.608119 31.921958 36.739621 31.711811 36.865967 C 31.50102 36.992313 31.28765 37.112857 31.071058 37.228889 C 30.854465 37.344276 30.635294 37.455151 30.413544 37.55958 C 30.19115 37.664653 29.966822 37.763924 29.74056 37.858039 C 29.513653 37.952154 29.284168 38.040467 29.053393 38.122978 C 28.821974 38.206135 28.589266 38.282844 28.35398 38.354397 C 28.119337 38.425306 27.882761 38.491057 27.644896 38.550362 C 27.406386 38.610312 27.167232 38.663816 26.926144 38.711518 C 26.6857 38.759864 26.443967 38.801765 26.200945 38.837863 C 25.957923 38.873962 25.714256 38.903615 25.469945 38.927466 C 25.225633 38.951961 24.981322 38.970011 24.735721 38.981614 C 24.490765 38.993862 24.245164 39.000308 24.000208 39.000308 C 23.754608 39.000308 23.509007 38.993862 23.264051 38.981614 C 23.019095 38.970011 22.774139 38.951961 22.529827 38.927466 C 22.285516 38.903615 22.041849 38.873962 21.798827 38.837863 C 21.55645 38.801765 21.314717 38.759864 21.073628 38.711518 C 20.833185 38.663816 20.593386 38.610312 20.35552 38.550362 C 20.117011 38.491057 19.880435 38.425306 19.645792 38.354397 C 19.410506 38.282844 19.177798 38.206135 18.946379 38.122978 C 18.715604 38.040467 18.486764 37.952154 18.259857 37.858039 C 18.03295 37.763924 17.808622 37.664653 17.586873 37.55958 C 17.364478 37.455151 17.145307 37.344276 16.929359 37.228889 C 16.712766 37.112857 16.498752 36.992313 16.288606 36.865967 C 16.077814 36.739621 15.870246 36.608119 15.666546 36.472104 C 15.462201 36.335444 15.261724 36.194272 15.06447 36.047943 C 14.867216 35.901614 14.67383 35.750773 14.484311 35.595419 C 14.294148 35.439421 14.108497 35.27891 13.926714 35.114532 C 13.74493 34.949509 13.567015 34.779973 13.393612 34.60657 C 13.219564 34.433167 13.050674 34.255252 12.885651 34.073468 C 12.720627 33.891685 12.560761 33.70539 12.404763 33.515871 C 12.249409 33.326352 12.097923 33.132966 11.951594 32.935712 C 11.80591 32.738458 11.664093 32.537981 11.528078 32.333636 C 11.391419 32.129291 11.260561 31.922368 11.134215 31.711577 C 11.007869 31.500785 10.88668 31.287416 10.771293 31.070823 C 10.655261 30.85423 10.545031 30.635059 10.439958 30.41331 C 10.334885 30.19156 10.235613 29.967232 10.141498 29.740325 C 10.048028 29.513418 9.959715 29.284578 9.876559 29.053159 C 9.794047 28.822385 9.717338 28.589032 9.645785 28.35439 C 9.574876 28.119103 9.509125 27.882527 9.44982 27.644662 C 9.38987 27.406797 9.336366 27.166997 9.28802 26.926554 C 9.240318 26.685465 9.198418 26.443733 9.162319 26.20071 C 9.12622 25.958333 9.096567 25.714666 9.072072 25.470355 C 9.048221 25.226043 9.030171 24.981087 9.017924 24.736131 C 9.00632 24.49053 8.999874 24.245574 8.999874 23.999974 C 8.999874 23.754373 9.00632 23.509417 9.017924 23.263816 C 9.030171 23.01886 9.048221 22.773904 9.072072 22.529593 C 9.096567 22.285282 9.12622 22.041615 9.162319 21.799237 C 9.198418 21.556215 9.240318 21.314482 9.28802 21.073394 C 9.336366 20.83295 9.38987 20.593151 9.44982 20.355286 C 9.509125 20.117421 9.574876 19.880845 9.645785 19.645558 C 9.717338 19.410916 9.794047 19.177563 9.876559 18.946789 C 9.959715 18.71537 10.048028 18.486529 10.141498 18.259622 C 10.235613 18.032716 10.334885 17.808388 10.439958 17.586638 C 10.545031 17.364888 10.655261 17.145717 10.771293 16.929124 C 10.88668 16.712532 11.007869 16.499162 11.134215 16.288371 C 11.260561 16.07758 11.391419 15.870656 11.528078 15.666312 C 11.664093 15.462611 11.80591 15.26149 11.951594 15.064235 C 12.097923 14.867626 12.249409 14.673595 12.404763 14.484076 C 12.560761 14.294558 12.720627 14.108262 12.885651 13.926479 C 13.050674 13.744696 13.219564 13.566781 13.393612 13.393377 C 13.567015 13.219974 13.74493 13.050439 13.926714 12.885416 C 14.108497 12.721038 14.294148 12.560527 14.484311 12.404529 C 14.67383 12.249175 14.867216 12.098334 15.06447 11.952005 C 15.261724 11.805676 15.462201 11.664504 15.666546 11.527844 C 15.870246 11.391829 16.077814 11.260326 16.288606 11.13398 C 16.498752 11.007635 16.712766 10.88709 16.929359 10.771059 C 17.145307 10.655671 17.364478 10.544797 17.586873 10.440368 C 17.808622 10.335295 18.03295 10.236023 18.259857 10.141908 C 18.486764 10.047794 18.715604 9.959481 18.946379 9.876969 C 19.177798 9.794458 19.410506 9.717103 19.645792 9.646195 C 19.880435 9.574642 20.117011 9.50889 20.35552 9.449585 C 20.593386 9.389636 20.833185 9.336132 21.073628 9.28843 C 21.314717 9.240083 21.55645 9.198183 21.798827 9.162084 C 22.041849 9.12663 22.285516 9.096333 22.529827 9.072482 C 22.774139 9.047986 23.019095 9.029937 23.264051 9.018334 C 23.509007 9.006086 23.754608 9.000284 24.000208 9.000284 C 24.245164 9.000284 24.490765 9.006086 24.735721 9.018334 C 24.981322 9.029937 25.225633 9.047986 25.469945 9.072482 C 25.714256 9.096333 25.957923 9.12663 26.200945 9.162084 C 26.443967 9.198183 26.6857 9.240083 26.926144 9.28843 C 27.167232 9.336132 27.406386 9.389636 27.644896 9.449585 C 27.882761 9.50889 28.119337 9.574642 28.35398 9.646195 C 28.589266 9.717103 28.821974 9.794458 29.053393 9.876969 C 29.284168 9.959481 29.513653 10.047794 29.74056 10.141908 C 29.966822 10.236023 30.19115 10.335295 30.413544 10.440368 C 30.635294 10.544797 30.854465 10.655671 31.071058 10.771059 C 31.28765 10.88709 31.50102 11.007635 31.711811 11.13398 C 31.921958 11.260326 32.129526 11.391829 32.33387 11.527844 C 32.537571 11.664504 32.738048 11.805676 32.935302 11.952005 C 33.132556 12.098334 33.325942 12.249175 33.516106 12.404529 C 33.705624 12.560527 33.891275 12.721038 34.073703 12.885416 C 34.255486 13.050439 34.432757 13.219974 34.606805 13.393377 C 34.780208 13.566781 34.949098 13.744696 35.114121 13.926479 C 35.279144 14.108262 35.439655 14.294558 35.595009 14.484076 C 35.751007 14.673595 35.901849 14.867626 36.048178 15.064235 C 36.194507 15.26149 36.335679 15.462611 36.472338 15.666312 C 36.608353 15.870656 36.739856 16.07758 36.866202 16.288371 C 36.991903 16.499162 37.113092 16.712532 37.229123 16.929124 C 37.344511 17.145717 37.454741 17.364888 37.559814 17.586638 C 37.664887 17.808388 37.764159 18.032716 37.858274 18.259622 C 37.952388 18.486529 38.040701 18.71537 38.123213 18.946789 C 38.205724 19.177563 38.283079 19.410916 38.353987 19.645558 C 38.42554 19.880845 38.490647 20.117421 38.550597 20.355286 C 38.609902 20.593151 38.66405 20.83295 38.711752 21.073394 C 38.759454 21.314482 38.801354 21.556215 38.837453 21.799237 C 38.873552 22.041615 38.903849 22.285282 38.9277 22.529593 C 38.951551 22.773904 38.969601 23.01886 38.981848 23.263816 C 38.994096 23.509417 38.999898 23.754373 38.999898 23.999974 Z M 38.999898 23.999974 " stroke="#ffffff" stroke-width="2" stroke-opacity="1" stroke-miterlimit="4"/></g><g fill="#ffe052" fill-opacity="1"><g transform="translate(175.552793, 126.74416)"><g><path d="M 0.890625 -0.625 C 0.890625 -0.882812 0.945312 -1.082031 1.0625 -1.21875 C 1.1875 -1.351562 1.359375 -1.421875 1.578125 -1.421875 C 1.804688 -1.421875 1.984375 -1.351562 2.109375 -1.21875 C 2.234375 -1.082031 2.296875 -0.882812 2.296875 -0.625 C 2.296875 -0.363281 2.234375 -0.164062 2.109375 -0.03125 C 1.984375 0.101562 1.804688 0.171875 1.578125 0.171875 C 1.378906 0.171875 1.210938 0.109375 1.078125 -0.015625 C 0.953125 -0.140625 0.890625 -0.34375 0.890625 -0.625 Z M 0.890625 -0.625 "/></g></g></g></svg>